<svg width="20" height="13" viewBox="0 0 20 13" fill="none" xmlns="http://www.w3.org/2000/svg">
<path d="M10.0073 13C15.9825 13 20 8.03405 20 6.49625C20 4.95845 15.968 0 10.0073 0C4.11936 0 0 4.95845 0 6.49625C0 8.03405 4.1048 13 10.0073 13ZM10.0073 11.5297C5.3639 11.5297 1.6885 7.54645 1.6885 6.49625C1.6885 5.61858 5.3639 1.47028 10.0073 1.47028C14.6288 1.47028 18.3115 5.61858 18.3115 6.49625C18.3115 7.54645 14.6288 11.5297 10.0073 11.5297ZM10.0073 10.5245C12.1761 10.5245 13.9156 8.68667 13.9156 6.49625C13.9156 4.25332 12.1761 2.47548 10.0073 2.47548C7.82387 2.47548 6.07715 4.25332 6.08442 6.49625C6.09898 8.68667 7.82387 10.5245 10.0073 10.5245ZM10 7.794C9.30131 7.794 8.73362 7.20889 8.73362 6.49625C8.73362 5.78361 9.30131 5.1985 10 5.1985C10.6987 5.1985 11.2664 5.78361 11.2664 6.49625C11.2664 7.20889 10.6987 7.794 10 7.794Z" fill="#828282"/>
</svg>
