<svg width="21" height="18" viewBox="0 0 21 18" fill="none" xmlns="http://www.w3.org/2000/svg">
<path d="M0.650391 12.3481C1.00195 12.3393 1.26562 12.0581 1.27441 11.7065C1.3623 7.89206 3.33105 5.05319 6.3457 3.96335L8.26172 9.23679C8.2793 9.28073 8.27051 9.31589 8.22656 9.33347C8.2002 9.34226 8.17383 9.33347 8.14746 9.3071L7.28613 8.38425C6.76758 7.88327 6.14355 7.73386 5.53711 7.95359C4.63184 8.28757 4.0957 9.1489 4.45605 10.1333C4.55273 10.4233 4.7373 10.7485 4.95703 11.0122L7.94531 14.6069C10.2393 17.3755 12.9902 18.228 16.0225 17.1206C19.7314 15.7671 21.252 12.48 19.7842 8.44577L19.0635 6.45944C18.3428 4.49948 16.9629 3.66452 15.3457 4.21823C14.8975 3.6821 14.2207 3.49753 13.5 3.7612C13.2627 3.84909 13.0518 3.96335 12.8672 4.11277C12.375 3.53269 11.6631 3.32175 10.9248 3.59421C10.7666 3.64694 10.6172 3.73484 10.4766 3.8403L9.57129 1.37058C9.1582 0.228 8.12988 -0.255399 7.05762 0.13132C5.95898 0.526828 5.47559 1.57273 5.88867 2.7153L5.89746 2.74167C2.39941 4.01609 0 7.3823 0 11.6801C0 12.0493 0.307617 12.3569 0.650391 12.3481ZM15.5479 15.6792C13.21 16.5317 11.0742 16.0483 9.06152 13.6665L6.04688 10.1245C5.96777 10.0278 5.91504 9.93991 5.8623 9.81687C5.77441 9.56198 5.87988 9.28073 6.17871 9.17527C6.41602 9.08737 6.61816 9.17527 6.81152 9.3862L8.91211 11.4868C9.26367 11.8384 9.59766 11.8823 9.91406 11.768C10.3008 11.6274 10.4854 11.2143 10.3271 10.7661L7.18945 2.14402C7.0752 1.82761 7.20703 1.53757 7.51465 1.42331C7.81348 1.31784 8.09473 1.45847 8.20898 1.76609L10.415 7.83054C10.5381 8.16452 10.916 8.32273 11.25 8.19968C11.5752 8.07663 11.751 7.71628 11.6367 7.3823L10.8545 5.23777C10.96 5.1323 11.1182 5.03562 11.2588 4.98288C11.6191 4.85105 11.9268 5.00925 12.0674 5.38718L12.7793 7.33835C12.9023 7.68991 13.2715 7.83054 13.6055 7.70749C13.9219 7.59323 14.1064 7.25046 13.9834 6.8989L13.4385 5.40476C13.5439 5.29929 13.7021 5.20261 13.8428 5.14987C14.2031 5.01804 14.5107 5.17624 14.6514 5.55417L15.126 6.84616C15.249 7.19773 15.627 7.34714 15.9609 7.22409C16.2773 7.10984 16.4707 6.75827 16.3389 6.40671L16.04 5.58054C16.708 5.34323 17.3057 5.853 17.7275 7.00437L18.3779 8.79734C19.582 12.0932 18.4922 14.6069 15.5479 15.6792Z" fill="#2D9CDB"/>
</svg>
