<svg width="16" height="16" viewBox="0 0 16 16" fill="none" xmlns="http://www.w3.org/2000/svg">
<path d="M0.932187 13.3475H1.93314C2.16237 13.3475 2.25406 13.3027 2.42216 13.1757L2.9341 12.7946C3.21681 13.071 3.63706 13.1308 4.05731 12.9515L6.58644 11.9204C6.77746 11.8457 6.87679 11.771 6.99904 11.6514L14.3801 4.48593C15.1137 3.76863 15.1137 2.90937 14.3725 2.17713L12.7144 0.548277C11.9733 -0.176489 11.0946 -0.183961 10.361 0.533334L2.97994 7.69134C2.85005 7.81836 2.78128 7.90802 2.69723 8.10229L1.62751 10.568C1.45177 10.964 1.49761 11.3525 1.78032 11.6589L0.680038 12.7722C0.443171 13.0187 0.557784 13.3475 0.932187 13.3475ZM11.2092 1.51961C11.4078 1.33282 11.6447 1.32535 11.8281 1.51214L13.3868 3.04387C13.5778 3.23066 13.5702 3.45482 13.3639 3.64908L12.8672 4.13475L10.7049 2.01275L11.2092 1.51961ZM4.33238 8.20689L9.87966 2.81971L12.0344 4.94171L6.49475 10.3289L4.33238 8.20689ZM3.90449 11.629C3.75931 11.6813 3.65998 11.6813 3.53009 11.5543L3.04871 11.091C2.92646 10.9715 2.92646 10.8594 2.97994 10.7324L3.66762 9.17076L5.50143 10.9789L3.90449 11.629ZM0.672397 16H15.3352C15.702 16 16 15.6937 16 15.335C16 14.9764 15.702 14.6775 15.3352 14.6775H0.672397C0.297994 14.6775 0 14.9764 0 15.335C0 15.6937 0.305635 16 0.672397 16Z" fill="#A5A6F6"/>
</svg>
