<svg width="62" height="62" viewBox="0 0 62 62" fill="none" xmlns="http://www.w3.org/2000/svg">
<path d="M30.985 62C47.9758 62 62 47.9691 62 31C62 14.0309 47.9459 0 30.9551 0C13.9942 0 0 14.0309 0 31C0 47.9691 14.0242 62 30.985 62ZM30.9551 35.8868C25.0817 35.8569 20.5268 30.94 20.5268 24.4342C20.4669 18.3182 25.1116 13.2215 30.9551 13.2215C36.7985 13.2215 41.3833 18.3182 41.3833 24.4342C41.3833 30.94 36.8284 35.9468 30.9551 35.8868ZM30.9551 56.8733C24.2426 56.8733 17.1107 54.0851 12.5858 49.2282C16.0319 44.0716 22.8642 41.0735 30.9551 41.0735C38.956 41.0735 45.8482 44.0116 49.3243 49.2282C44.7994 54.0851 37.6675 56.8733 30.9551 56.8733Z" fill="#D9D9D9"/>
</svg>
