<svg width="12" height="14" viewBox="0 0 12 14" fill="none" xmlns="http://www.w3.org/2000/svg">
<path d="M5.9964 14C6.12613 14 6.31351 13.951 6.5009 13.8601C10.6306 11.7972 12 10.7133 12 8.2028V3.00699C12 2.18182 11.6685 1.88112 10.955 1.59441C10.1622 1.27273 7.52432 0.370629 6.75315 0.118881C6.51532 0.0489511 6.24865 0 5.9964 0C5.75135 0 5.48468 0.0489511 5.24685 0.118881C4.46847 0.356643 1.83063 1.27972 1.04505 1.59441C0.331532 1.87413 0 2.18182 0 3.00699V8.2028C0 10.7133 1.42703 11.6993 5.4991 13.8601C5.68649 13.958 5.87387 14 5.9964 14ZM5.1964 10.1399C4.92252 10.1399 4.6991 10.028 4.4973 9.77622L2.73153 7.6993C2.6018 7.53846 2.53694 7.37063 2.53694 7.1958C2.53694 6.83217 2.83243 6.53846 3.2 6.53846C3.43063 6.53846 3.6036 6.62238 3.79099 6.84615L5.17477 8.54545L8.14414 3.93706C8.3027 3.69231 8.5045 3.56643 8.73514 3.56643C9.0955 3.56643 9.43423 3.81119 9.43423 4.18182C9.43423 4.34266 9.34775 4.51748 9.24685 4.67832L5.86667 9.76923C5.7009 10.014 5.47027 10.1399 5.1964 10.1399Z" fill="#6FC727"/>
</svg>
