<svg width="33" height="40" viewBox="0 0 33 40" fill="none" xmlns="http://www.w3.org/2000/svg">
<path d="M16.4902 40C16.8415 40 17.3684 39.8821 17.8758 39.6069C29.097 33.4545 33 30.6044 33 23.4496V8.60934C33 6.25061 32.1023 5.40541 30.1313 4.5602C27.9846 3.63636 20.686 1.08108 18.5784 0.353808C17.9148 0.137592 17.1733 0 16.4902 0C15.8267 0 15.0656 0.176904 14.4216 0.353808C12.314 0.963145 5.01538 3.65602 2.86872 4.5602C0.897694 5.38575 0 6.25061 0 8.60934V23.4496C0 30.6044 3.90302 33.4152 15.1242 39.6069C15.6316 39.8821 16.1585 40 16.4902 40ZM16.4902 35.8329C16.217 35.8329 15.9438 35.7346 15.3779 35.3808C6.47901 29.9165 3.70787 28.4423 3.70787 22.7224V9.23833C3.70787 8.53071 3.84447 8.25553 4.39089 8.01966C7.27912 6.85995 12.88 4.99263 15.4559 3.97052C15.9048 3.81327 16.217 3.7543 16.4902 3.7543C16.783 3.7543 17.0952 3.81327 17.5441 3.97052C20.12 4.99263 25.6818 6.97789 28.5896 8.01966C29.1555 8.23587 29.2921 8.53071 29.2921 9.23833V22.7224C29.2921 28.4816 26.4039 30.0344 17.6221 35.3808C17.0562 35.7346 16.783 35.8329 16.4902 35.8329ZM16.4902 22.1916C17.5636 22.1916 18.1881 21.602 18.2076 20.4423L18.5003 10.9877C18.5393 9.84767 17.6807 9.00246 16.4707 9.00246C15.2608 9.00246 14.4216 9.82801 14.4607 10.9681L14.7339 20.4619C14.7729 21.5823 15.3974 22.1916 16.4902 22.1916ZM16.4902 28.7174C17.7587 28.7174 18.793 27.8133 18.793 26.5553C18.793 25.317 17.7782 24.3931 16.4902 24.3931C15.2218 24.3931 14.1875 25.317 14.1875 26.5553C14.1875 27.7936 15.2413 28.7174 16.4902 28.7174Z" fill="#FFA200"/>
</svg>
