<svg width="34" height="34" viewBox="0 0 34 34" fill="none" xmlns="http://www.w3.org/2000/svg">
<g clip-path="url(#clip0_96_2658)">
<path d="M17.1635 0C21.1719 0.195815 24.9168 -0.0587445 28.6361 0.607026C31.957 1.19447 33.4794 2.72183 33.6657 6.15512C33.9227 10.9069 34.2438 15.6391 33.73 20.4104C33.306 24.3463 31.6873 26.3828 27.7689 26.6765C25.3215 26.8593 22.8484 26.8528 20.3882 26.8005C18.6667 26.7614 18.2234 27.5512 18.1977 29.1634C18.1656 30.9061 18.8594 31.3696 20.4781 31.4152C21.8271 31.4479 24.2552 30.5732 24.2616 32.5053C24.2744 34.8028 21.7693 33.7389 20.3561 33.8368C17.9087 34.0065 15.4356 33.9478 12.9754 33.8564C11.7228 33.8107 9.64154 34.4895 9.66723 32.5053C9.6865 30.7756 11.6778 31.4414 12.8533 31.3826C14.3757 31.3043 15.8981 31.6111 15.7825 29.1634C15.7054 27.5381 15.2943 26.781 13.5792 26.8332C11.3374 26.905 9.08268 26.8462 6.84086 26.7222C2.06171 26.4611 0.603561 24.6335 0.198876 19.8361C-0.160844 15.4955 0.0254393 11.2071 0.269535 6.88616C0.513631 2.59781 1.84974 1.22711 5.92228 0.593972C9.76358 0 13.6049 0.208869 17.1635 0ZM17.0736 2.70877V2.72835C13.6498 2.72835 10.2197 2.61087 6.80874 2.77404C4.92021 2.86543 2.96744 3.08735 2.78115 5.90056C2.45355 10.8743 2.0039 15.8088 2.69765 20.8151C3.07664 23.55 4.40632 24.3528 6.75735 24.1962C9.03772 24.0461 12.2302 25.5995 12.4101 21.2524C12.5386 18.1716 13.9389 16.3179 17.1379 16.3375C19.945 16.3571 21.3003 17.8583 21.4866 21.5853C21.5958 23.7915 22.5208 24.4508 24.4993 24.2484C25.4564 24.1505 26.4263 24.144 27.3835 24.2027C30.1328 24.3659 31.0577 23.0148 31.2569 20.2995C31.5845 15.861 31.5973 11.4748 31.3275 7.0167C31.1284 3.78576 29.7152 2.7871 27.0302 2.72183C23.7156 2.6435 20.401 2.70225 17.08 2.70225L17.0736 2.70877ZM19.4953 22.3882C19.3219 20.7107 19.3347 18.6024 17.1122 18.5176C14.6327 18.4262 14.6648 20.6193 14.4528 22.4534C14.1894 24.6923 15.4934 24.8228 17.1635 24.8359C18.8851 24.8489 19.8229 24.3202 19.5017 22.3816L19.4953 22.3882Z" fill="#B9B2C1"/>
<path d="M17.0678 2.70877C20.3823 2.70877 23.7033 2.65003 27.0179 2.72835C29.7029 2.7871 31.1161 3.79228 31.3153 7.02323C31.5915 11.4813 31.5722 15.8675 31.2446 20.306C31.0455 23.0213 30.1205 24.3659 27.3712 24.2093C26.4141 24.1505 25.4377 24.157 24.487 24.2549C22.515 24.4573 21.5835 23.798 21.4743 21.5919C21.2945 17.8648 19.9391 16.3571 17.1256 16.344C13.9266 16.3244 12.5263 18.1716 12.3978 21.259C12.218 25.6061 9.03186 24.0526 6.74507 24.2027C4.39404 24.3594 3.06436 23.5565 2.68537 20.8217C1.99162 15.8153 2.44127 10.8808 2.76887 5.90708C2.95516 3.09387 4.91435 2.87195 6.79646 2.78057C10.2138 2.61739 13.6376 2.73488 17.0613 2.73488V2.7153L17.0678 2.70877ZM21.5321 9.83643C21.5643 7.08197 19.7335 4.98675 17.177 4.86273C14.5176 4.73219 12.4364 6.8731 12.4299 9.75158C12.4235 12.617 14.1386 14.3793 16.9457 14.412C19.7785 14.4381 21.4936 12.728 21.5321 9.83643Z" fill="white"/>
<path d="M19.4897 22.3817C19.8109 24.3202 18.8794 24.8489 17.1515 24.8359C15.4814 24.8228 14.1838 24.6923 14.4408 22.4535C14.6527 20.6193 14.627 18.4262 17.1001 18.5176C19.3227 18.6024 19.3098 20.7107 19.4833 22.3882L19.4897 22.3817Z" fill="white"/>
<path d="M21.5319 9.83642C21.4998 12.728 19.7783 14.4381 16.9455 14.412C14.132 14.3859 12.4233 12.617 12.4297 9.75157C12.4361 6.87309 14.5174 4.73218 17.1767 4.86272C19.7333 4.98674 21.564 7.08196 21.5319 9.83642ZM19.4507 9.56228C19.2259 8.17852 18.4293 7.29082 16.9326 7.29082C15.5901 7.29082 14.6458 8.10019 14.5816 9.42521C14.5109 10.8677 15.2368 11.8403 16.862 11.8925C18.4486 11.9447 19.1745 11.1027 19.4507 9.55575V9.56228Z" fill="#B9B2C1"/>
<path d="M19.4499 9.56229C19.1737 11.1092 18.4479 11.9512 16.8612 11.899C15.2361 11.8468 14.5102 10.8677 14.5809 9.43175C14.6451 8.10673 15.5894 7.29736 16.9319 7.29736C18.4286 7.29736 19.2251 8.18506 19.4499 9.56882V9.56229Z" fill="white"/>
</g>
<defs>
<clipPath id="clip0_96_2658">
<rect width="34" height="34" fill="white"/>
</clipPath>
</defs>
</svg>
