<svg width="34" height="34" viewBox="0 0 34 34" fill="none" xmlns="http://www.w3.org/2000/svg">
<g clip-path="url(#clip0_96_2682)">
<path d="M16.9687 0C21.3229 0.130568 25.1577 0.0391705 28.9861 0.600614C31.9551 1.03802 33.3595 2.78763 33.5904 5.5361C34.02 10.7131 34.2188 15.9032 33.6481 21.0933C33.2697 24.4946 31.3972 26.4075 27.7164 26.6751C25.3757 26.8449 23.0159 26.8514 20.6688 26.7861C18.931 26.7404 18.1807 27.3018 18.1935 29.2016C18.2064 30.9969 18.963 31.3495 20.5213 31.4017C21.8616 31.4474 24.2792 30.5726 24.2535 32.5376C24.2214 34.7834 21.7333 33.7519 20.3161 33.8303C17.5459 33.9935 14.7627 33.9021 11.9861 33.8629C10.9536 33.8498 9.52359 34.0131 9.61978 32.4593C9.69674 31.2124 11.0049 31.4278 11.9476 31.3429C13.6598 31.1993 16.0966 32.2439 15.7824 28.7838C15.6605 27.4324 15.2373 26.8318 13.8714 26.8383C11.4153 26.8514 8.95287 26.8644 6.50322 26.6947C2.0913 26.3813 0.603563 24.5338 0.250866 20.1141C-0.108244 15.6682 -0.0697679 11.2681 0.289342 6.82873C0.635626 2.58525 1.89251 1.22734 5.99662 0.581029C9.8314 -0.0195853 13.6598 0.208909 16.9687 0ZM2.18108 14.0296C1.97588 16.3406 2.78387 18.5538 2.79028 20.8257C2.80311 23.1367 3.97022 23.9985 6.15694 24.2204C13.384 24.9516 20.5983 24.2596 27.8254 24.1878C30.0826 24.1682 30.9676 23.0584 31.1984 20.8126C31.7114 15.9489 31.673 11.1244 31.2369 6.2477C31.0381 4.00845 30.0377 2.99654 28.1717 2.87903C20.7201 2.40246 13.2558 2.40899 5.81066 2.89209C4.3165 2.99002 2.91854 3.57757 2.82235 5.62097C2.69409 8.42819 2.39911 11.2289 2.17467 14.0296H2.18108Z" fill="#B9B2C1"/>
<path d="M2.17952 14.0296C2.40396 11.2289 2.69895 8.42819 2.8272 5.62097C2.91698 3.57758 4.32135 2.99002 5.81551 2.89209C13.267 2.40246 20.725 2.39593 28.1765 2.87904C30.0426 2.99655 31.0366 4.00845 31.2418 6.2477C31.6778 11.1244 31.7163 15.9489 31.2033 20.8126C30.966 23.0584 30.0875 24.1682 27.8302 24.1878C20.6095 24.2596 13.3953 24.9516 6.16179 24.2204C3.97507 23.9985 2.80796 23.1367 2.79514 20.8257C2.78231 18.5538 1.98073 16.3341 2.18593 14.0296H2.17952ZM9.40019 19.3633C9.304 20.6233 9.61181 21.596 11.5613 21.126C13.2414 20.7147 14.8125 20.3099 16.0758 18.9389C18.4228 16.4124 20.8276 13.9382 23.3221 11.5684C24.8483 10.1191 24.8483 8.98963 23.3221 7.54033C21.8472 6.13019 20.5967 5.09217 18.7755 7.05069C16.5054 9.49885 14.1969 11.9274 11.7408 14.1732C10.2531 15.5376 9.91321 17.2807 9.39378 19.3698L9.40019 19.3633Z" fill="white"/>
<path d="M9.40189 19.3633C9.92132 17.2807 10.2612 15.5376 11.7489 14.1667C14.205 11.9144 16.5135 9.48579 18.7836 7.04416C20.6048 5.08564 21.8553 6.12365 23.3302 7.53379C24.85 8.98963 24.85 10.1125 23.3302 11.5618C20.8357 13.9316 18.4309 16.4059 16.0839 18.9324C14.8206 20.2968 13.2495 20.7081 11.5694 21.1194C9.62634 21.596 9.31853 20.6167 9.40831 19.3568L9.40189 19.3633ZM21.5731 9.71428C21.3295 9.35522 21.1563 8.8917 20.9896 8.8917C20.6177 8.8917 20.1431 9.0288 19.8866 9.28994C17.6037 11.5684 15.3464 13.8729 13.1084 16.1905C12.6595 16.654 12.1786 17.2938 12.7301 17.8813C13.3521 18.5407 13.8908 17.8683 14.314 17.4374C16.443 15.3091 18.5464 13.1613 20.6433 10.9939C21.0024 10.6217 21.2589 10.1517 21.5731 9.70776V9.71428Z" fill="#B9B2C1"/>
<path d="M21.5785 9.71431C21.2643 10.1582 21.0078 10.6283 20.6487 11.0004C18.5581 13.1613 16.4484 15.3092 14.3194 17.444C13.8897 17.8748 13.351 18.5473 12.7354 17.8879C12.1839 17.3003 12.6649 16.6605 13.1138 16.197C15.3582 13.8794 17.6091 11.5749 19.892 9.29649C20.1549 9.03535 20.623 8.90478 20.995 8.89825C21.1617 8.89825 21.3348 9.36177 21.5785 9.72084V9.71431Z" fill="white"/>
</g>
<defs>
<clipPath id="clip0_96_2682">
<rect width="34" height="34" fill="white"/>
</clipPath>
</defs>
</svg>
