<svg width="34" height="34" viewBox="0 0 34 34" fill="none" xmlns="http://www.w3.org/2000/svg">
<g clip-path="url(#clip0_96_2639)">
<path d="M17.3992 0C21.2197 0.144207 25.0401 0.0327743 28.8605 0.583382C31.9707 1.02911 33.3465 2.82514 33.5961 5.7486C34.0313 10.8352 34.2168 15.9217 33.6409 21.0214C33.2505 24.4889 31.4395 26.4816 27.8494 26.7635C25.5201 26.947 23.1651 26.9208 20.8229 26.888C19.2487 26.8683 18.2056 27.0912 18.1992 29.1494C18.1992 31.1355 19.0631 31.4436 20.7205 31.5026C22.0004 31.5485 24.3234 30.5784 24.3042 32.63C24.2914 34.295 21.9812 33.941 20.5477 33.9541C17.7768 33.9869 15.0123 33.9934 12.2413 33.941C11.2174 33.9213 9.71995 33.9541 9.71355 32.63C9.70075 31.129 11.243 31.6009 12.2221 31.4239C13.3804 31.2207 14.8715 32.0991 15.633 30.539C16.5545 28.6578 15.4666 27.0519 13.2908 26.9273C10.3279 26.7569 7.35218 27.0977 4.39565 26.3964C1.93189 25.813 0.7224 24.1415 0.447226 21.8539C-0.199113 16.3675 -0.115921 10.8155 0.492021 5.30943C0.792793 2.60228 2.29665 0.924234 5.30437 0.583382C9.33599 0.131097 13.3612 0.0917679 17.3992 0ZM2.22626 14.0929C1.95108 16.4199 2.8534 18.6289 2.8406 20.9165C2.8342 23.2369 4.02449 24.0891 6.20028 24.3185C13.4124 25.0657 20.6117 24.3382 27.8174 24.2792C30.07 24.2595 30.9468 23.1452 31.1835 20.8837C31.6891 16.0004 31.6571 11.1564 31.2219 6.25988C31.0235 4.00501 30.0124 3.00212 28.1566 2.88413C20.7205 2.40563 13.278 2.40563 5.84192 2.9038C4.35086 3.00212 2.96219 3.59206 2.879 5.65028C2.76381 8.46887 2.45024 11.2809 2.22626 14.0929Z" fill="#B9B2C1"/>
<path d="M2.22633 14.0929C2.45031 11.2809 2.76388 8.46886 2.87907 5.65028C2.96866 3.59205 4.35733 3.00212 5.84199 2.90379C13.2781 2.40563 20.7206 2.41218 28.1567 2.88413C30.0125 3.00212 31.0172 4.01156 31.222 6.25988C31.6572 11.1563 31.6956 16.0004 31.1836 20.8837C30.9468 23.1452 30.0701 24.2595 27.8175 24.2792C20.6118 24.3382 13.4125 25.0657 6.20036 24.3185C4.02456 24.0956 2.82788 23.2435 2.84067 20.9165C2.84707 18.6289 1.94476 16.4133 2.22633 14.0929ZM17.0537 11.0318C19.0631 11.0318 21.0726 11.0711 23.082 11.0121C23.8819 10.9859 24.541 10.5074 24.4898 9.58319C24.445 8.78349 23.7795 8.57374 23.1076 8.57374C19.0887 8.56718 15.0635 8.56063 11.0447 8.60651C10.2704 8.61307 9.52804 8.99325 9.62403 9.96337C9.70083 10.7106 10.3728 11.0121 11.0191 11.0253C13.0285 11.0711 15.0379 11.0384 17.0473 11.0384L17.0537 11.0318ZM13.7644 16.6428C14.8843 15.8824 17.3417 17.4359 17.3929 15.4891C17.4441 13.5554 15.0315 14.46 13.758 14.4731C12.363 14.4862 9.84161 13.4964 9.83522 15.6071C9.83522 17.3507 12.331 16.0069 13.7644 16.6428Z" fill="white"/>
<path d="M17.0547 11.0318C15.0453 11.0318 13.0359 11.0646 11.0265 11.0187C10.3738 11.0056 9.70184 10.7041 9.63145 9.95682C9.53546 8.98671 10.2778 8.61308 11.0521 8.59997C15.0709 8.55409 19.0962 8.56064 23.115 8.5672C23.7869 8.5672 24.4525 8.77695 24.4972 9.57664C24.5484 10.4943 23.8893 10.9794 23.0894 11.0056C21.08 11.0711 19.0706 11.0253 17.0611 11.0253L17.0547 11.0318Z" fill="#B9B2C1"/>
<path d="M13.7652 16.6362C12.3317 15.9938 9.82955 17.3376 9.83595 15.6005C9.84235 13.4899 12.3637 14.4797 13.7588 14.4666C15.0323 14.4534 17.4512 13.5489 17.3936 15.4826C17.3424 17.4293 14.8851 15.8758 13.7652 16.6362Z" fill="#B9B2C1"/>
</g>
<defs>
<clipPath id="clip0_96_2639">
<rect width="34" height="34" fill="white"/>
</clipPath>
</defs>
</svg>
