<svg width="1535" height="209" viewBox="0 0 1535 209" fill="none" xmlns="http://www.w3.org/2000/svg">
<mask id="path-1-outside-1_16_3794" maskUnits="userSpaceOnUse" x="0" y="0" width="1535" height="211" fill="black">
<rect fill="white" width="1535" height="211"/>
<path d="M88.3702 152.132H57.8866V205.019H2V5.98077H92.3218C110.198 5.98077 125.722 9.01374 138.894 15.0797C152.066 20.956 162.227 29.4863 169.378 40.6703C176.528 51.6648 180.103 64.6497 180.103 79.625C180.103 94.0316 176.716 106.637 169.942 117.442C163.356 128.058 153.853 136.398 141.434 142.464L184.055 205.019H124.217L88.3702 152.132ZM123.652 79.625C123.652 70.3365 120.735 63.1332 114.902 58.0151C109.069 52.897 100.413 50.3379 88.9347 50.3379H57.8866V108.628H88.9347C100.413 108.628 109.069 106.163 114.902 101.235C120.735 96.1168 123.652 88.9135 123.652 79.625ZM343.313 166.349H259.765L244.241 205.019H187.226L274.443 5.98077H329.483L416.982 205.019H358.837L343.313 166.349ZM326.942 124.835L301.539 61.1429L276.136 124.835H326.942ZM464.958 50.6223H404.274V5.98077H581.248V50.6223H520.845V205.019H464.958V50.6223ZM760.696 161.515V205.019H602.069V5.98077H757.027V49.4849H657.391V83.0371H745.172V125.119H657.391V161.515H760.696ZM915.906 50.6223H855.221V5.98077H1032.2V50.6223H971.792V205.019H915.906V50.6223ZM1241 5.98077V205.019H1185.11V127.394H1108.9V205.019H1053.02V5.98077H1108.9V80.7624H1185.11V5.98077H1241ZM1280.42 5.98077H1336.31V205.019H1280.42V5.98077ZM1445.5 209C1429.51 209 1413.98 207.01 1398.93 203.029C1383.88 199.048 1371.64 193.74 1362.24 187.106L1380.58 145.592C1389.43 151.468 1399.68 156.207 1411.35 159.809C1423.01 163.411 1434.49 165.212 1445.78 165.212C1467.23 165.212 1477.96 159.809 1477.96 149.004C1477.96 143.317 1474.86 139.147 1468.65 136.493C1462.62 133.65 1452.84 130.712 1439.29 127.679C1424.43 124.456 1412.01 121.044 1402.03 117.442C1392.06 113.651 1383.5 107.68 1376.35 99.5288C1369.2 91.3777 1365.62 80.3832 1365.62 66.5453C1365.62 54.4135 1368.92 43.5137 1375.5 33.8461C1382.09 23.989 1391.87 16.217 1404.86 10.5302C1418.03 4.84341 1434.12 2 1453.12 2C1466.11 2 1478.9 3.51649 1491.51 6.54946C1504.12 9.39286 1515.22 13.658 1524.81 19.3448L1507.6 61.1429C1488.78 50.9066 1470.53 45.7885 1452.84 45.7885C1441.74 45.7885 1433.65 47.4945 1428.57 50.9066C1423.48 54.1291 1420.94 58.3942 1420.94 63.7019C1420.94 69.0096 1423.96 72.9904 1429.98 75.6442C1436 78.2981 1445.69 81.0467 1459.05 83.8901C1474.1 87.1126 1486.52 90.6195 1496.31 94.4107C1506.28 98.0124 1514.84 103.889 1521.99 112.04C1529.33 120.001 1533 130.901 1533 144.739C1533 156.681 1529.71 167.486 1523.12 177.154C1516.54 186.821 1506.66 194.593 1493.48 200.47C1480.31 206.157 1464.32 209 1445.5 209Z"/>
</mask>
<path d="M88.3702 152.132H57.8866V205.019H2V5.98077H92.3218C110.198 5.98077 125.722 9.01374 138.894 15.0797C152.066 20.956 162.227 29.4863 169.378 40.6703C176.528 51.6648 180.103 64.6497 180.103 79.625C180.103 94.0316 176.716 106.637 169.942 117.442C163.356 128.058 153.853 136.398 141.434 142.464L184.055 205.019H124.217L88.3702 152.132ZM123.652 79.625C123.652 70.3365 120.735 63.1332 114.902 58.0151C109.069 52.897 100.413 50.3379 88.9347 50.3379H57.8866V108.628H88.9347C100.413 108.628 109.069 106.163 114.902 101.235C120.735 96.1168 123.652 88.9135 123.652 79.625ZM343.313 166.349H259.765L244.241 205.019H187.226L274.443 5.98077H329.483L416.982 205.019H358.837L343.313 166.349ZM326.942 124.835L301.539 61.1429L276.136 124.835H326.942ZM464.958 50.6223H404.274V5.98077H581.248V50.6223H520.845V205.019H464.958V50.6223ZM760.696 161.515V205.019H602.069V5.98077H757.027V49.4849H657.391V83.0371H745.172V125.119H657.391V161.515H760.696ZM915.906 50.6223H855.221V5.98077H1032.2V50.6223H971.792V205.019H915.906V50.6223ZM1241 5.98077V205.019H1185.11V127.394H1108.9V205.019H1053.02V5.98077H1108.9V80.7624H1185.11V5.98077H1241ZM1280.42 5.98077H1336.31V205.019H1280.42V5.98077ZM1445.5 209C1429.51 209 1413.98 207.01 1398.93 203.029C1383.88 199.048 1371.64 193.74 1362.24 187.106L1380.58 145.592C1389.43 151.468 1399.68 156.207 1411.35 159.809C1423.01 163.411 1434.49 165.212 1445.78 165.212C1467.23 165.212 1477.96 159.809 1477.96 149.004C1477.96 143.317 1474.86 139.147 1468.65 136.493C1462.62 133.65 1452.84 130.712 1439.29 127.679C1424.43 124.456 1412.01 121.044 1402.03 117.442C1392.06 113.651 1383.5 107.68 1376.35 99.5288C1369.2 91.3777 1365.62 80.3832 1365.62 66.5453C1365.62 54.4135 1368.92 43.5137 1375.5 33.8461C1382.09 23.989 1391.87 16.217 1404.86 10.5302C1418.03 4.84341 1434.12 2 1453.12 2C1466.11 2 1478.9 3.51649 1491.51 6.54946C1504.12 9.39286 1515.22 13.658 1524.81 19.3448L1507.6 61.1429C1488.78 50.9066 1470.53 45.7885 1452.84 45.7885C1441.74 45.7885 1433.65 47.4945 1428.57 50.9066C1423.48 54.1291 1420.94 58.3942 1420.94 63.7019C1420.94 69.0096 1423.96 72.9904 1429.98 75.6442C1436 78.2981 1445.69 81.0467 1459.05 83.8901C1474.1 87.1126 1486.52 90.6195 1496.31 94.4107C1506.28 98.0124 1514.84 103.889 1521.99 112.04C1529.33 120.001 1533 130.901 1533 144.739C1533 156.681 1529.71 167.486 1523.12 177.154C1516.54 186.821 1506.66 194.593 1493.48 200.47C1480.31 206.157 1464.32 209 1445.5 209Z" stroke="#86EAD7" stroke-width="4" mask="url(#path-1-outside-1_16_3794)"/>
</svg>
