<svg width="19" height="21" viewBox="0 0 19 21" fill="none" xmlns="http://www.w3.org/2000/svg">
<path d="M16.4902 13.4005L16.4902 13.4005L16.4964 13.4062C16.955 13.824 17.3463 14.1823 17.6327 14.5443C17.9182 14.9054 18 15.1499 18 15.3218C18 15.4309 17.9683 15.4688 17.9311 15.4991C17.8737 15.546 17.7099 15.6351 17.3666 15.6351H1.63335C1.29013 15.6351 1.12627 15.546 1.06885 15.4991C1.03169 15.4688 1 15.4309 1 15.3218C1 15.1499 1.0818 14.9054 1.36734 14.5443C1.65366 14.1823 2.04496 13.824 2.50359 13.4062L2.50932 13.401L2.51496 13.3957C3.06962 12.8744 3.3431 12.1485 3.50247 11.5122C3.66613 10.8587 3.74546 10.1417 3.80887 9.52319L3.81189 9.49373L3.81316 9.46415C3.95519 6.1603 4.9495 4.307 6.88793 3.64083L7.3551 3.48028L7.51149 3.01169C7.81126 2.11345 8.54669 1.5 9.49508 1.5C10.456 1.5 11.1867 2.11572 11.4764 3.00489L11.6311 3.47953L12.1034 3.64122C14.0498 4.30756 15.0353 6.15867 15.187 9.46701L15.1883 9.49516L15.1911 9.52319C15.2542 10.1381 15.331 10.8566 15.4934 11.5102C15.6517 12.1481 15.926 12.8777 16.4902 13.4005ZM11.0581 18.9484C10.6904 19.2741 10.1613 19.5 9.49508 19.5C8.8345 19.5 8.30752 19.2743 7.94076 18.9484H11.0581Z" stroke="#828282" stroke-width="2"/>
</svg>
