<svg width="143" height="49" viewBox="0 0 143 49" fill="none" xmlns="http://www.w3.org/2000/svg">
<path d="M135.912 0.816772H6.25451C2.80024 0.816772 0 3.60586 0 7.04637V42.5254C0 45.9659 2.80024 48.755 6.25451 48.755H135.912C139.366 48.755 142.166 45.9659 142.166 42.5254V7.04637C142.166 3.60586 139.366 0.816772 135.912 0.816772Z" fill="#040707"/>
<path d="M44.3719 16.0051C43.7961 15.6887 43.3493 15.2536 43.0217 14.6949C42.6941 14.1363 42.5303 13.5133 42.5303 12.8211C42.5303 12.129 42.6941 11.506 43.0217 10.9473C43.3493 10.3886 43.801 9.95354 44.3768 9.63711C44.9527 9.32069 45.6029 9.16248 46.3177 9.16248C46.8538 9.16248 47.3502 9.25147 47.8019 9.42946C48.2536 9.60745 48.6408 9.86949 48.9585 10.2106L48.4721 10.6952C47.9062 10.1266 47.1963 9.84477 46.3376 9.84477C45.7667 9.84477 45.2455 9.97331 44.7789 10.2354C44.3123 10.4974 43.945 10.8534 43.6819 11.3033C43.4188 11.7532 43.2848 12.2624 43.2848 12.8211C43.2848 13.3798 43.4188 13.8891 43.6819 14.3439C43.945 14.7938 44.3123 15.1548 44.7789 15.4118C45.2455 15.6689 45.7667 15.8024 46.3376 15.8024C47.2063 15.8024 47.9161 15.5157 48.4721 14.9372L48.9585 15.4217C48.6408 15.7629 48.2536 16.0249 47.797 16.2079C47.3403 16.3908 46.8439 16.4798 46.3078 16.4798C45.593 16.4798 44.9477 16.3216 44.3719 16.0051Z" fill="white"/>
<path d="M52.3291 14.0127H51.0931V16.4155H50.3584V11.0116H51.0931V13.3848H52.339L54.2501 11.0116H55.0443L52.9098 13.632L55.1982 16.4155H54.3295L52.3291 14.0127Z" fill="white"/>
<path d="M59.7447 11.5009C60.122 11.8519 60.3106 12.376 60.3106 13.0682V16.4153H59.6107V15.5748C59.4469 15.8567 59.2037 16.0742 58.886 16.2324C58.5683 16.3906 58.186 16.4697 57.7443 16.4697C57.1387 16.4697 56.6572 16.3263 56.2998 16.0396C55.9424 15.7528 55.7637 15.3721 55.7637 14.8975C55.7637 14.4229 55.9275 14.0669 56.265 13.79C56.5976 13.5082 57.1287 13.3698 57.8584 13.3698H59.5809V13.0435C59.5809 12.5787 59.4518 12.2227 59.1888 11.9805C58.9257 11.7382 58.5435 11.6146 58.0421 11.6146C57.6996 11.6146 57.367 11.669 57.0543 11.7827C56.7366 11.8964 56.4636 12.0497 56.2402 12.2524L55.9126 11.7085C56.1856 11.4762 56.5182 11.2932 56.9004 11.1696C57.2876 11.0411 57.6897 10.9768 58.1166 10.9768C58.8264 10.9768 59.3675 11.1548 59.7447 11.5058V11.5009ZM58.9207 15.6095C59.2185 15.4216 59.437 15.1496 59.5809 14.7937V13.9087H57.8783C56.95 13.9087 56.4834 14.23 56.4834 14.8728C56.4834 15.1892 56.6026 15.4364 56.8458 15.6193C57.0841 15.8023 57.4216 15.8913 57.8584 15.8913C58.2953 15.8913 58.6229 15.7973 58.9207 15.6095Z" fill="white"/>
<path d="M66.3571 11.0165V16.4204H65.6275V14.1708C65.002 14.4428 64.3865 14.5812 63.7809 14.5812C63.1256 14.5812 62.6193 14.4329 62.257 14.1362C61.8896 13.8396 61.7109 13.3897 61.7109 12.7964V11.0214H62.4406V12.7568C62.4406 13.1622 62.5697 13.4688 62.8328 13.6764C63.0959 13.8841 63.4533 13.9879 63.9149 13.9879C64.4212 13.9879 64.9921 13.8544 65.6275 13.5874V11.0214H66.3571V11.0165Z" fill="white"/>
<path d="M71.9361 11.5009C72.3134 11.8519 72.502 12.376 72.502 13.0682V16.4153H71.8021V15.5748C71.6383 15.8567 71.3951 16.0742 71.0774 16.2324C70.7597 16.3906 70.3775 16.4697 69.9357 16.4697C69.3301 16.4697 68.8486 16.3263 68.4912 16.0396C68.1338 15.7528 67.9551 15.3721 67.9551 14.8975C67.9551 14.4229 68.1189 14.0669 68.4564 13.79C68.789 13.5082 69.3202 13.3698 70.0498 13.3698H71.7723V13.0435C71.7723 12.5787 71.6433 12.2227 71.3802 11.9805C71.1171 11.7382 70.7349 11.6146 70.2335 11.6146C69.891 11.6146 69.5584 11.669 69.2457 11.7827C68.928 11.8964 68.655 12.0497 68.4316 12.2524L68.104 11.7085C68.377 11.4762 68.7096 11.2932 69.0918 11.1696C69.479 11.0411 69.8811 10.9768 70.308 10.9768C71.0178 10.9768 71.5589 11.1548 71.9361 11.5058V11.5009ZM71.1121 15.6095C71.41 15.4216 71.6284 15.1496 71.7723 14.7937V13.9087H70.0697C69.1414 13.9087 68.6748 14.23 68.6748 14.8728C68.6748 15.1892 68.794 15.4364 69.0372 15.6193C69.2755 15.8023 69.613 15.8913 70.0498 15.8913C70.4867 15.8913 70.8143 15.7973 71.1121 15.6095Z" fill="white"/>
<path d="M78.2704 11.6642H76.2153V16.4204H75.4856V11.6642H73.4355V11.0165H78.2753V11.6642H78.2704Z" fill="white"/>
<path d="M83.2148 13.3798C83.5672 13.6764 83.7459 14.0967 83.7459 14.6554C83.7459 15.214 83.5573 15.6738 83.1751 15.9804C82.7928 16.2869 82.2419 16.4402 81.5221 16.4303L79.333 16.4204V11.0165H80.0677V12.9051L81.666 12.9249C82.3461 12.9299 82.8623 13.0831 83.2197 13.3748L83.2148 13.3798ZM82.6141 15.575C82.8723 15.3673 83.0013 15.0608 83.0013 14.6554C83.0013 14.2499 82.8723 13.9632 82.6191 13.7704C82.3659 13.5775 81.9837 13.4787 81.4724 13.4737L80.0577 13.4539V15.8568L81.4724 15.8766C81.9738 15.8815 82.356 15.7826 82.6141 15.575Z" fill="white"/>
<path d="M87.8408 11.0165H88.5755V15.3129L92.1942 11.0165H92.8444V16.4204H92.1098V12.124L88.501 16.4204H87.8408V11.0165Z" fill="white"/>
<path d="M98.3588 14.0671C98.5673 14.2847 98.6715 14.5517 98.6715 14.8681C98.6715 15.1845 98.5623 15.4614 98.3439 15.7086C98.1255 15.9558 97.8326 16.1437 97.4603 16.2772C97.088 16.4106 96.681 16.4799 96.2343 16.4799C95.8421 16.4799 95.4549 16.4255 95.0777 16.3118C94.7004 16.198 94.3678 16.0349 94.0898 15.8124L94.338 15.2686C94.5862 15.4515 94.8741 15.5949 95.2067 15.6987C95.5393 15.8025 95.8719 15.852 96.2094 15.852C96.7108 15.852 97.1228 15.758 97.4405 15.5701C97.7582 15.3823 97.922 15.1252 97.922 14.8038C97.922 14.517 97.7929 14.2896 97.5298 14.1314C97.2667 13.9732 96.9093 13.8891 96.4576 13.8891H95.5294V13.3552H96.4179C96.825 13.3552 97.1526 13.2761 97.4008 13.1228C97.649 12.9695 97.7731 12.7619 97.7731 12.4998C97.7731 12.2131 97.6341 11.9857 97.3561 11.8225C97.0781 11.6593 96.7157 11.5753 96.269 11.5753C95.6833 11.5753 95.1074 11.7236 94.5366 12.0153L94.3281 11.4517C94.9734 11.1155 95.6435 10.9474 96.3385 10.9474C96.7505 10.9474 97.1228 11.0067 97.4554 11.1254C97.7879 11.244 98.051 11.4171 98.2397 11.6346C98.4283 11.8522 98.5226 12.1093 98.5226 12.396C98.5226 12.6828 98.4283 12.9151 98.2397 13.1277C98.051 13.3403 97.7929 13.4986 97.4703 13.6024C97.8574 13.6914 98.1503 13.8446 98.3638 14.0671H98.3588Z" fill="white"/>
<path d="M10.3253 26.4574C10.3054 21.6023 11.9435 18.9226 14.9864 17.7706C16.3515 17.2515 17.7413 17.1921 19.0171 17.8546C20.7098 18.7347 22.2535 18.5221 23.9313 17.8052C26.3587 16.7719 28.5974 17.3306 30.6028 18.9918C31.3077 19.5752 31.4665 19.946 30.6276 20.6728C27.5649 23.3179 27.967 27.9456 31.4169 30.0617C32.1069 30.4819 32.0969 30.7885 31.8388 31.4164C31.0893 33.2556 30.032 34.9069 28.6818 36.3506C27.55 37.557 26.1651 37.9822 24.5717 37.2257C22.6209 36.2962 20.6899 36.3506 18.749 37.2801C17.3144 37.9673 16.0487 37.6213 14.9764 36.5088C11.9981 33.4237 10.4692 29.7354 10.3203 26.4525L10.3253 26.4574Z" fill="#FCFCFC"/>
<path d="M69.2316 36.3404C69.2316 37.9621 69.1819 39.3316 69.2514 40.6962C69.3011 41.6207 68.7104 41.4674 68.1991 41.4229C67.7076 41.3784 66.968 41.7839 66.968 40.7258C66.968 36.4689 66.9432 32.2071 66.8985 27.9502C66.8936 27.4311 67.0971 27.2383 67.5538 27.347C68.0104 27.4607 68.6955 26.9268 68.9039 27.7623C68.9734 28.0392 68.9486 28.3408 68.9784 28.8352C69.8372 27.8563 70.7704 27.2679 71.9617 27.1295C74.126 26.8724 75.9279 28.2914 76.4937 30.7387C77.1887 33.7398 75.9229 36.5728 73.4856 37.4083C71.9716 37.9275 70.6016 37.6061 69.2316 36.3404ZM69.2316 32.4691H69.2514C69.2514 32.8449 69.2117 33.2206 69.2564 33.5915C69.4053 34.8324 70.269 35.7174 71.4107 35.8311C72.5723 35.9498 73.565 35.2972 74.0366 34.1304C74.2947 33.4926 74.3047 32.8301 74.2947 32.1626C74.2699 30.1899 73.2722 28.8995 71.783 28.8846C70.2094 28.8649 69.2365 30.1355 69.2266 32.217C69.2266 32.301 69.2266 32.3851 69.2266 32.4691H69.2316Z" fill="#F4F4F4"/>
<path d="M57.5915 36.3802C57.5915 37.8881 57.5071 39.228 57.6163 40.553C57.7057 41.6209 57.0703 41.4281 56.4548 41.4429C55.7846 41.4627 55.2982 41.5023 55.3131 40.5036C55.3627 36.3653 55.3131 32.2222 55.2783 28.0839C55.2783 27.5945 55.323 27.2088 55.9187 27.3473C56.3952 27.456 57.1894 26.8776 57.2788 27.9109C57.2986 28.1531 57.3284 28.3905 57.3632 28.7514C58.0085 28.2174 58.49 27.634 59.2147 27.3819C61.647 26.5463 63.9155 27.6884 64.675 30.1555C65.3153 32.232 65.1515 34.2344 63.8311 35.9995C62.337 37.992 59.8253 38.1551 57.5915 36.3802ZM62.6596 32.2864C62.6596 31.525 62.5852 30.7884 62.1633 30.1209C61.3392 28.8157 59.8997 28.4992 58.7034 29.3842C57.1547 30.5214 57.0802 34.185 58.5892 35.3666C59.1899 35.8363 59.8799 35.9401 60.6145 35.7621C61.9548 35.4408 62.6696 34.2295 62.6596 32.2914V32.2864Z" fill="#F4F4F4"/>
<path d="M41.5586 37.2848C42.5117 34.3332 43.4498 31.4013 44.4029 28.4695C44.8646 27.0406 45.3907 25.6315 45.7878 24.1829C45.9963 23.4166 46.4679 23.2781 47.0785 23.4116C47.7535 23.5649 48.6719 22.8678 49.059 24.1038C50.3695 28.2816 51.7396 32.4445 53.1146 36.6026C53.3181 37.2206 53.2188 37.3541 52.5636 37.4035C51.4715 37.4876 50.8758 37.2354 50.5135 36.0488C49.6448 33.2208 49.5554 33.3197 46.5721 33.2109C45.346 33.1664 44.7951 33.5471 44.671 34.7139C44.6362 35.0402 44.4724 35.3517 44.3682 35.6681C43.9545 36.9041 43.018 37.4414 41.5586 37.2799V37.2848ZM47.3465 25.4338C47.0338 26.5709 46.8054 27.4856 46.5225 28.3854C45.7945 30.6927 46.6946 31.7309 49.2229 31.5002C48.6173 29.5473 48.0166 27.6043 47.3415 25.4338H47.3465Z" fill="#F4F4F4"/>
<path d="M86.1144 23.2138C86.7349 23.2979 87.3554 23.3968 87.9808 23.4611C89.1474 23.5847 89.1672 24.1681 88.7502 25.0778C88.5467 25.5277 88.4077 25.6513 87.9411 25.4535C87.2412 25.1618 86.5016 25.0135 85.7322 25.0679C84.7642 25.1421 83.8707 25.3645 83.5779 26.4325C83.2751 27.5548 83.8757 28.2717 84.8188 28.7513C85.7521 29.221 86.7299 29.6066 87.6383 30.1109C89.0977 30.9168 89.8026 32.2023 89.6239 33.8585C89.4452 35.5445 88.507 36.6569 86.859 37.2205C85.1465 37.804 83.4935 37.6655 81.8008 37.1464C80.8328 36.8497 81.0413 36.3207 81.225 35.6137C81.4632 34.6892 81.9299 35.0649 82.4163 35.2874C83.4488 35.762 84.5409 35.7769 85.628 35.6187C86.4817 35.495 87.1171 35.0105 87.3107 34.1453C87.4993 33.3196 87.2958 32.578 86.581 32.0243C85.8762 31.4755 85.0323 31.2085 84.2281 30.8673C81.5675 29.7351 80.4854 27.5647 81.6171 25.4239C82.5553 23.6489 84.2232 23.204 86.1094 23.2089L86.1144 23.2138Z" fill="#F4F4F4"/>
<path d="M108.308 32.2963C108.293 35.4358 106.178 37.6459 103.205 37.6261C100.361 37.6063 98.3055 35.3864 98.3353 32.3606C98.37 29.2705 100.43 27.1347 103.389 27.1198C106.312 27.105 108.318 29.2161 108.308 32.2963ZM105.905 32.6127C105.856 31.8464 105.885 31.174 105.617 30.5412C105.205 29.5672 104.63 28.8404 103.438 28.786C102.192 28.7316 101.463 29.3892 101.041 30.4225C100.569 31.5745 100.559 32.7957 100.936 33.9674C101.299 35.1095 101.994 35.955 103.359 35.9253C104.729 35.8956 105.324 34.976 105.707 33.8587C105.851 33.4335 105.856 32.9588 105.91 32.6127H105.905Z" fill="#F4F4F4"/>
<path d="M122.206 32.8845C121.407 32.8845 120.603 32.9439 119.809 32.8697C118.861 32.7807 118.717 33.1367 119.009 33.9426C119.451 35.1489 120.355 35.7076 121.576 35.8411C122.38 35.9301 123.179 35.8213 123.954 35.6186C124.48 35.4802 124.817 35.4505 124.926 36.1081C125.016 36.647 125.105 37.0228 124.361 37.2106C123.328 37.4677 122.301 37.6803 121.248 37.5814C119.322 37.3936 117.783 36.5976 117.069 34.6743C116.245 32.4544 116.528 30.363 118.071 28.5634C119.312 27.1197 120.97 26.8527 122.787 27.3125C125.065 27.8959 125.85 30.6003 125.607 32.4643C125.542 32.9735 125.185 32.8845 124.857 32.8895C123.973 32.8895 123.09 32.8895 122.206 32.8895V32.8845ZM121.164 31.3123C121.417 31.3123 121.68 31.3617 121.918 31.3024C122.435 31.1739 123.273 31.688 123.432 30.9613C123.616 30.1109 123.125 29.3297 122.315 28.8897C121.283 28.3359 119.977 28.7265 119.367 29.7697C119.124 30.185 118.707 30.6696 118.99 31.1442C119.208 31.515 119.759 31.2678 120.161 31.3024C120.494 31.3321 120.836 31.3073 121.169 31.3073L121.164 31.3123Z" fill="#F4F4F4"/>
<path d="M92.4232 32.1875C92.4232 31.4359 92.3885 30.6844 92.4331 29.9329C92.4728 29.2803 92.3438 28.8897 91.5694 28.9837C90.8248 29.0727 90.9688 28.509 90.934 28.0641C90.8943 27.5499 91.0333 27.2384 91.6141 27.3373C92.458 27.4806 92.4431 26.9665 92.4331 26.3732C92.4232 25.6365 93.7138 24.6773 94.4038 24.885C94.8853 25.0284 94.6768 25.4634 94.6371 25.7255C94.4584 26.9665 94.8208 27.6043 96.1958 27.3422C96.7716 27.2334 97.1191 27.3669 97.1091 28.1036C97.0992 28.8156 96.8857 29.132 96.1709 29.0034C94.8903 28.7612 94.5031 29.2803 94.6272 30.5361C94.7463 31.7326 94.652 32.9538 94.6669 34.1651C94.6768 35.144 95.059 35.7917 96.1709 35.6928C96.6425 35.6533 97.0098 35.6731 96.9552 36.301C96.9106 36.8053 97.1538 37.3491 96.3248 37.5469C94.2747 38.0364 92.6069 36.919 92.453 34.8177C92.3885 33.9476 92.4431 33.0675 92.4431 32.1875H92.4182H92.4232Z" fill="#EFEFEF"/>
<path d="M112.244 28.9986C112.999 27.9307 113.674 27.2731 114.706 27.1397C115.148 27.0853 115.664 27.0556 115.565 27.6786C115.476 28.2175 116.101 29.0728 115.014 29.2607C113.143 29.5821 112.582 30.1556 112.512 32.0492C112.458 33.5522 112.448 35.0651 112.512 36.5681C112.552 37.5371 111.946 37.3789 111.366 37.3888C110.76 37.3987 110.244 37.4877 110.259 36.5384C110.303 33.6956 110.259 30.8477 110.214 28.0049C110.209 27.5352 110.303 27.2286 110.81 27.3473C111.266 27.4511 111.951 26.9221 112.15 27.7725C112.214 28.0444 112.2 28.3361 112.244 28.9986Z" fill="#F4F4F4"/>
<path d="M26.5469 11.7187C26.4426 14.25 24.5464 16.4403 22.1538 16.9743C21.2752 17.172 21.1511 16.8358 21.2008 16.0843C21.3596 13.8595 23.4445 11.4764 25.6484 11.0265C26.3334 10.8831 26.7454 10.977 26.5469 11.7187Z" fill="#F4F4F4"/>
</svg>
