<svg width="143" height="49" viewBox="0 0 143 49" fill="none" xmlns="http://www.w3.org/2000/svg">
<path d="M136.078 0.816711H6.42053C2.96626 0.816711 0.166016 3.6058 0.166016 7.04631V42.5253C0.166016 45.9658 2.96626 48.7549 6.42053 48.7549H136.078C139.532 48.7549 142.332 45.9658 142.332 42.5253V7.04631C142.332 3.6058 139.532 0.816711 136.078 0.816711Z" fill="#040707"/>
<path d="M44.5389 16.0051C43.9631 15.6887 43.5163 15.2536 43.1887 14.695C42.8611 14.1363 42.6973 13.5133 42.6973 12.8211C42.6973 12.129 42.8611 11.506 43.1887 10.9473C43.5163 10.3886 43.968 9.95354 44.5438 9.63711C45.1196 9.32069 45.7699 9.16248 46.4847 9.16248C47.0208 9.16248 47.5172 9.25147 47.9689 9.42946C48.4206 9.60745 48.8078 9.86949 49.1255 10.2106L48.6391 10.6952C48.0732 10.1266 47.3633 9.84477 46.5046 9.84477C45.9337 9.84477 45.4125 9.97332 44.9459 10.2354C44.4793 10.4974 44.112 10.8534 43.8489 11.3033C43.5858 11.7532 43.4518 12.2624 43.4518 12.8211C43.4518 13.3798 43.5858 13.8891 43.8489 14.3439C44.112 14.7938 44.4793 15.1548 44.9459 15.4118C45.4125 15.6689 45.9337 15.8024 46.5046 15.8024C47.3733 15.8024 48.0831 15.5157 48.6391 14.9372L49.1255 15.4217C48.8078 15.7629 48.4206 16.0249 47.964 16.2079C47.5073 16.3908 47.0109 16.4798 46.4748 16.4798C45.76 16.4798 45.1147 16.3216 44.5389 16.0051Z" fill="white"/>
<path d="M52.5 14.0127H51.264V16.4156H50.5293V11.0117H51.264V13.3848H52.5099L54.421 11.0117H55.2152L53.0807 13.632L55.3691 16.4156H54.5004L52.5 14.0127Z" fill="white"/>
<path d="M59.9166 11.501C60.2938 11.852 60.4825 12.3761 60.4825 13.0683V16.4155H59.7826V15.575C59.6188 15.8568 59.3755 16.0743 59.0578 16.2325C58.7401 16.3907 58.3579 16.4698 57.9161 16.4698C57.3105 16.4698 56.829 16.3265 56.4716 16.0397C56.1142 15.7529 55.9355 15.3723 55.9355 14.8976C55.9355 14.423 56.0994 14.067 56.4369 13.7901C56.7695 13.5083 57.3006 13.3699 58.0303 13.3699H59.7528V13.0436C59.7528 12.5788 59.6237 12.2228 59.3606 11.9806C59.0975 11.7383 58.7153 11.6147 58.214 11.6147C57.8715 11.6147 57.5389 11.6691 57.2262 11.7828C56.9085 11.8965 56.6355 12.0498 56.4121 12.2525L56.0845 11.7087C56.3575 11.4763 56.6901 11.2934 57.0723 11.1697C57.4595 11.0412 57.8615 10.9769 58.2884 10.9769C58.9983 10.9769 59.5393 11.1549 59.9166 11.5059V11.501ZM59.0926 15.6096C59.3904 15.4217 59.6088 15.1498 59.7528 14.7938V13.9088H58.0502C57.1219 13.9088 56.6553 14.2302 56.6553 14.8729C56.6553 15.1893 56.7744 15.4365 57.0177 15.6195C57.2559 15.8024 57.5935 15.8914 58.0303 15.8914C58.4671 15.8914 58.7948 15.7974 59.0926 15.6096Z" fill="white"/>
<path d="M66.5232 11.0117V16.4156H65.7935V14.166C65.168 14.4379 64.5525 14.5764 63.9469 14.5764C63.2917 14.5764 62.7853 14.428 62.423 14.1314C62.0556 13.8348 61.877 13.3848 61.877 12.7915V11.0166H62.6066V12.752C62.6066 13.1574 62.7357 13.4639 62.9988 13.6716C63.2619 13.8793 63.6193 13.9831 64.0809 13.9831C64.5872 13.9831 65.1581 13.8496 65.7935 13.5826V11.0166H66.5232V11.0117Z" fill="white"/>
<path d="M72.108 11.501C72.4853 11.852 72.6739 12.3761 72.6739 13.0683V16.4155H71.974V15.575C71.8102 15.8568 71.5669 16.0743 71.2492 16.2325C70.9316 16.3907 70.5493 16.4698 70.1076 16.4698C69.502 16.4698 69.0205 16.3265 68.6631 16.0397C68.3057 15.7529 68.127 15.3723 68.127 14.8976C68.127 14.423 68.2908 14.067 68.6283 13.7901C68.9609 13.5083 69.492 13.3699 70.2217 13.3699H71.9442V13.0436C71.9442 12.5788 71.8151 12.2228 71.552 11.9806C71.289 11.7383 70.9067 11.6147 70.4054 11.6147C70.0629 11.6147 69.7303 11.6691 69.4176 11.7828C69.0999 11.8965 68.8269 12.0498 68.6035 12.2525L68.2759 11.7087C68.5489 11.4763 68.8815 11.2934 69.2637 11.1697C69.6509 11.0412 70.0529 10.9769 70.4798 10.9769C71.1897 10.9769 71.7307 11.1549 72.108 11.5059V11.501ZM71.284 15.6096C71.5818 15.4217 71.8002 15.1498 71.9442 14.7938V13.9088H70.2416C69.3133 13.9088 68.8467 14.2302 68.8467 14.8729C68.8467 15.1893 68.9658 15.4365 69.2091 15.6195C69.4473 15.8024 69.7849 15.8914 70.2217 15.8914C70.6585 15.8914 70.9862 15.7974 71.284 15.6096Z" fill="white"/>
<path d="M78.4423 11.6593H76.3872V16.4156H75.6575V11.6593H73.6074V11.0117H78.4472V11.6593H78.4423Z" fill="white"/>
<path d="M83.3857 13.3749C83.7381 13.6716 83.9168 14.0918 83.9168 14.6505C83.9168 15.2092 83.7282 15.669 83.346 15.9756C82.9637 16.2821 82.4128 16.4354 81.693 16.4255L79.5039 16.4156V11.0117H80.2386V12.9003L81.8369 12.9201C82.517 12.925 83.0332 13.0783 83.3906 13.37L83.3857 13.3749ZM82.785 15.5701C83.0432 15.3625 83.1722 15.056 83.1722 14.6505C83.1722 14.2451 83.0432 13.9584 82.79 13.7655C82.5368 13.5727 82.1546 13.4738 81.6433 13.4689L80.2286 13.4491V15.852L81.6433 15.8717C82.1447 15.8767 82.5269 15.7778 82.785 15.5701Z" fill="white"/>
<path d="M88.0137 11.0117H88.7483V15.3081L92.367 11.0117H93.0173V16.4156H92.2826V12.1191L88.6739 16.4156H88.0137V11.0117Z" fill="white"/>
<path d="M98.5268 14.0623C98.7353 14.2798 98.8395 14.5468 98.8395 14.8633C98.8395 15.1797 98.7303 15.4566 98.5119 15.7038C98.2935 15.951 98.0006 16.1388 97.6283 16.2723C97.256 16.4058 96.849 16.475 96.4022 16.475C96.0101 16.475 95.6229 16.4207 95.2456 16.3069C94.8684 16.1932 94.5358 16.0301 94.2578 15.8076L94.506 15.2637C94.7542 15.4467 95.0421 15.59 95.3747 15.6939C95.7073 15.7977 96.0399 15.8471 96.3774 15.8471C96.8788 15.8471 97.2908 15.7532 97.6084 15.5653C97.9261 15.3774 98.0899 15.1204 98.0899 14.799C98.0899 14.5122 97.9609 14.2848 97.6978 14.1266C97.4347 13.9684 97.0773 13.8843 96.6256 13.8843H95.6973V13.3504H96.5859C96.9929 13.3504 97.3205 13.2712 97.5687 13.118C97.8169 12.9647 97.941 12.7571 97.941 12.495C97.941 12.2083 97.802 11.9808 97.5241 11.8177C97.2461 11.6545 96.8837 11.5705 96.437 11.5705C95.8512 11.5705 95.2754 11.7188 94.7046 12.0105L94.4961 11.4469C95.1414 11.1107 95.8115 10.9426 96.5065 10.9426C96.9185 10.9426 97.2908 11.0019 97.6233 11.1206C97.9559 11.2392 98.219 11.4123 98.4076 11.6298C98.5963 11.8473 98.6906 12.1044 98.6906 12.3912C98.6906 12.6779 98.5963 12.9103 98.4076 13.1229C98.219 13.3355 97.9609 13.4937 97.6382 13.5976C98.0254 13.6866 98.3183 13.8398 98.5317 14.0623H98.5268Z" fill="white"/>
<path d="M9.8215 38.1298C9.22087 37.7689 9.21094 37.1459 9.21094 36.5773C9.21094 29.9522 9.23576 23.3221 9.25561 16.697C9.97041 16.6327 10.4023 17.0777 10.854 17.5326C13.7479 20.4298 16.6568 23.3122 19.5607 26.1996C19.9131 26.5506 20.2159 26.966 20.7272 27.1192C17.0936 30.7878 13.4551 34.4613 9.8215 38.1298Z" fill="#01D3FD"/>
<path d="M52.2886 28.2811C52.8793 28.2811 53.4651 28.2811 54.0558 28.2811C55.54 28.2811 55.674 28.4294 55.5449 29.9472C55.2372 33.5169 52.8793 35.8208 49.4493 35.9098C45.6866 36.0038 42.4899 33.5367 42.0134 30.1203C41.5964 27.1291 42.6686 24.7262 45.225 23.1342C47.7169 21.5818 50.3229 21.562 52.8396 23.1787C53.202 23.4111 54.0707 23.6089 53.4254 24.3406C53.0084 24.8152 52.6957 25.5173 51.7277 24.8548C49.7868 23.5347 47.4786 23.7572 45.781 25.2256C44.128 26.6495 43.6167 29.0375 44.535 31.0646C45.4285 33.0373 47.429 34.1695 49.6826 33.9075C51.2909 33.7196 52.5319 32.9631 53.207 31.4255C53.5346 30.6839 53.5097 30.2389 52.4971 30.3032C51.6185 30.3625 50.725 30.2686 49.8464 30.3279C49.0522 30.3774 48.9678 29.972 48.9678 29.3391C48.9678 28.6717 49.0075 28.1921 49.896 28.2662C50.6903 28.3354 51.4944 28.2811 52.2936 28.2811H52.2886Z" fill="#EFEFEF"/>
<path d="M9.71289 12.1782C10.3433 11.3526 11.1475 11.5503 11.8523 11.9459C17.0098 14.8481 22.1475 17.7898 27.295 20.7167C25.92 22.1604 24.545 23.5992 23.1651 25.0428L22.7878 25.1318C18.4295 20.8156 14.0712 16.4945 9.71289 12.1782Z" fill="#04EB76"/>
<path d="M22.7929 25.1317C22.917 25.102 23.0411 25.0723 23.1702 25.0427C23.2744 25.5717 23.7262 25.8387 24.0538 26.1996C25.0813 27.3268 26.3123 28.2563 27.1959 29.5121C25.2898 30.9459 23.1106 31.9249 21.0605 33.1164C18.1318 34.8172 15.1684 36.4586 12.2099 38.11C11.4355 38.5451 10.6215 38.9703 9.82227 38.1298C13.4558 34.4612 17.0944 30.7877 20.728 27.1192C21.4179 26.4567 22.103 25.7942 22.7929 25.1317Z" fill="#EF3549"/>
<path d="M82.374 35.193C80.3139 36.256 78.6163 36.1027 77.1817 34.7826C75.8415 33.5516 75.3699 31.5245 76.0301 29.8237C76.7052 28.0784 78.3185 26.9413 80.0856 26.9561C80.2544 26.9561 80.4331 26.9363 80.587 26.9808C81.5351 27.2527 82.4286 27.6681 83.4809 27.233C84.0915 26.9808 84.4389 27.3417 84.4241 28.0883C84.3794 30.5999 84.4588 33.1115 84.3794 35.6182C84.3099 37.8332 83.2675 39.2274 81.5053 39.7367C79.6488 40.2756 77.7277 39.6971 76.6506 38.2188C76.4272 37.9172 75.7869 37.4574 76.457 37.1163C76.9286 36.874 77.5193 36.0829 78.1745 37.0124C78.8893 38.021 79.9019 38.3523 81.0585 37.8876C82.2102 37.4278 82.4832 36.4538 82.364 35.193H82.374ZM82.5675 31.4948C82.5874 29.9522 81.5698 28.7904 80.2246 28.8052C78.8546 28.82 77.7923 29.972 77.7873 31.4503C77.7873 32.8989 78.8843 34.0806 80.2395 34.0855C81.54 34.0855 82.5527 32.9632 82.5675 31.4948Z" fill="#EFEFEF"/>
<path d="M101.108 29.0178C101.108 27.1341 101.127 25.2504 101.098 23.3666C101.088 22.7239 101.271 22.4668 101.951 22.4866C103.381 22.5261 104.816 22.447 106.24 22.5163C108.593 22.6349 110.251 24.4197 110.216 26.694C110.187 28.8843 108.484 30.5504 106.171 30.6938C105.218 30.7532 103.967 30.2538 103.391 30.9262C102.805 31.6134 103.262 32.8495 103.207 33.8432C103.192 34.1349 103.168 34.4365 103.207 34.7233C103.331 35.5539 102.914 35.6824 102.19 35.6775C101.44 35.6726 101.043 35.5836 101.083 34.6689C101.162 32.7901 101.108 30.9015 101.108 29.0178ZM103.197 26.6298C103.232 29.0178 102.89 28.7706 104.771 28.7805C107.124 28.8002 108.176 28.113 108.186 26.605C108.196 25.0971 107.159 24.395 104.93 24.395C103.778 24.395 103.202 25.1383 103.202 26.6248L103.197 26.6298Z" fill="#EFEFEF"/>
<path d="M22.7922 25.1316C22.1022 25.7942 21.4172 26.4567 20.7272 27.1192C20.2159 26.9659 19.9131 26.5457 19.5607 26.1996C16.6518 23.3171 13.748 20.4298 10.854 17.5325C10.4023 17.0826 9.97043 16.6376 9.25562 16.697C9.32016 15.1791 8.75923 13.6019 9.71727 12.1731C14.0756 16.4893 18.4339 20.8105 22.7922 25.1267V25.1316Z" fill="#01C3F6"/>
<path d="M27.1956 29.5171C26.3121 28.2613 25.0761 27.3318 24.0535 26.2045C23.7259 25.8436 23.2742 25.5766 23.1699 25.0476C24.5449 23.6039 25.9199 22.1652 27.2999 20.7215C29.067 21.7004 30.859 22.6299 32.5914 23.6731C33.9068 24.4642 34.016 25.6953 32.79 26.4666C30.993 27.5938 29.2011 28.7409 27.2056 29.522L27.1956 29.5171Z" fill="#F9C302"/>
<path d="M120.066 30.412C119.539 28.8496 118.065 28.2514 116.948 29.1561C116.253 29.7148 115.792 29.527 115.161 29.2748C114.496 29.0128 114.615 28.6766 114.953 28.2365C115.836 27.0846 117.857 26.5951 119.594 27.134C121.123 27.6037 122.041 28.7804 122.076 30.3823C122.106 31.7617 122.101 33.1411 122.071 34.5205C122.061 34.8963 122.334 35.4797 121.783 35.6033C121.287 35.717 120.557 35.9148 120.239 35.4599C119.887 34.9556 119.748 35.1583 119.42 35.3758C119.112 35.5786 118.75 35.7368 118.388 35.8208C116.526 36.246 114.685 35.1979 114.342 33.5465C114 31.8902 115.176 30.4564 117.177 30.0856C118.105 29.9126 119.008 30.0016 120.066 30.4169V30.412ZM118.502 31.6826C117.221 31.6925 116.313 32.2116 116.353 32.9384C116.402 33.8679 117.117 34.0459 117.881 34.0558C118.83 34.0657 120.09 33.1559 119.996 32.4292C119.877 31.4651 118.973 31.8507 118.497 31.6826H118.502Z" fill="#EFEFEF"/>
<path d="M93.1205 35.9052C90.4301 35.92 88.514 33.9622 88.5984 31.2824C88.6828 28.6225 90.5542 26.8327 93.1205 26.9613C94.6742 27.0354 96.1584 28.227 96.7144 29.7152C96.9626 30.3826 96.5803 30.5112 96.1336 30.6941C94.6543 31.2973 93.19 31.9252 91.7008 32.5036C90.9413 32.7953 91.0754 33.1167 91.5618 33.5419C92.4305 34.2984 93.7906 34.3181 94.7586 33.3689C95.6322 32.5135 96.0889 33.3491 96.5208 33.7149C97.0718 34.1797 96.3669 34.4961 96.0939 34.7631C95.2798 35.564 94.2672 35.9299 93.1205 35.9002V35.9052ZM90.6236 31.2033C91.8051 30.7287 92.7929 30.3332 93.7757 29.9277C93.9941 29.8388 94.3118 29.7893 94.2969 29.4778C94.282 29.1466 93.9644 29.0329 93.7062 28.9142C92.4255 28.3259 91.0307 29.2504 90.6236 31.1984V31.2033Z" fill="#EFEFEF"/>
<path d="M60.7307 35.9052C58.1048 35.9151 56.1341 34.0214 56.1192 31.4653C56.1043 28.9043 58.0651 26.9612 60.6612 26.9563C63.2573 26.9563 65.2379 28.9142 65.2181 31.4604C65.1932 33.977 63.2573 35.8903 60.7307 35.9002V35.9052ZM58.1892 31.4307C58.1892 32.8942 59.2614 34.0561 60.6314 34.0808C62.0461 34.1006 63.1878 32.8794 63.158 31.3813C63.1283 29.9178 62.0213 28.7807 60.6463 28.8054C59.2614 28.8252 58.1941 29.9673 58.1941 31.4357L58.1892 31.4307Z" fill="#EFEFEF"/>
<path d="M70.5148 35.9052C67.8591 35.9151 65.9679 34.061 65.9629 31.4505C65.9579 28.84 67.8541 26.9563 70.485 26.9613C73.0811 26.9613 75.0468 28.929 75.0121 31.4851C74.9773 34.0116 73.0563 35.9002 70.5148 35.9052ZM70.49 28.8005C69.105 28.7856 68.018 29.908 67.9931 31.3764C67.9683 32.8794 69.1001 34.1055 70.4999 34.0808C71.8501 34.061 72.962 32.8596 72.962 31.4258C72.962 29.9722 71.8699 28.8153 70.485 28.8005H70.49Z" fill="#EFEFEF"/>
<path d="M126.777 32.5823C127.387 31.0694 127.983 29.5664 128.598 28.0683C128.896 27.3416 130.207 26.8867 130.872 27.2377C131.234 27.4306 131.021 27.658 130.931 27.8557C129.298 31.6083 127.675 35.3609 126.012 39.0987C125.585 40.0529 124.697 39.5338 124.002 39.5338C123.734 39.5338 123.833 39.2173 123.907 39.0295C124.002 38.7971 124.076 38.5499 124.22 38.3472C125.749 36.1915 125.57 34.0804 124.22 31.8901C123.57 30.8321 123.143 29.6307 122.711 28.454C122.582 28.1029 121.798 27.5047 122.622 27.2872C123.203 27.129 124.161 26.7483 124.582 27.7667C125.124 29.0769 125.655 30.397 126.211 31.7023C126.335 31.9989 126.35 32.3697 126.777 32.5873V32.5823Z" fill="#EFEFEF"/>
<path d="M111.209 29.0475C111.209 27.1688 111.254 25.29 111.189 23.4162C111.159 22.546 111.571 22.4966 112.256 22.4916C112.941 22.4916 113.328 22.5609 113.319 23.4162C113.274 27.2133 113.274 31.0104 113.319 34.8075C113.328 35.7419 112.802 35.643 112.192 35.6628C111.561 35.6826 111.174 35.6084 111.194 34.8075C111.244 32.8891 111.209 30.9708 111.209 29.0475Z" fill="#F4F4F4"/>
<path d="M87.7009 29.1759C87.7009 31.0151 87.6662 32.8494 87.7158 34.6886C87.7357 35.4698 87.4676 35.6972 86.7081 35.6774C86.0281 35.6577 85.631 35.6181 85.6409 34.7479C85.6856 30.9904 85.6806 27.2329 85.6409 23.4753C85.631 22.6991 85.8891 22.4915 86.6486 22.4766C87.4775 22.4618 87.7406 22.7139 87.7158 23.5396C87.6612 25.4184 87.7009 27.2971 87.7009 29.1759Z" fill="#EFEFEF"/>
</svg>
