<svg width="143" height="49" viewBox="0 0 143 49" fill="none" xmlns="http://www.w3.org/2000/svg">
<path d="M136.078 0.816711H6.42053C2.96626 0.816711 0.166016 3.6058 0.166016 7.04631V42.5253C0.166016 45.9658 2.96626 48.7549 6.42053 48.7549H136.078C139.532 48.7549 142.332 45.9658 142.332 42.5253V7.04631C142.332 3.6058 139.532 0.816711 136.078 0.816711Z" fill="#040707"/>
<path d="M44.5428 16.0051C43.967 15.6887 43.5202 15.2536 43.1926 14.6949C42.865 14.1363 42.7012 13.5133 42.7012 12.8211C42.7012 12.129 42.865 11.506 43.1926 10.9473C43.5202 10.3886 43.9719 9.95354 44.5477 9.63711C45.1236 9.32069 45.7738 9.16248 46.4886 9.16248C47.0247 9.16248 47.5211 9.25147 47.9728 9.42945C48.4245 9.60744 48.8117 9.86948 49.1294 10.2106L48.643 10.6952C48.0771 10.1266 47.3672 9.84477 46.5085 9.84477C45.9376 9.84477 45.4164 9.97331 44.9498 10.2353C44.4832 10.4974 44.1159 10.8534 43.8528 11.3033C43.5897 11.7532 43.4557 12.2624 43.4557 12.8211C43.4557 13.3798 43.5897 13.8891 43.8528 14.3439C44.1159 14.7938 44.4832 15.1548 44.9498 15.4118C45.4164 15.6689 45.9376 15.8024 46.5085 15.8024C47.3772 15.8024 48.087 15.5157 48.643 14.9372L49.1294 15.4217C48.8117 15.7629 48.4245 16.0249 47.9679 16.2079C47.5112 16.3908 47.0148 16.4798 46.4787 16.4798C45.7639 16.4798 45.1186 16.3216 44.5428 16.0051Z" fill="white"/>
<path d="M52.5 14.0127H51.264V16.4156H50.5293V11.0117H51.264V13.3848H52.5099L54.421 11.0117H55.2152L53.0807 13.632L55.3691 16.4156H54.5004L52.5 14.0127Z" fill="white"/>
<path d="M59.9166 11.501C60.2938 11.852 60.4825 12.3761 60.4825 13.0683V16.4155H59.7826V15.575C59.6188 15.8568 59.3755 16.0743 59.0578 16.2325C58.7401 16.3907 58.3579 16.4699 57.9161 16.4699C57.3105 16.4699 56.829 16.3265 56.4716 16.0397C56.1142 15.7529 55.9355 15.3723 55.9355 14.8976C55.9355 14.423 56.0994 14.067 56.4369 13.7901C56.7695 13.5083 57.3006 13.3699 58.0303 13.3699H59.7528V13.0436C59.7528 12.5788 59.6237 12.2228 59.3606 11.9806C59.0975 11.7383 58.7153 11.6147 58.214 11.6147C57.8715 11.6147 57.5389 11.6691 57.2262 11.7828C56.9085 11.8965 56.6355 12.0498 56.4121 12.2525L56.0845 11.7087C56.3575 11.4763 56.6901 11.2934 57.0723 11.1697C57.4595 11.0412 57.8615 10.9769 58.2884 10.9769C58.9983 10.9769 59.5393 11.1549 59.9166 11.506V11.501ZM59.0926 15.6096C59.3904 15.4217 59.6088 15.1498 59.7528 14.7938V13.9088H58.0502C57.1219 13.9088 56.6553 14.2302 56.6553 14.8729C56.6553 15.1893 56.7744 15.4365 57.0177 15.6195C57.2559 15.8024 57.5935 15.8914 58.0303 15.8914C58.4671 15.8914 58.7948 15.7974 59.0926 15.6096Z" fill="white"/>
<path d="M66.5271 11.0166V16.4205H65.7974V14.1709C65.1719 14.4429 64.5564 14.5813 63.9508 14.5813C63.2956 14.5813 62.7893 14.433 62.4269 14.1363C62.0596 13.8397 61.8809 13.3898 61.8809 12.7965V11.0215H62.6106V12.7569C62.6106 13.1624 62.7396 13.4689 63.0027 13.6765C63.2658 13.8842 63.6232 13.988 64.0848 13.988C64.5911 13.988 65.162 13.8545 65.7974 13.5875V11.0215H66.5271V11.0166Z" fill="white"/>
<path d="M72.108 11.501C72.4853 11.852 72.6739 12.3761 72.6739 13.0683V16.4155H71.974V15.575C71.8102 15.8568 71.5669 16.0743 71.2492 16.2325C70.9316 16.3907 70.5493 16.4699 70.1075 16.4699C69.5019 16.4699 69.0205 16.3265 68.6631 16.0397C68.3057 15.7529 68.127 15.3723 68.127 14.8976C68.127 14.423 68.2908 14.067 68.6283 13.7901C68.9609 13.5083 69.492 13.3699 70.2217 13.3699H71.9442V13.0436C71.9442 12.5788 71.8151 12.2228 71.552 11.9806C71.289 11.7383 70.9067 11.6147 70.4054 11.6147C70.0629 11.6147 69.7303 11.6691 69.4176 11.7828C69.0999 11.8965 68.8269 12.0498 68.6035 12.2525L68.2759 11.7087C68.5489 11.4763 68.8815 11.2934 69.2637 11.1697C69.6509 11.0412 70.0529 10.9769 70.4798 10.9769C71.1897 10.9769 71.7307 11.1549 72.108 11.506V11.501ZM71.284 15.6096C71.5818 15.4217 71.8002 15.1498 71.9442 14.7938V13.9088H70.2416C69.3133 13.9088 68.8467 14.2302 68.8467 14.8729C68.8467 15.1893 68.9658 15.4365 69.2091 15.6195C69.4473 15.8024 69.7849 15.8914 70.2217 15.8914C70.6585 15.8914 70.9862 15.7974 71.284 15.6096Z" fill="white"/>
<path d="M78.4403 11.6593H76.3853V16.4156H75.6556V11.6593H73.6055V11.0117H78.4453V11.6593H78.4403Z" fill="white"/>
<path d="M83.3857 13.3749C83.7381 13.6716 83.9168 14.0918 83.9168 14.6505C83.9168 15.2092 83.7282 15.669 83.346 15.9756C82.9637 16.2821 82.4128 16.4354 81.693 16.4255L79.5039 16.4156V11.0117H80.2386V12.9003L81.8369 12.9201C82.517 12.925 83.0332 13.0783 83.3906 13.37L83.3857 13.3749ZM82.785 15.5701C83.0432 15.3625 83.1722 15.0559 83.1722 14.6505C83.1722 14.2451 83.0432 13.9584 82.79 13.7655C82.5368 13.5727 82.1546 13.4738 81.6433 13.4689L80.2286 13.4491V15.852L81.6433 15.8717C82.1447 15.8767 82.5269 15.7778 82.785 15.5701Z" fill="white"/>
<path d="M88.0117 11.0166H88.7464V15.313L92.3651 11.0166H93.0153V16.4205H92.2807V12.1241L88.6719 16.4205H88.0117V11.0166Z" fill="white"/>
<path d="M98.5248 14.0673C98.7333 14.2848 98.8375 14.5518 98.8375 14.8682C98.8375 15.1846 98.7283 15.4615 98.5099 15.7087C98.2915 15.9559 97.9986 16.1438 97.6263 16.2773C97.2541 16.4108 96.847 16.48 96.4003 16.48C96.0081 16.48 95.6209 16.4256 95.2437 16.3119C94.8664 16.1982 94.5338 16.035 94.2559 15.8125L94.5041 15.2687C94.7522 15.4516 95.0402 15.595 95.3727 15.6988C95.7053 15.8026 96.0379 15.8521 96.3754 15.8521C96.8768 15.8521 97.2888 15.7581 97.6065 15.5703C97.9242 15.3824 98.088 15.1253 98.088 14.8039C98.088 14.5172 97.9589 14.2897 97.6958 14.1315C97.4328 13.9733 97.0754 13.8893 96.6236 13.8893H95.6954V13.3553H96.5839C96.991 13.3553 97.3186 13.2762 97.5668 13.1229C97.815 12.9697 97.9391 12.762 97.9391 12.5C97.9391 12.2132 97.8001 11.9858 97.5221 11.8226C97.2441 11.6595 96.8818 11.5754 96.435 11.5754C95.8493 11.5754 95.2735 11.7237 94.7026 12.0154L94.4941 11.4518C95.1394 11.1156 95.8096 10.9475 96.5045 10.9475C96.9165 10.9475 97.2888 11.0068 97.6214 11.1255C97.954 11.2442 98.2171 11.4172 98.4057 11.6347C98.5943 11.8523 98.6886 12.1094 98.6886 12.3961C98.6886 12.6829 98.5943 12.9153 98.4057 13.1279C98.2171 13.3405 97.9589 13.4987 97.6363 13.6025C98.0235 13.6915 98.3163 13.8448 98.5298 14.0673H98.5248Z" fill="white"/>
<path d="M20.4134 10.5221C22.4635 10.5221 24.5185 10.5221 26.5686 10.5221C27.1742 10.5221 27.7848 10.527 28.3854 10.5913C29.4675 10.71 30.5248 10.9423 31.4829 11.4862C32.3168 11.9608 32.9522 12.6431 33.3741 13.5133C33.7811 14.3538 33.9797 15.2388 34.0889 16.1584C34.1882 16.989 34.2031 17.8196 34.2031 18.6552C34.2031 22.5808 34.2031 26.5015 34.2031 30.4271C34.2031 31.3566 34.1336 32.2861 33.9549 33.1958C33.7514 34.2341 33.3691 35.1982 32.6593 36.0041C32.0934 36.6468 31.3885 37.072 30.5943 37.3736C29.815 37.6653 29.0009 37.784 28.1769 37.8878C27.6855 37.9471 27.199 37.9521 26.7076 37.9521C22.4883 37.9521 18.269 37.9521 14.0496 37.9521C13.171 37.9521 12.3024 37.8483 11.4386 37.7049C10.7487 37.5912 10.0736 37.3934 9.45804 37.0622C8.81273 36.7111 8.27167 36.2365 7.83981 35.6333C7.49234 35.1488 7.29874 34.595 7.06048 34.0611C7.0158 33.9622 7.02573 33.8584 7.00091 33.7545C6.87681 33.186 6.7825 32.6124 6.71797 32.034C6.62862 31.2034 6.64351 30.3678 6.64351 29.5372C6.64351 25.7203 6.64351 21.8985 6.64351 18.0817C6.64351 17.1126 6.72293 16.1485 6.88674 15.1943C6.99098 14.5911 7.15975 13.9978 7.45262 13.4589C7.72068 12.9645 8.03837 12.5047 8.46526 12.1092C9.09568 11.5258 9.8353 11.1747 10.6444 10.9275C11.6719 10.616 12.7292 10.5172 13.7965 10.5122C16.0005 10.5023 18.2094 10.5122 20.4134 10.5122V10.5221ZM22.4287 26.5411C22.3989 26.5065 22.3791 26.4916 22.3741 26.4768C22.1656 25.8291 21.9571 25.1864 21.7536 24.5387C21.6543 24.2173 21.6593 24.2173 21.3267 24.2173C21.2126 24.2173 21.0934 24.2173 20.9793 24.2173C20.875 24.2173 20.8403 24.2569 20.88 24.3607C20.9991 24.6524 21.0934 24.954 21.1977 25.2506C21.4707 26.0368 21.7536 26.8179 22.0316 27.5991C22.111 27.8265 22.1061 27.8315 22.3394 27.8315C22.3989 27.8315 22.4535 27.8315 22.5131 27.8315C22.6571 27.8463 22.7365 27.8018 22.7861 27.6535C22.9598 27.1294 23.1435 26.6053 23.3321 26.0862C23.3917 25.923 23.4165 25.745 23.5208 25.6214C23.5903 25.6214 23.5952 25.6561 23.6052 25.6808C23.8236 26.3532 24.0618 27.0206 24.3001 27.6832C24.3398 27.7969 24.3894 27.8364 24.5036 27.8364C25.0695 27.8265 24.9404 27.9155 25.1241 27.4112C25.3773 26.7092 25.6205 26.0071 25.8687 25.305C25.9928 24.9589 26.107 24.6079 26.241 24.2173C25.9928 24.2173 25.7843 24.2173 25.5758 24.2173C25.4815 24.2173 25.4368 24.2569 25.412 24.3459C25.3524 24.5486 25.2879 24.7463 25.2234 24.9491C25.0447 25.4929 24.866 26.0368 24.6774 26.6053C24.6079 26.4867 24.5731 26.3878 24.5384 26.2889C24.3547 25.7154 24.171 25.1419 23.9725 24.5733C23.8236 24.1333 23.8881 24.2371 23.4463 24.2173C23.2775 24.2074 23.2031 24.2767 23.1584 24.425C22.9847 24.9837 22.806 25.5374 22.6223 26.0911C22.5727 26.2444 22.528 26.4026 22.4237 26.546L22.4287 26.5411ZM20.1999 19.6638C21.0289 19.7132 21.8082 19.5352 22.5379 19.1545C23.2924 18.764 23.8931 18.1954 24.3497 17.4735C24.7369 16.8506 24.9355 16.1683 25.0099 15.4464C25.0447 15.0855 25.0496 15.0855 24.6774 15.0855C24.6376 15.0855 24.5979 15.0855 24.5632 15.0855C24.3597 15.0855 24.3597 15.0905 24.3448 15.2882C24.3299 15.4712 24.3398 15.659 24.2951 15.8321C24.1015 16.5935 23.7739 17.2758 23.1981 17.8394C22.2004 18.8183 21.0041 19.1644 19.6589 18.9222C18.6859 18.7442 17.8867 18.2201 17.2861 17.4191C16.8542 16.8456 16.6061 16.2078 16.5266 15.4959C16.5117 15.3624 16.5862 15.1696 16.4373 15.1053C16.3082 15.0509 16.1345 15.0905 15.9806 15.0855C15.8664 15.0855 15.8218 15.1399 15.8367 15.2437C15.8764 15.5107 15.8664 15.7777 15.926 16.0397C16.1494 17.0236 16.6309 17.8493 17.3904 18.5118C18.1945 19.2188 19.1376 19.5995 20.2148 19.6539L20.1999 19.6638ZM26.8069 26.0022C26.8069 26.5312 26.8069 27.0552 26.8069 27.5843C26.8069 27.8315 26.8069 27.8315 27.065 27.8315C27.7302 27.8315 28.3953 27.8315 29.0555 27.8315C29.3765 27.8315 29.532 27.6749 29.5221 27.3618C29.5172 27.1393 29.5172 27.1343 29.2987 27.1343C28.7775 27.1343 28.2613 27.1343 27.7401 27.1343C27.6011 27.1343 27.5217 27.1047 27.5366 26.9465C27.5465 26.7932 27.5465 26.6399 27.5366 26.4867C27.5266 26.3433 27.5713 26.279 27.7302 26.2889C27.9436 26.2988 28.1521 26.2939 28.3655 26.2889C28.9513 26.2741 28.857 26.4125 28.8669 25.7599C28.8669 25.6363 28.8222 25.5868 28.6981 25.5918C28.4747 25.5918 28.2563 25.5918 28.033 25.5918C27.5117 25.5918 27.5167 25.5918 27.5366 25.0628C27.5366 24.9293 27.5812 24.8798 27.7202 24.8798C28.162 24.8897 28.6038 24.8897 29.0506 24.8798C29.5618 24.8699 29.4824 24.9886 29.4874 24.4151C29.4874 24.2173 29.4824 24.2124 29.2739 24.2124C28.5244 24.2124 27.7699 24.2124 27.0203 24.2124C26.8118 24.2124 26.8069 24.2173 26.8069 24.4447C26.8069 24.9639 26.8069 25.4781 26.8069 25.9972V26.0022ZM12.8186 26.017V24.6919C12.8186 24.3656 12.6564 24.2058 12.3321 24.2124C12.1088 24.2173 12.1038 24.2173 12.1038 24.4596C12.1038 24.8057 12.0988 25.1518 12.1038 25.4929C12.1038 25.6313 12.0542 25.6758 11.9201 25.6709C11.4883 25.6659 11.0515 25.6659 10.6196 25.6709C10.4707 25.6709 10.4409 25.6066 10.4459 25.4781C10.4508 25.2111 10.4459 24.9392 10.4459 24.6722C10.4459 24.3591 10.2887 24.2041 9.97429 24.2074C9.7112 24.2074 9.7112 24.2074 9.7112 24.4794C9.7112 25.4286 9.7112 26.3779 9.7112 27.3272C9.7112 27.6667 9.87832 27.8331 10.2126 27.8265C10.4459 27.8265 10.4459 27.8265 10.4459 27.5843C10.4459 27.2382 10.4459 26.8921 10.4459 26.5509C10.4459 26.4422 10.4607 26.368 10.5997 26.368C11.0515 26.368 11.5032 26.368 11.9549 26.368C12.0691 26.368 12.1038 26.4175 12.1038 26.5262C12.1038 26.7932 12.1038 27.0651 12.1038 27.3321C12.1038 27.6716 12.2709 27.8364 12.6052 27.8265C12.8136 27.8216 12.8186 27.8216 12.8186 27.5942C12.8186 27.0651 12.8186 26.5411 12.8186 26.012V26.017ZM14.5957 25.4385C14.5957 25.216 14.6056 24.9985 14.5957 24.776C14.5857 24.598 14.6801 24.3656 14.551 24.2569C14.417 24.1382 14.1837 24.2322 13.9901 24.2173C13.9802 24.2173 13.9702 24.2173 13.9603 24.2173C13.866 24.2173 13.8213 24.2569 13.8213 24.3558C13.8312 25.1023 13.7866 25.8538 13.8511 26.5954C13.8759 26.8723 13.9653 27.1393 14.1489 27.3568C14.6006 27.8957 15.2013 27.9353 15.8317 27.8364C16.204 27.7771 16.5167 27.5843 16.7153 27.253C16.8691 26.9959 16.9635 26.7141 16.9684 26.4125C16.9783 25.8588 16.9783 25.3001 16.9734 24.7463C16.9734 24.5782 17.0528 24.3656 16.9287 24.2569C16.8046 24.1531 16.5961 24.2223 16.4224 24.2223C16.2189 24.2223 16.2139 24.2223 16.2139 24.4299C16.2139 24.9935 16.2139 25.5621 16.2139 26.1258C16.2139 26.2592 16.2139 26.3927 16.1891 26.5262C16.1543 26.7388 16.07 26.9465 15.8764 27.0503C15.3006 27.3618 14.6056 27.075 14.6056 26.3927C14.6056 26.0763 14.6056 25.7599 14.6056 25.4435L14.5957 25.4385ZM21.0934 27.8315C21.1381 27.7623 21.1232 27.7276 21.1083 27.693C20.7162 26.813 20.329 25.9329 19.9368 25.0529C19.8326 24.8156 19.7234 24.5832 19.6191 24.3508C19.5745 24.2519 19.5099 24.2025 19.3958 24.2173C19.3412 24.2223 19.2766 24.2272 19.222 24.2173C18.9639 24.1629 18.8547 24.2964 18.7604 24.5189C18.4228 25.31 18.0654 26.0862 17.718 26.8723C17.5839 27.1838 17.4251 27.4854 17.3209 27.8414C17.4896 27.8414 17.6286 27.8414 17.7726 27.8414C18.0803 27.8414 18.0754 27.8414 18.1846 27.5645C18.2293 27.4607 18.3037 27.3618 18.3285 27.253C18.3633 27.1096 18.4427 27.08 18.5767 27.08C18.9987 27.0849 19.4256 27.0899 19.8475 27.08C19.9914 27.08 20.056 27.1294 20.1006 27.253C20.1602 27.4063 20.2198 27.5546 20.2893 27.7029C20.3191 27.7722 20.3588 27.8414 20.4531 27.8414C20.6715 27.8414 20.8899 27.8414 21.0835 27.8414L21.0934 27.8315ZM31.1255 26.0318V24.6771C31.1255 24.364 30.9666 24.2091 30.6489 24.2124C30.3908 24.2124 30.3908 24.2124 30.3908 24.4893C30.3908 25.4385 30.3908 26.3878 30.3908 27.3371C30.3908 27.6733 30.5596 27.8381 30.8971 27.8315C31.1255 27.8265 31.1255 27.8265 31.1255 27.5843C31.1255 27.0651 31.1255 26.546 31.1255 26.0318Z" fill="#BD1A2F"/>
<path d="M84.5868 25.0528C84.2642 24.9292 83.9614 24.7907 83.6486 24.677C82.5913 24.3062 81.5092 24.1184 80.3973 24.3161C79.057 24.5534 78.0593 25.2753 77.4636 26.5162C77.136 27.1985 77.0069 27.9303 76.9722 28.6818C76.9474 29.2701 76.9722 29.8535 77.0913 30.427C77.3296 31.5741 77.8508 32.5382 78.918 33.1414C79.3598 33.3935 79.8413 33.5171 80.3377 33.5814C81.266 33.6951 82.1793 33.5715 83.0728 33.3095C83.3806 33.2205 83.3756 33.2056 83.3756 32.9041C83.3756 32.2712 83.3756 31.6384 83.3756 31.0055C83.3756 30.7286 83.3756 30.7286 83.0877 30.7286C82.3084 30.7286 81.529 30.7286 80.7448 30.7286C80.4866 30.7286 80.4866 30.7286 80.4866 30.4814C80.4866 30.076 80.4866 29.6755 80.4866 29.2701C80.4866 29.0427 80.4866 29.0377 80.7299 29.0377C82.2339 29.0377 83.738 29.0377 85.2371 29.0377C85.4753 29.0377 85.4753 29.0377 85.4753 29.2948C85.4753 30.1304 85.4753 30.966 85.4753 31.8015C85.4753 32.558 85.4704 33.3194 85.4753 34.0758C85.4753 34.2489 85.4158 34.328 85.2669 34.3972C84.562 34.7087 83.8323 34.9361 83.0827 35.0992C82.4821 35.2327 81.8716 35.297 81.256 35.3217C80.5809 35.3464 79.9108 35.3316 79.2506 35.1882C77.9054 34.8965 76.7687 34.2686 75.9248 33.1513C75.3837 32.4344 75.0561 31.6285 74.8774 30.7583C74.6987 29.898 74.6739 29.0378 74.7484 28.1626C74.8278 27.2529 75.0512 26.3926 75.483 25.5917C76.0588 24.5287 76.8928 23.7228 77.9997 23.1987C79.1861 22.6401 80.437 22.472 81.7326 22.5263C82.5367 22.561 83.3111 22.734 84.0706 22.9861C84.3436 23.0751 84.6116 23.179 84.8747 23.2976C85.0981 23.3965 85.0981 23.4064 85.0286 23.6289C84.9144 23.9947 84.7953 24.3557 84.6712 24.7166C84.6315 24.8254 84.5967 24.9341 84.5769 25.0577L84.5868 25.0528Z" fill="#FCFCFC"/>
<path d="M42.3086 35.1734C42.3483 34.9213 42.4575 34.7186 42.5369 34.5109C42.8596 33.6655 43.2021 32.825 43.5347 31.9845C44.0112 30.7781 44.4927 29.5767 44.9643 28.3654C45.3465 27.3765 45.7337 26.3927 46.1308 25.4088C46.4634 24.5881 46.7711 23.7525 47.0938 22.9268C47.1881 22.6846 47.1931 22.6796 47.4413 22.6796C47.9923 22.6796 48.5383 22.6796 49.0893 22.6796C49.2382 22.6796 49.3176 22.7093 49.3821 22.8675C49.8835 24.1381 50.4047 25.3989 50.916 26.6646C51.4471 27.9748 51.9882 29.28 52.4995 30.5952C52.9214 31.6829 53.3731 32.7557 53.8 33.8385C53.9688 34.2686 54.1425 34.6988 54.3163 35.1289C54.2517 35.2031 54.1822 35.1734 54.1227 35.1734C53.4873 35.1734 52.8519 35.1734 52.2165 35.1734C52.0627 35.1734 51.9783 35.1437 51.9237 34.9806C51.6705 34.2588 51.3975 33.5468 51.1294 32.8299C51.0302 32.5629 50.921 32.2959 50.8217 32.029C50.772 31.8856 50.7025 31.8213 50.5338 31.8263C49.9679 31.8411 49.397 31.8312 48.8262 31.8312C47.8731 31.8312 46.9201 31.8312 45.967 31.8312C45.8081 31.8312 45.7287 31.851 45.6692 32.0339C45.416 32.7854 45.1231 33.5221 44.8501 34.2637C44.7558 34.5159 44.6664 34.768 44.5821 35.0202C44.5523 35.1091 44.5225 35.1734 44.4083 35.1734C43.7183 35.1734 43.0234 35.1734 42.3136 35.1734H42.3086ZM48.2206 24.9687C47.6845 26.7437 46.9945 28.3901 46.3988 30.0909H50.0771C49.4715 28.3802 48.7766 26.7338 48.2206 24.9687Z" fill="#FCFCFC"/>
<path d="M67.2866 35.0894C67.2866 35.8557 67.2767 36.6221 67.2767 37.3884C67.2767 37.7691 67.2767 38.1547 67.2767 38.5354C67.2767 38.8617 67.2767 38.8617 66.964 38.8766C66.8796 38.8766 66.7902 38.8766 66.7108 38.9211C66.6761 38.8914 66.6463 38.8864 66.6115 38.9211C66.1797 38.9606 65.7528 39.0051 65.3209 39.0397C65.1174 39.0546 65.1174 39.0447 65.1124 38.842C65.1124 38.7727 65.1124 38.7085 65.1124 38.6393C65.1124 35.0053 65.1124 31.3714 65.1124 27.7375C65.1124 27.2233 65.0827 26.7041 65.0628 26.1899C65.0562 25.979 65.1538 25.8735 65.3557 25.8735C65.857 25.8735 66.3584 25.8785 66.8597 25.8735C67.0087 25.8735 67.0881 25.9081 67.1079 26.0663C67.1377 26.3333 67.1824 26.5954 67.2171 26.8623C67.2221 26.897 67.2072 26.9414 67.2767 26.9662C67.4008 26.8525 67.5299 26.7338 67.6639 26.6151C68.473 25.9081 69.4161 25.5917 70.4784 25.7104C71.4513 25.8191 72.2406 26.2839 72.7866 27.1046C73.2086 27.7424 73.4419 28.4544 73.5213 29.2207C73.5759 29.7744 73.5908 30.3282 73.556 30.8819C73.5064 31.6334 73.3426 32.3553 73.01 33.0326C72.5533 33.9621 71.8733 34.6444 70.8954 35.03C69.9125 35.4157 68.9148 35.4157 67.8972 35.213C67.7185 35.1784 67.5448 35.1141 67.371 35.0745C67.3561 35.0449 67.3313 35.0449 67.3065 35.0548C67.2866 35.0597 67.2866 35.0795 67.2966 35.0943L67.2866 35.0894ZM67.2767 30.9116C67.2767 31.668 67.2767 32.4245 67.2767 33.1859C67.2767 33.4281 67.2866 33.4331 67.5051 33.5171C68.0362 33.7297 68.5921 33.7693 69.1481 33.7297C69.8381 33.6852 70.3841 33.3688 70.7812 32.7953C71.0642 32.3849 71.228 31.9251 71.2975 31.4406C71.4265 30.5655 71.4315 29.6854 71.1982 28.8202C71.1138 28.5038 70.9599 28.222 70.7465 27.9698C70.2402 27.3815 69.4112 27.243 68.6368 27.515C68.2496 27.6534 67.9319 27.8907 67.6093 28.133C67.3561 28.3258 67.2569 28.5433 67.2717 28.8647C67.2966 29.547 67.2817 30.2243 67.2817 30.9066L67.2767 30.9116Z" fill="#FCFCFC"/>
<path d="M56.789 38.9209C56.4067 38.9604 56.0245 39.0049 55.6423 39.0296C55.27 39.0544 55.3097 39.084 55.3097 38.733C55.3097 35.7764 55.3097 32.8248 55.3097 29.8682C55.3097 29.2947 55.3196 28.7162 55.3097 28.1427C55.2948 27.4554 55.265 26.7633 55.2452 26.076C55.2402 25.8733 55.2452 25.8684 55.4437 25.8684C55.9947 25.8684 56.5408 25.8733 57.0918 25.8634C57.2456 25.8634 57.2903 25.9228 57.3052 26.0563C57.3399 26.348 57.3797 26.6397 57.4194 26.961C57.603 26.8622 57.7122 26.7188 57.8463 26.6051C58.6306 25.9475 59.5191 25.6063 60.5516 25.6953C61.5543 25.7794 62.3684 26.2194 62.9442 27.05C63.381 27.673 63.6044 28.3701 63.6987 29.1266C63.8029 29.9324 63.7881 30.7334 63.6689 31.5294C63.5299 32.4638 63.1775 33.3192 62.5371 34.0262C61.8223 34.8074 60.9189 35.2276 59.8566 35.3166C59.4149 35.3512 58.9731 35.3314 58.5362 35.2968C58.2086 35.2672 57.8959 35.1683 57.5832 35.0793C57.4938 35.0249 57.4839 35.0249 57.464 35.0892C57.464 36.162 57.4591 37.2399 57.4541 38.3127C57.4541 38.4462 57.4541 38.5797 57.4541 38.7132C57.4541 38.817 57.4243 38.8714 57.3102 38.8714C57.1861 38.8714 57.057 38.8516 56.9428 38.9209C56.8932 38.8912 56.8436 38.8863 56.7939 38.9209H56.789ZM57.4491 30.9064C57.4491 31.653 57.4491 32.3996 57.4491 33.1461C57.4491 33.4279 57.4492 33.4181 57.7271 33.5268C58.2583 33.7394 58.8142 33.7691 59.3702 33.7246C60.1396 33.6603 60.7154 33.2747 61.0927 32.5973C61.316 32.1919 61.4302 31.7519 61.4947 31.297C61.6188 30.4516 61.599 29.621 61.3706 28.7953C61.0579 27.6878 60.1148 27.2132 59.122 27.4307C58.5065 27.5642 58.025 27.9103 57.5832 28.3306C57.474 28.4344 57.4442 28.5432 57.4442 28.6865C57.4491 29.4232 57.4442 30.1599 57.4442 30.9015L57.4491 30.9064Z" fill="#FCFCFC"/>
<path d="M123.131 25.8684C123.454 25.8684 123.757 25.8684 124.064 25.8684C124.452 25.8684 124.834 25.8733 125.221 25.8684C125.365 25.8684 125.449 25.903 125.494 26.0464C125.678 26.6298 125.871 27.2083 126.06 27.7867C126.159 28.0883 126.253 28.385 126.353 28.6866C126.641 29.5567 126.929 30.4269 127.211 31.2971C127.385 31.8261 127.539 32.3551 127.643 32.9039C127.648 32.9434 127.658 32.9781 127.713 32.9978C127.986 31.9151 128.338 30.862 128.701 29.8039C129.108 28.6124 129.475 27.406 129.892 26.2145C130.011 25.8684 130.006 25.8684 130.378 25.8684C130.964 25.8684 131.555 25.8684 132.131 25.8684C132.19 25.9277 132.146 25.9623 132.131 26.0068C131.823 26.8473 131.515 27.6928 131.207 28.5333C130.855 29.4924 130.503 30.4516 130.155 31.4058C129.688 32.6765 129.217 33.9471 128.765 35.2227C128.492 35.9791 128.17 36.7109 127.738 37.3882C127.4 37.9172 126.943 38.3375 126.402 38.649C126.095 38.8269 125.732 38.9061 125.375 38.9753C124.839 39.0791 124.303 39.0494 123.767 39.0247C123.459 39.0099 123.156 38.8912 122.853 38.8171C122.744 38.7923 122.754 38.7132 122.769 38.6391C122.813 38.4413 122.853 38.2485 122.908 38.0507C122.967 37.8282 123.052 37.6156 123.077 37.3833C123.086 37.2696 123.146 37.2152 123.27 37.2448C123.429 37.2794 123.593 37.3042 123.752 37.3289C124.074 37.3833 124.402 37.3981 124.725 37.3289C125.325 37.1954 125.737 36.8147 126.05 36.3104C126.114 36.2066 126.184 36.0978 126.234 35.9841C126.338 35.7369 126.497 35.4946 126.517 35.2375C126.536 34.9953 126.373 34.753 126.283 34.5107C125.891 33.4379 125.524 32.3502 125.112 31.2822C124.809 30.501 124.531 29.705 124.233 28.9239C123.871 27.9696 123.523 27.0105 123.176 26.0513C123.156 25.9969 123.151 25.9426 123.131 25.8635V25.8684Z" fill="#FCFCFC"/>
<path d="M92.9748 34.0561C92.7961 34.1154 92.7018 34.2786 92.5578 34.3874C91.8827 34.9213 91.1431 35.2872 90.2595 35.3169C89.788 35.3317 89.3214 35.3317 88.8647 35.1834C88.0357 34.9164 87.45 34.3923 87.172 33.5567C87.028 33.1266 86.9883 32.6767 87.033 32.2218C87.0827 31.7422 87.2018 31.2824 87.4996 30.882C87.9017 30.3381 88.4328 29.997 89.0881 29.814C90.2794 29.4778 91.4807 29.4927 92.6869 29.641C92.7465 29.6459 92.8011 29.6509 92.8606 29.6509C92.9152 29.6509 92.9549 29.6212 92.95 29.5668C92.9301 28.9241 92.9103 28.2715 92.4139 27.7721C92.1359 27.4903 91.7785 27.342 91.3913 27.2975C90.6864 27.2134 89.9965 27.3074 89.3114 27.5051C88.9441 27.6139 88.5768 27.7227 88.2243 27.8809C88.0754 27.9452 88.0506 27.8809 88.0308 27.7771C87.9464 27.3766 87.8669 26.9712 87.7776 26.5707C87.7428 26.4075 87.7975 26.3284 87.9563 26.274C88.4279 26.101 88.9094 25.9774 89.3958 25.8686C90.2844 25.6659 91.1878 25.6264 92.0912 25.7351C92.6968 25.8093 93.2726 25.9675 93.7789 26.3334C94.1661 26.6102 94.4391 26.9662 94.6476 27.3865C94.9752 28.044 95.0696 28.7511 95.0696 29.4729C95.0696 30.8177 95.0646 32.1576 95.0696 33.5024C95.0696 33.9424 95.1142 34.3824 95.1341 34.8175C95.1341 34.8768 95.1341 34.9312 95.144 34.9905C95.1539 35.1191 95.1192 35.1784 94.9703 35.1784C94.4094 35.1685 93.8534 35.1735 93.2925 35.1784C93.1684 35.1784 93.1188 35.124 93.0989 35.0202C93.0493 34.8027 93.0393 34.5851 93.0244 34.3626C93.0195 34.2588 93.0393 34.15 92.9599 34.0512L92.9748 34.0561ZM92.9599 31.7917C92.9599 31.5593 92.9599 31.3319 92.9599 31.0995C92.9599 30.9907 92.9401 30.9314 92.806 30.9215C92.0515 30.8474 91.297 30.788 90.5375 30.9215C89.8525 31.0402 89.3561 31.4011 89.232 32.1427C89.1327 32.741 89.3114 33.3985 89.9518 33.6457C90.1255 33.715 90.3042 33.7347 90.4879 33.7397C91.3913 33.7545 92.1359 33.3788 92.8011 32.8003C92.9351 32.6866 92.9748 32.563 92.9649 32.3998C92.9549 32.1971 92.9649 31.9993 92.9649 31.7966L92.9599 31.7917Z" fill="#FCFCFC"/>
<path d="M111.878 30.7929C110.965 30.7929 110.047 30.7929 109.133 30.7929C109.064 30.7929 108.999 30.7929 108.93 30.7929C108.865 30.7929 108.82 30.8226 108.825 30.8968C108.9 31.6582 109.044 32.3948 109.605 32.9733C110.047 33.4281 110.617 33.6259 111.228 33.6803C112.126 33.7545 112.985 33.5715 113.824 33.265C114.306 33.087 114.301 33.087 114.43 33.5814C114.499 33.8484 114.589 34.1104 114.673 34.3725C114.737 34.5752 114.742 34.5752 114.544 34.6691C114.142 34.8521 113.72 34.9856 113.293 35.0943C112.752 35.2328 112.201 35.2871 111.64 35.3168C111.233 35.3366 110.831 35.3267 110.434 35.2872C109.337 35.1833 108.374 34.7828 107.649 33.9176C107.182 33.3639 106.919 32.7113 106.77 32.0092C106.597 31.1934 106.612 30.3677 106.706 29.552C106.805 28.7411 107.083 27.9698 107.579 27.3024C108.17 26.5064 108.954 25.9922 109.937 25.7895C110.627 25.6461 111.307 25.6461 111.997 25.7944C112.777 25.9675 113.412 26.3729 113.918 26.981C114.425 27.5842 114.658 28.306 114.827 29.0576C114.941 29.5816 114.896 30.1057 114.911 30.6347C114.916 30.7979 114.822 30.7929 114.708 30.7929C113.765 30.7929 112.821 30.7929 111.873 30.7929H111.878ZM108.905 29.3888C109.019 29.4284 109.113 29.4135 109.208 29.4135C110.255 29.4135 111.307 29.4135 112.355 29.4135C112.449 29.4135 112.548 29.4086 112.643 29.4135C112.782 29.4234 112.836 29.374 112.816 29.2306C112.762 28.8301 112.682 28.4395 112.479 28.0836C112.365 27.8858 112.216 27.7127 112.032 27.5694C111.377 27.0354 110.007 27.0354 109.357 28.0588C109.098 28.4593 108.959 28.8993 108.905 29.3888Z" fill="#FCFCFC"/>
<path d="M99.0768 21.7698C99.1314 21.8835 99.1066 21.9923 99.1066 22.0961C99.1066 25.557 99.1066 29.0228 99.1066 32.4837C99.1066 32.637 99.1066 32.7902 99.1215 32.9435C99.1612 33.3489 99.4391 33.6011 99.8462 33.6208C100.06 33.6307 100.263 33.5813 100.491 33.522C100.571 33.9966 100.65 34.4564 100.73 34.9162C100.75 35.0349 100.71 35.0942 100.596 35.1238C100.417 35.1683 100.248 35.2326 100.07 35.2573C99.5831 35.3365 99.0917 35.3612 98.6052 35.287C97.8854 35.1782 97.3742 34.7926 97.126 34.0856C97.0019 33.7296 96.9473 33.3637 96.9473 32.988C96.9473 29.4183 96.9473 25.8487 96.9473 22.284C96.9473 21.9626 96.9473 21.9576 97.2749 21.9131C97.5132 21.8835 97.7514 21.8686 97.9897 21.8489C98.3521 21.8192 98.7144 21.8242 99.0718 21.7648L99.0768 21.7698Z" fill="#FCFCFC"/>
<path d="M105.802 33.522C105.897 33.8878 105.936 34.2388 105.991 34.5849C106.006 34.6789 106.011 34.7778 106.036 34.8668C106.08 35.0101 106.046 35.0991 105.887 35.1387C105.653 35.198 105.425 35.2722 105.187 35.2919C104.775 35.3265 104.363 35.3562 103.951 35.2969C103.181 35.1881 102.621 34.7333 102.397 33.962C102.278 33.5615 102.258 33.1511 102.258 32.7408C102.248 29.2403 102.253 25.7399 102.253 22.2345C102.253 22.1851 102.253 22.1406 102.253 22.0911C102.248 21.9873 102.283 21.9379 102.397 21.928C102.859 21.8884 103.315 21.834 103.777 21.8192C103.976 21.8143 104.179 21.7896 104.373 21.7698C104.427 21.8785 104.403 21.9873 104.403 22.0862C104.403 25.557 104.403 29.0327 104.403 32.5035C104.403 32.7062 104.403 32.9039 104.477 33.0967C104.591 33.4181 104.79 33.5813 105.132 33.606C105.346 33.6208 105.554 33.5862 105.797 33.5071L105.802 33.522Z" fill="#FCFCFC"/>
<path d="M116.564 25.8685C116.813 25.8685 117.061 25.8685 117.314 25.8685C117.681 25.8685 118.044 25.8685 118.411 25.8685C118.55 25.8685 118.595 25.9179 118.6 26.0514C118.615 26.4717 118.704 26.887 118.709 27.3072C118.709 27.3715 118.709 27.4407 118.778 27.505C118.942 27.3468 119.041 27.1441 119.175 26.9661C119.414 26.6496 119.677 26.3629 119.995 26.1256C120.63 25.6608 121.34 25.6163 122.084 25.7449C122.179 25.7597 122.243 25.8042 122.223 25.9179C122.134 26.4815 122.084 27.0551 121.96 27.6286C121.697 27.5742 121.439 27.5643 121.181 27.5643C120.387 27.5643 119.801 27.9747 119.3 28.5284C118.763 29.1168 118.768 29.1217 118.768 29.9227C118.768 31.5542 118.768 33.1858 118.768 34.8124C118.768 34.8717 118.763 34.9261 118.768 34.9854C118.788 35.1436 118.709 35.1733 118.57 35.1733C117.994 35.1684 117.413 35.1733 116.837 35.1733C116.629 35.1733 116.624 35.1733 116.624 34.9459C116.624 33.5566 116.624 32.1623 116.624 30.773C116.624 29.9375 116.634 29.1019 116.624 28.2713C116.614 27.4803 116.584 26.6843 116.564 25.8685Z" fill="#FCFCFC"/>
<path d="M56.7891 38.921C56.8387 38.8912 56.8883 38.8912 56.938 38.921C56.8883 38.9657 56.8387 38.9657 56.7891 38.921Z" fill="#BD1A2F"/>
<path d="M66.6133 38.9212C66.6483 38.8912 66.6783 38.8912 66.7133 38.9212C66.6783 38.9612 66.6483 38.9662 66.6133 38.9212Z" fill="#BD1A2F"/>
<path d="M57.459 35.0849C57.479 35.0199 57.489 35.0149 57.579 35.0749C57.539 35.0949 57.504 35.1049 57.459 35.0849Z" fill="#BD1A2F"/>
<path d="M67.2877 35.0898C67.2877 35.0898 67.2727 35.0549 67.2977 35.0499C67.3227 35.0399 67.3476 35.0399 67.3626 35.0699C67.3426 35.0949 67.3227 35.1098 67.2877 35.0898Z" fill="#BD1A2F"/>
<path d="M22.4281 26.5409C22.5274 26.3975 22.5721 26.2393 22.6267 26.086C22.8104 25.5323 22.9891 24.9785 23.1628 24.4198C23.2075 24.2715 23.2819 24.2023 23.4507 24.2122C23.8875 24.2369 23.823 24.1281 23.9769 24.5681C24.1705 25.1367 24.3541 25.7102 24.5428 26.2838C24.5775 26.3826 24.6073 26.4815 24.6817 26.6002C24.8704 26.0316 25.0491 25.4878 25.2278 24.9439C25.2923 24.7461 25.3568 24.5434 25.4164 24.3407C25.4412 24.2517 25.4859 24.2122 25.5802 24.2122C25.7887 24.2122 25.9972 24.2122 26.2454 24.2122C26.1113 24.6028 25.9972 24.9489 25.8731 25.2999C25.6298 26.0019 25.3866 26.709 25.1285 27.4061C24.9448 27.9104 25.0739 27.8164 24.508 27.8313C24.3938 27.8313 24.3492 27.7917 24.3045 27.678C24.0662 27.0105 23.828 26.348 23.6095 25.6756C23.5996 25.6509 23.5946 25.6163 23.5252 25.6163C23.4209 25.7399 23.3961 25.9228 23.3365 26.081C23.1479 26.6002 22.9642 27.1243 22.7905 27.6483C22.7409 27.7967 22.6614 27.8412 22.5175 27.8263C22.4579 27.8214 22.4033 27.8263 22.3437 27.8263C22.1104 27.8263 22.1154 27.8214 22.036 27.594C21.758 26.8128 21.4701 26.0316 21.202 25.2455C21.0978 24.9489 21.0035 24.6473 20.8844 24.3556C20.8446 24.2517 20.8844 24.2122 20.9836 24.2122C21.0978 24.2122 21.2169 24.2122 21.3311 24.2122C21.6687 24.2122 21.6587 24.2122 21.758 24.5335C21.9615 25.1812 22.17 25.824 22.3785 26.4716C22.3835 26.4865 22.4033 26.5013 22.4331 26.5359L22.4281 26.5409Z" fill="#FCFCFC"/>
<path d="M20.1993 19.6688C19.1271 19.6144 18.1839 19.2337 17.3748 18.5267C16.6203 17.8642 16.1339 17.0336 15.9105 16.0546C15.8509 15.7926 15.8658 15.5207 15.8211 15.2586C15.8062 15.1548 15.8509 15.0955 15.9651 15.1004C16.119 15.1054 16.2927 15.0658 16.4218 15.1202C16.5657 15.1845 16.4962 15.3773 16.5111 15.5108C16.5905 16.2227 16.8387 16.8605 17.2706 17.434C17.8712 18.235 18.6754 18.7591 19.6433 18.9371C20.9886 19.1793 22.1849 18.8332 23.1826 17.8543C23.7584 17.2857 24.086 16.6084 24.2796 15.847C24.3243 15.6739 24.3144 15.4861 24.3293 15.3031C24.3441 15.1054 24.3441 15.1054 24.5477 15.1004C24.5874 15.1004 24.6271 15.1004 24.6618 15.1004C25.0341 15.1004 25.0341 15.1004 24.9944 15.4613C24.92 16.1832 24.7264 16.8655 24.3342 17.4884C23.8825 18.2103 23.2819 18.7789 22.5224 19.1694C21.7927 19.5452 21.0134 19.7232 20.1844 19.6787L20.1993 19.6688Z" fill="#FCFCFC"/>
<path d="M26.8066 26.0022C26.8066 25.483 26.8066 24.9689 26.8066 24.4497C26.8066 24.2223 26.8066 24.2173 27.0201 24.2173C27.7696 24.2173 28.5242 24.2173 29.2737 24.2173C29.4822 24.2173 29.4921 24.2223 29.4871 24.4201C29.4871 24.9936 29.5566 24.8799 29.0503 24.8848C28.6085 24.8898 28.1668 24.8898 27.72 24.8848C27.581 24.8848 27.5413 24.9293 27.5363 25.0677C27.5165 25.5968 27.5115 25.5968 28.0327 25.5968C28.2561 25.5968 28.4745 25.5968 28.6979 25.5968C28.822 25.5968 28.8716 25.6413 28.8667 25.7649C28.8567 26.4175 28.951 26.2791 28.3653 26.2939C28.1519 26.2988 27.9434 26.3038 27.7299 26.2939C27.576 26.284 27.5264 26.3483 27.5363 26.4916C27.5463 26.6449 27.5463 26.7982 27.5363 26.9514C27.5264 27.1097 27.6009 27.1443 27.7399 27.1393C28.2611 27.1344 28.7773 27.1393 29.2985 27.1393C29.5169 27.1393 29.5169 27.1443 29.5219 27.3668C29.5285 27.6799 29.373 27.8364 29.0553 27.8364C28.3901 27.8364 27.725 27.8364 27.0648 27.8364C26.8116 27.8364 26.8066 27.8364 26.8066 27.5892C26.8066 27.0602 26.8066 26.5361 26.8066 26.0071V26.0022Z" fill="#FCFCFC"/>
<path d="M12.8144 26.0216C12.8144 26.5507 12.8144 27.0747 12.8144 27.6038C12.8144 27.8312 12.8144 27.8312 12.601 27.8361C12.2667 27.846 12.0996 27.6812 12.0996 27.3417C12.0996 27.0747 12.0996 26.8028 12.0996 26.5358C12.0996 26.432 12.0649 26.3776 11.9507 26.3776C11.499 26.3776 11.0473 26.3776 10.5956 26.3776C10.4566 26.3776 10.4417 26.4518 10.4417 26.5605C10.4417 26.9066 10.4417 27.2527 10.4417 27.5939C10.4417 27.8312 10.4417 27.8312 10.2084 27.8361C9.87415 27.8427 9.70703 27.6763 9.70703 27.3368C9.70703 26.3875 9.70703 25.4382 9.70703 24.489C9.70703 24.222 9.70703 24.222 9.97012 24.217C10.2845 24.2137 10.4417 24.3687 10.4417 24.6818C10.4417 24.9488 10.4417 25.2207 10.4417 25.4877C10.4417 25.6162 10.4715 25.6805 10.6154 25.6805C11.0473 25.6755 11.4841 25.6755 11.916 25.6805C12.05 25.6805 12.1046 25.6409 12.0996 25.5025C12.0947 25.1564 12.0996 24.8103 12.0996 24.4692C12.0996 24.2269 12.0996 24.2269 12.328 24.222C12.6523 24.2154 12.8144 24.3752 12.8144 24.7016C12.8144 25.1416 12.8144 25.5816 12.8144 26.0266V26.0216Z" fill="#FCFCFC"/>
<path d="M14.5914 25.4385C14.5914 25.755 14.5914 26.0714 14.5914 26.3878C14.5914 27.0701 15.2863 27.3618 15.8621 27.0454C16.0557 26.9416 16.1401 26.7339 16.1749 26.5213C16.1947 26.3878 16.1997 26.2543 16.1997 26.1208C16.1997 25.5572 16.1997 24.9886 16.1997 24.425C16.1997 24.2223 16.2046 24.2173 16.4082 24.2173C16.5819 24.2173 16.7904 24.1481 16.9145 24.252C17.0435 24.3607 16.9592 24.5783 16.9592 24.7414C16.9592 25.2952 16.9592 25.8538 16.9542 26.4076C16.9542 26.7092 16.8549 26.991 16.701 27.2481C16.5025 27.5793 16.1898 27.7722 15.8175 27.8315C15.187 27.9353 14.5864 27.8908 14.1347 27.3519C13.951 27.1294 13.8617 26.8625 13.8369 26.5905C13.7723 25.844 13.822 25.0974 13.8071 24.3508C13.8071 24.2569 13.8468 24.2074 13.9461 24.2124C13.956 24.2124 13.9659 24.2124 13.9759 24.2124C14.1645 24.2272 14.3978 24.1333 14.5368 24.252C14.6658 24.3657 14.5715 24.5931 14.5814 24.7711C14.5914 24.9936 14.5814 25.2111 14.5814 25.4336L14.5914 25.4385Z" fill="#FCFCFC"/>
<path d="M21.0888 27.8313C20.8903 27.8313 20.6768 27.8313 20.4584 27.8313C20.3641 27.8313 20.3244 27.7621 20.2946 27.6929C20.2301 27.5445 20.1655 27.3962 20.106 27.2429C20.0613 27.1193 19.9918 27.0649 19.8528 27.0699C19.4309 27.0798 19.0089 27.0798 18.582 27.0699C18.448 27.0699 18.3686 27.0996 18.3338 27.2429C18.3041 27.3517 18.2296 27.4456 18.1899 27.5544C18.0807 27.8313 18.0807 27.8313 17.7779 27.8313C17.6339 27.8313 17.4949 27.8313 17.3262 27.8313C17.4304 27.4753 17.5893 27.1737 17.7233 26.8622C18.0658 26.0761 18.4282 25.2999 18.7657 24.5088C18.86 24.2864 18.9692 24.1578 19.2273 24.2073C19.2819 24.2171 19.3415 24.2171 19.4011 24.2073C19.5153 24.1924 19.5798 24.2419 19.6245 24.3407C19.7287 24.5781 19.8379 24.8104 19.9421 25.0428C20.3343 25.9229 20.7215 26.8029 21.1136 27.683C21.1285 27.7176 21.1434 27.7522 21.0987 27.8214L21.0888 27.8313ZM19.2075 25.1763C19.0387 25.6213 18.8352 25.9871 18.7111 26.4074C19.0685 26.3975 19.4011 26.4222 19.7386 26.3876L19.2075 25.1763Z" fill="#FCFCFC"/>
<path d="M31.1214 26.0319C31.1214 26.551 31.1214 27.0702 31.1214 27.5843C31.1214 27.8266 31.1214 27.8266 30.893 27.8316C30.5555 27.8414 30.3867 27.6766 30.3867 27.3371C30.3867 26.3879 30.3867 25.4386 30.3867 24.4893C30.3867 24.2174 30.3867 24.2174 30.6448 24.2125C30.9625 24.2092 31.1214 24.3641 31.1214 24.6772C31.1214 25.1271 31.1214 25.577 31.1214 26.0319Z" fill="#FCFCFC"/>
<path d="M19.2073 25.1765L19.7385 26.3878C19.396 26.4224 19.0683 26.3976 18.7109 26.4075C18.835 25.9823 19.0386 25.6214 19.2073 25.1765Z" fill="#BD1A2F"/>
</svg>
