<svg width="23" height="23" viewBox="0 0 23 23" fill="none" xmlns="http://www.w3.org/2000/svg">
<path d="M10.4267 23H12.5733C13.451 23 14.1384 22.4496 14.3499 21.6029L14.7729 19.7506L15.0478 19.6447L16.6657 20.6503C17.406 21.116 18.2837 20.989 18.9076 20.3645L20.388 18.8827C21.0225 18.2476 21.1283 17.3797 20.663 16.6493L19.6584 15.0299L19.7641 14.7759L21.6147 14.3419C22.4501 14.1302 23 13.4422 23 12.5637V10.4786C23 9.60009 22.4607 8.9121 21.6147 8.70041L19.7747 8.25587L19.669 7.98067L20.6736 6.37184C21.1389 5.64151 21.0331 4.77358 20.3986 4.12793L18.9182 2.64611C18.3048 2.02163 17.4271 1.9052 16.6869 2.36033L15.069 3.35527L14.7729 3.24942L14.3499 1.38656C14.1384 0.539807 13.451 0 12.5733 0H10.4267C9.53839 0 8.85103 0.539807 8.65012 1.38656L8.22713 3.24942L7.93103 3.35527L6.3131 2.36033C5.5623 1.9052 4.69517 2.02163 4.08184 2.64611L2.5908 4.12793C1.9669 4.77358 1.85057 5.64151 2.31586 6.37184L3.32046 7.98067L3.21471 8.25587L1.38529 8.70041C0.53931 8.9121 0 9.60009 0 10.4786V12.5637C0 13.4422 0.549885 14.1302 1.38529 14.3419L3.23586 14.7759L3.33103 15.0299L2.32644 16.6493C1.86115 17.3797 1.97747 18.2476 2.60138 18.8827L4.09241 20.3645C4.70575 20.989 5.58345 21.116 6.32368 20.6503L7.94161 19.6447L8.22713 19.7506L8.65012 21.6029C8.85103 22.4496 9.53839 23 10.4267 23ZM10.7016 21.0525C10.5218 21.0525 10.4267 20.9784 10.4055 20.8196L9.77103 18.2158C9.10483 18.0571 8.45977 17.7819 7.94161 17.4538L5.65747 18.8615C5.52 18.9462 5.3931 18.9356 5.26621 18.8086L4.15586 17.6972C4.02897 17.5808 4.02897 17.4538 4.11356 17.3162L5.52 15.0299C5.22391 14.5219 4.94897 13.8868 4.79034 13.22L2.17839 12.5955C2.01977 12.5743 1.93517 12.4791 1.93517 12.2991V10.7326C1.93517 10.5421 2.0092 10.468 2.17839 10.4257L4.77977 9.81178C4.93839 9.10262 5.24506 8.44639 5.50943 7.97009L4.10299 5.70502C4.01839 5.55683 4.01839 5.42982 4.13471 5.30281L5.25563 4.20202C5.38253 4.0856 5.49885 4.06443 5.65747 4.15969L7.92046 5.54625C8.39632 5.24988 9.10483 4.95352 9.78161 4.78417L10.4055 2.1804C10.4267 2.02163 10.5218 1.93695 10.7016 1.93695H12.2984C12.4782 1.93695 12.5628 2.01104 12.5945 2.1804L13.229 4.79475C13.9163 4.9641 14.5402 5.24988 15.069 5.54625L17.332 4.15969C17.4906 4.07501 17.6069 4.0856 17.7338 4.21261L18.8547 5.31339C18.9816 5.42982 18.9816 5.55683 18.8864 5.70502L17.4906 7.97009C17.7444 8.44639 18.0616 9.10262 18.2202 9.81178L20.8216 10.4257C20.9908 10.468 21.0543 10.5421 21.0543 10.7326V12.2991C21.0543 12.4791 20.9802 12.5743 20.8216 12.5955L18.2097 13.22C18.051 13.8868 17.7655 14.5324 17.4694 15.0299L18.8759 17.3056C18.9605 17.4538 18.9605 17.5702 18.8336 17.6866L17.7232 18.8086C17.5963 18.9356 17.4694 18.9462 17.332 18.8615L15.0584 17.4538C14.5297 17.7819 13.9269 18.0465 13.229 18.2158L12.5945 20.8196C12.5628 20.9784 12.4782 21.0525 12.2984 21.0525H10.7016ZM11.5053 15.5168C13.7048 15.5168 15.5131 13.7069 15.5131 11.4947C15.5131 9.30373 13.7048 7.49379 11.5053 7.49379C9.29517 7.49379 7.47632 9.30373 7.47632 11.4947C7.47632 13.7069 9.29517 15.5168 11.5053 15.5168ZM11.5053 13.6857C10.2998 13.6857 9.31632 12.7013 9.31632 11.4947C9.31632 10.3092 10.3103 9.3249 11.5053 9.3249C12.6791 9.3249 13.6625 10.3092 13.6625 11.4947C13.6625 12.6908 12.6791 13.6857 11.5053 13.6857Z" fill="#828282"/>
</svg>
