<svg width="15" height="16" viewBox="0 0 15 16" fill="none" xmlns="http://www.w3.org/2000/svg">
<path d="M0.873926 13.3475H1.81232C2.02722 13.3475 2.11318 13.3027 2.27077 13.1757L2.75072 12.7946C3.01576 13.071 3.40974 13.1308 3.80373 12.9515L6.17479 11.9204C6.35387 11.8457 6.44699 11.771 6.5616 11.6514L13.4814 4.48593C14.1691 3.76863 14.1691 2.90937 13.4742 2.17713L11.9198 0.548277C11.2249 -0.176489 10.4011 -0.183961 9.71347 0.533334L2.7937 7.69134C2.67192 7.81836 2.60745 7.90802 2.52865 8.10229L1.52579 10.568C1.36103 10.964 1.40401 11.3525 1.66905 11.6589L0.637536 12.7722C0.415473 13.0187 0.522923 13.3475 0.873926 13.3475ZM10.5086 1.51961C10.6948 1.33282 10.9169 1.32535 11.0888 1.51214L12.5501 3.04387C12.7292 3.23066 12.7221 3.45482 12.5287 3.64908L12.063 4.13475L10.0358 2.01275L10.5086 1.51961ZM4.0616 8.20689L9.26218 2.81971L11.2822 4.94171L6.08883 10.3289L4.0616 8.20689ZM3.66046 11.629C3.52436 11.6813 3.43123 11.6813 3.30946 11.5543L2.85817 11.091C2.74355 10.9715 2.74355 10.8594 2.7937 10.7324L3.4384 9.17076L5.15759 10.9789L3.66046 11.629ZM0.630372 16H14.3768C14.7206 16 15 15.6937 15 15.335C15 14.9764 14.7206 14.6775 14.3768 14.6775H0.630372C0.27937 14.6775 0 14.9764 0 15.335C0 15.6937 0.286533 16 0.630372 16Z" fill="#828282"/>
</svg>
