<svg width="17" height="27" viewBox="0 0 17 27" fill="none" xmlns="http://www.w3.org/2000/svg">
<path d="M0 23.5927C0 25.6346 1.44469 27 3.61172 27H13.4505C15.5802 27 17 25.6346 17 23.5927V3.40729C17 1.36538 15.5802 0 13.4505 0H3.61172C1.44469 0 0 1.36538 0 3.40729V23.5927ZM5.96557 2.41093C5.96557 2.09112 6.18974 1.882 6.5011 1.882H10.5114C10.8227 1.882 11.0469 2.09112 11.0469 2.41093C11.0469 2.73075 10.8227 2.93986 10.5114 2.93986H6.5011C6.18974 2.93986 5.96557 2.73075 5.96557 2.41093ZM2.49084 22.3257V4.67426H14.5092V22.3257H2.49084ZM8.51868 25.6223C7.87106 25.6223 7.34799 25.1057 7.34799 24.4661C7.34799 23.8387 7.87106 23.3344 8.51868 23.3344C9.15385 23.3344 9.66447 23.8387 9.66447 24.4661C9.66447 25.1057 9.15385 25.6223 8.51868 25.6223Z" fill="white"/>
</svg>
