<svg width="43" height="32" viewBox="0 0 43 32" fill="none" xmlns="http://www.w3.org/2000/svg">
<g clip-path="url(#clip0_687_3453)">
<path d="M23.332 17.4865H23.8501C24.7415 17.4865 25.6321 17.4865 26.5234 17.4865C26.8413 17.4865 26.8458 17.4881 26.9164 17.7939C27.3791 19.8195 27.8396 21.8459 28.3008 23.8715C28.5056 24.7736 28.7104 25.675 28.9137 26.5779C28.9335 26.6655 28.9509 26.7516 29.0162 26.8207C29.0943 26.7854 29.1004 26.7055 29.1178 26.6394C29.8324 23.8792 30.5455 21.1189 31.2586 18.3587C31.3154 18.1382 31.3822 17.9192 31.4308 17.6963C31.4679 17.5273 31.5582 17.4812 31.7236 17.4827C32.6142 17.4904 33.5055 17.4888 34.3968 17.4835C34.5478 17.4827 34.6123 17.5303 34.651 17.6863C34.8361 18.4371 35.0386 19.1825 35.2328 19.9309C35.8169 22.1878 36.3995 24.4455 36.9829 26.7032C36.9958 26.7531 37.0087 26.8015 37.0868 26.8353C37.2082 26.6332 37.2165 26.3935 37.2674 26.1729C37.787 23.9137 38.2968 21.6515 38.8103 19.3907C38.9363 18.8344 39.0683 18.2803 39.1919 17.7232C39.2253 17.5726 39.2708 17.4804 39.4574 17.4819C40.5991 17.4911 41.7415 17.4881 42.8832 17.4904C42.9181 17.4904 42.953 17.508 43.0023 17.5211C42.9856 17.883 42.8468 18.2135 42.7512 18.55C41.8075 21.8643 40.854 25.1755 39.9027 28.4875C39.6091 29.5103 39.3072 30.5307 39.0235 31.5566C38.9689 31.7541 38.8832 31.8186 38.6859 31.8163C37.7574 31.8079 36.8289 31.8048 35.9004 31.8179C35.6849 31.8209 35.5985 31.7533 35.5385 31.5443C35.0439 29.8276 34.5357 28.1155 34.0335 26.4012C33.7445 25.4168 33.46 24.4309 33.1679 23.4465C33.1444 23.3674 33.1474 23.2659 33.0253 23.1976C32.9616 23.2967 32.9328 23.4104 32.8994 23.5249C32.1233 26.1752 31.3465 28.8256 30.5682 31.4759C30.462 31.8378 30.4575 31.8371 30.0918 31.8371C29.2134 31.8371 28.3349 31.8363 27.4565 31.8371C27.1015 31.8371 27.1432 31.8056 27.0719 31.552C26.8011 30.5884 26.5211 29.6278 26.2344 28.6688C26.179 28.4829 26.2162 28.3261 26.2769 28.154C26.5849 27.2787 26.8375 26.3866 26.8792 25.4529C26.9467 23.9537 26.8155 22.4752 26.2549 21.0728C25.7717 19.8641 25.0237 18.8367 24.0117 18.0175C23.8107 17.8554 23.6059 17.6986 23.3351 17.4865H23.332Z" fill="#FD7A0F"/>
<path d="M28.6757 8.92539C29.63 10.7036 30.5896 12.4925 31.5773 14.3336C31.3505 14.3336 31.1912 14.3336 31.0326 14.3336C30.0662 14.3336 29.0997 14.3214 28.1333 14.3421C27.8769 14.3475 27.7472 14.253 27.6379 14.0424C27.1137 13.0311 26.582 12.0245 26.0532 11.0155C25.8241 10.5783 25.5928 10.1426 25.3705 9.70151C25.2825 9.52784 25.1755 9.43409 24.9654 9.44408C24.5899 9.46099 24.2129 9.44716 23.8359 9.44946C23.5044 9.451 23.5028 9.45254 23.5021 9.81293C23.5013 10.818 23.5021 11.8232 23.5021 12.8275C23.5021 13.2348 23.5044 13.6413 23.5013 14.0486C23.499 14.326 23.4953 14.3313 23.2404 14.3321C22.2739 14.3344 21.3075 14.3283 20.341 14.3375C20.143 14.339 20.0641 14.2768 20.0854 14.0785C20.0937 14.0032 20.0869 13.9264 20.0869 13.8495C20.0869 9.39721 20.0869 4.94489 20.0869 0.492566C20.0869 0.454145 20.0869 0.416491 20.0869 0.378069C20.0854 -0.0422653 20.0801 0.00691458 20.4518 0.00691458C22.3596 0.00691458 24.2675 -0.0153701 26.1746 0.0145989C27.4126 0.0338099 28.5786 0.341953 29.5602 1.16725C30.4 1.87345 30.8521 2.80018 31.019 3.87753C31.1388 4.64904 31.1206 5.42055 30.9241 6.17823C30.6215 7.34548 29.941 8.21612 28.8828 8.77785C28.8274 8.80705 28.7735 8.83932 28.7204 8.8716C28.7106 8.87775 28.7037 8.89004 28.6749 8.92462L28.6757 8.92539ZM23.5028 4.7789C23.5028 5.33756 23.5044 5.89621 23.5021 6.45487C23.5021 6.59318 23.5066 6.70614 23.6932 6.70076C24.4427 6.67771 25.1937 6.74764 25.941 6.6293C26.7382 6.50251 27.3064 6.04913 27.4513 5.35139C27.531 4.96717 27.5272 4.5722 27.4346 4.18183C27.3618 3.87446 27.2093 3.62471 26.9878 3.40725C26.6662 3.09142 26.2664 2.96232 25.8416 2.89163C25.1581 2.7779 24.4678 2.85167 23.7812 2.8363C23.5089 2.83015 23.5051 2.84168 23.5036 3.14137C23.5013 3.68773 23.5036 4.23332 23.5036 4.77967L23.5028 4.7789Z" fill="#22305F"/>
<path d="M12.4071 7.19114C12.4071 9.41654 12.4071 11.6427 12.4071 13.8681C12.4071 13.9572 12.4025 14.0464 12.4071 14.1347C12.4162 14.283 12.3494 14.3345 12.2068 14.3345C11.1903 14.3315 10.1738 14.3315 9.15726 14.3345C9.00858 14.3345 8.96078 14.2692 8.96382 14.1278C8.96913 13.8481 8.96534 13.5684 8.96534 13.2887C8.96534 11.8264 8.96534 10.3632 8.96534 8.90092C8.96534 8.60507 8.97975 8.60814 8.67783 8.60891C7.03396 8.61045 5.39009 8.60891 3.74623 8.61045C3.44734 8.61045 3.44431 8.61429 3.44355 8.9232C3.44203 10.5638 3.44355 12.2044 3.44355 13.845C3.44355 13.9211 3.43672 13.9987 3.44507 14.074C3.46631 14.2692 3.39272 14.3438 3.19246 14.3376C2.77902 14.3245 2.36407 14.3338 1.94988 14.3338C1.38549 14.3338 0.82034 14.3268 0.255947 14.3376C0.0587136 14.3414 -0.0209385 14.2731 0.00181927 14.0756C0.0101638 14.0003 0.00333646 13.9234 0.00333646 13.8466C0.00333646 9.39502 0.00333646 4.94347 0.00333646 0.491915C0.00333646 0.441198 0.00333646 0.390481 0.00333646 0.338996C0.0086466 0.0116417 0.0086466 0.00933641 0.3356 0.00856798C1.26412 0.0070311 2.19263 0.0070311 3.12115 0.00856798C3.44127 0.00856798 3.44431 0.0124101 3.44431 0.347448C3.44507 2.00112 3.44431 3.65403 3.44431 5.30771C3.44431 5.39684 3.44734 5.48598 3.44431 5.57512C3.44051 5.68655 3.48831 5.73803 3.59906 5.73265C3.66202 5.72958 3.72423 5.73265 3.78719 5.73265C5.40603 5.73265 7.02486 5.73265 8.64369 5.73265C8.99113 5.73265 8.96534 5.75801 8.96534 5.39992C8.96534 3.7716 8.96534 2.14405 8.96534 0.515736C8.96534 0.439661 8.96382 0.362817 8.96534 0.286742C8.97216 0.0162523 8.97292 0.00933641 9.23464 0.00856798C10.063 0.00549423 10.8914 0.0070311 11.719 0.0070311C11.8821 0.0070311 12.0452 0.0124102 12.2083 0.00549423C12.3532 -0.000653262 12.4147 0.0615901 12.4055 0.207593C12.4002 0.295963 12.4048 0.38587 12.4048 0.47424C12.4048 2.7127 12.4048 4.95115 12.4048 7.18961L12.4071 7.19114Z" fill="#22305F"/>
<path d="M21.024 17.6018C21.8342 17.787 22.5495 18.1766 23.2019 18.6807C24.5226 19.7004 25.3419 21.0467 25.6787 22.6935C25.9465 24.0044 25.9655 25.3208 25.6787 26.6286C25.1765 28.9155 23.8611 30.543 21.7052 31.3975C19.6745 32.2029 17.602 32.2052 15.5758 31.3799C13.2158 30.4178 11.8708 28.5943 11.4521 26.0692C11.2594 24.9073 11.2814 23.7401 11.5166 22.5828C11.5318 22.5098 11.5674 22.4414 11.594 22.3715C11.7571 22.34 11.8928 22.2447 12.0377 22.1717C14.0624 21.1466 16.0863 20.12 18.1095 19.0918C19.082 18.5977 20.0523 18.0998 21.0233 17.6033L21.024 17.6018ZM15.104 24.6968C15.1108 24.9926 15.1207 25.4498 15.2102 25.9009C15.4886 27.3025 16.2411 28.6435 18.0898 28.8832C19.7223 29.0953 21.3381 28.4836 21.9085 26.3628C22.0178 25.9562 22.0747 25.5405 22.0936 25.1217C22.1399 24.1366 22.0694 23.1645 21.6741 22.2455C21.2266 21.205 20.4604 20.5541 19.3536 20.3351C18.9826 20.2614 18.6064 20.2537 18.2294 20.2821C16.8502 20.3843 15.9179 21.0951 15.4256 22.4022C15.1669 23.0892 15.0949 23.8069 15.1032 24.6975L15.104 24.6968Z" fill="#FD7A0F"/>
<path d="M38.8584 8.58805C38.1863 8.63569 37.5142 8.59727 36.8421 8.60956C36.7427 8.6111 36.6426 8.61648 36.5432 8.6088C36.393 8.5965 36.3536 8.66796 36.3536 8.80936C36.3543 9.16207 36.3429 9.51478 36.3369 9.86826C36.2011 9.93281 36.0638 9.99429 35.9295 10.0611C34.932 10.5606 33.9352 11.0616 32.9376 11.5619C32.93 11.4359 32.9171 11.3091 32.9171 11.1831C32.9164 7.59753 32.9156 4.01278 32.9171 0.427252C32.9171 -0.0268942 32.8747 0.00845386 33.3124 0.00845386C36.3354 0.00845386 39.3583 0.00845386 42.3821 0.00845386C42.4701 0.00845386 42.5573 0.00999073 42.6453 0.00999073C42.7386 0.00999073 42.7796 0.0622444 42.7819 0.150615C42.7841 0.239753 42.7841 0.328892 42.7841 0.417262C42.7841 1.07812 42.7872 1.73974 42.7834 2.4006C42.7803 2.89316 42.8471 2.83169 42.3737 2.83246C41.0068 2.83553 39.639 2.83323 38.272 2.83323C37.7327 2.83323 37.1933 2.83169 36.654 2.83323C36.3649 2.83476 36.3604 2.83784 36.3596 3.12062C36.3566 3.89597 36.3574 4.67133 36.3596 5.44745C36.3604 5.72639 36.3642 5.73023 36.6532 5.731C38.1461 5.73254 39.639 5.731 41.1312 5.731C41.4445 5.731 41.7585 5.73868 42.0718 5.72793C42.2501 5.72178 42.3229 5.78249 42.31 5.96768C42.2903 6.25892 42.3335 6.55169 42.285 6.84293C41.1441 7.42387 40.0024 8.00557 38.8615 8.58651L38.8584 8.58805Z" fill="#22305F"/>
<path d="M14.5394 7.13262C14.5394 4.94565 14.5394 2.75868 14.5394 0.571713C14.5394 0.507933 14.5394 0.444921 14.5394 0.381141C14.5394 -0.0153721 14.5129 0.007681 14.9051 0.007681C15.8207 0.007681 16.7371 0.00691257 17.6527 0.007681C17.9766 0.007681 17.9797 0.0107547 17.9797 0.341951C17.9804 2.92313 17.9797 5.50431 17.9797 8.08549C17.9797 10.0058 17.9797 11.9254 17.9797 13.8457C17.9797 13.9348 17.9736 14.024 17.9812 14.1123C17.9948 14.276 17.9296 14.3383 17.765 14.3352C17.3257 14.3275 16.8865 14.3329 16.4481 14.3329C15.9208 14.3329 15.3944 14.3344 14.8672 14.3329C14.5432 14.3313 14.5402 14.3298 14.5402 13.9986C14.5394 12.1298 14.5402 10.2602 14.5402 8.39132C14.5402 7.97176 14.5402 7.55219 14.5402 7.13262H14.5394Z" fill="#22305F"/>
<path d="M0.225237 28.1547C0.219169 28.0279 0.20779 27.9012 0.20779 27.7751C0.207031 24.4816 0.207031 21.1889 0.207031 17.8953C0.207031 17.87 0.207031 17.8446 0.207031 17.8193C0.210824 17.4911 0.210824 17.4888 0.535501 17.4881C1.28802 17.4865 2.04131 17.4988 2.79383 17.4819C3.06009 17.4758 3.22471 17.5557 3.37567 17.7862C4.03413 18.7906 4.71382 19.7811 5.38518 20.777C6.09218 21.8251 6.79995 22.8725 7.50316 23.9237C7.59344 24.059 7.70419 24.1835 7.7535 24.3448C6.88188 24.7867 6.01026 25.2293 5.13863 25.6712C4.729 25.0802 4.32087 24.4885 3.90972 23.8984C3.83917 23.7969 3.79441 23.674 3.63435 23.5741C3.62373 24.5615 3.61311 25.5159 3.60249 26.4703C3.47808 26.5272 3.35215 26.5802 3.23002 26.6417C2.22792 27.1458 1.22658 27.6514 0.224479 28.1563L0.225237 28.1547Z" fill="#22305F"/>
<path d="M5.13867 25.6696C6.01029 25.2278 6.88191 24.7852 7.75354 24.3433C8.12221 24.7606 8.35965 25.2785 8.78143 25.7603C8.79053 25.048 8.79963 24.4125 8.80798 23.7777C9.00825 23.7393 9.17134 23.6148 9.35341 23.5341C9.70615 23.3766 10.0278 23.1515 10.4003 23.0362C10.3828 23.2767 10.3638 23.5172 10.3479 23.7578C10.2789 24.8021 10.3183 25.8356 10.5952 26.853C10.7249 27.3294 10.8281 27.8113 11.0269 28.2685C11.3022 28.9009 11.6504 29.4834 12.0859 30.0128C12.2027 30.1542 12.2687 30.3025 12.2618 30.4962C12.2482 30.8643 12.2497 31.2331 12.2618 31.6012C12.2679 31.7902 12.1921 31.8402 12.0199 31.8394C11.1922 31.834 10.3646 31.8325 9.53774 31.8409C9.36478 31.8425 9.26693 31.7733 9.17362 31.635C8.41048 30.5031 7.64051 29.3773 6.87509 28.247C6.29401 27.3894 5.71824 26.5287 5.13943 25.6696H5.13867Z" fill="#FD7A0F"/>
<path d="M32.9377 11.5611C33.9352 11.0609 34.932 10.5599 35.9296 10.0604C36.0639 9.99275 36.2012 9.93127 36.3369 9.86749C36.3438 10.3116 36.3491 10.7558 36.3567 11.2C36.362 11.5043 36.3627 11.5081 36.6738 11.5081C38.5543 11.5096 40.4356 11.5081 42.3162 11.5081C42.4042 11.5081 42.4922 11.5127 42.5794 11.5081C42.7182 11.4997 42.7835 11.5496 42.7827 11.7018C42.7781 12.5148 42.7789 13.3285 42.7827 14.1415C42.7827 14.2929 42.7129 14.3429 42.5756 14.3344C42.5005 14.3298 42.4254 14.3344 42.3503 14.3344C39.3531 14.3344 36.3567 14.3344 33.3595 14.3344C33.3215 14.3344 33.2844 14.3344 33.2464 14.3344C32.9203 14.3298 32.9142 14.3298 32.9172 13.9994C32.9263 13.1871 32.8891 12.3741 32.9377 11.5619V11.5611Z" fill="#FD7A0F"/>
<path d="M21.024 17.6018C20.053 18.0982 19.082 18.5962 18.1102 19.0903C16.0871 20.1184 14.0631 21.1451 12.0385 22.1702C11.8936 22.2432 11.7578 22.3384 11.5947 22.37C11.5734 22.1194 11.6736 21.8958 11.7563 21.6722C12.6135 19.3554 14.2718 17.9645 16.6257 17.4128C17.976 17.0962 19.3323 17.1215 20.6796 17.4673C20.8002 17.4981 20.9246 17.518 21.0247 17.6018H21.024Z" fill="#22305F"/>
<path d="M0.225165 28.1547C1.22651 27.6499 2.22785 27.1442 3.2307 26.6402C3.35284 26.5787 3.47876 26.5257 3.60317 26.4688C3.60924 26.5318 3.61986 26.5948 3.61986 26.6578C3.62062 28.2815 3.62138 29.9045 3.61986 31.5282C3.61986 31.8294 3.61531 31.8356 3.34601 31.8363C2.3826 31.8394 1.41843 31.8356 0.455018 31.8394C0.294197 31.8394 0.20089 31.8179 0.203166 31.6158C0.21682 30.4624 0.218338 29.3082 0.224406 28.1547H0.225165Z" fill="#FD7A0F"/>
<path d="M10.3993 23.037C10.0268 23.1522 9.70516 23.3774 9.35242 23.5349C9.17036 23.6164 9.00802 23.7401 8.80699 23.7785C8.80168 23.3466 8.79258 22.9148 8.79182 22.4829C8.7903 20.9445 8.79182 19.4069 8.79106 17.8685C8.79106 17.4281 8.77817 17.4881 9.1825 17.4873C10.1103 17.4858 11.0388 17.485 11.9665 17.4873C12.2502 17.4873 12.2502 17.4927 12.2563 17.7832C12.2563 17.7962 12.2563 17.8085 12.2563 17.8216C12.3003 18.4286 12.2889 19.018 11.7617 19.4461C11.0593 20.4496 10.6602 21.5746 10.4638 22.7803C10.4493 22.8671 10.4531 22.9593 10.3985 23.0354L10.3993 23.037Z" fill="#22305F"/>
<path d="M38.8582 8.58805C39.9999 8.00711 41.1408 7.42541 42.2817 6.84447C42.3318 7.36239 42.29 7.88109 42.3052 8.39901C42.309 8.53656 42.2665 8.61187 42.1156 8.61033C41.0293 8.5965 39.943 8.63646 38.8574 8.58805H38.8582Z" fill="#FD7A0F"/>
</g>
<defs>
<clipPath id="clip0_687_3453">
<rect width="43" height="32" fill="white"/>
</clipPath>
</defs>
</svg>
