<svg width="308" height="309" viewBox="0 0 308 309" fill="none" xmlns="http://www.w3.org/2000/svg">
<g clip-path="url(#clip0_1041_2)">
<path d="M200.72 297.18C191.06 301.12 173.9 304.79 166.37 306C160.738 306.907 155.064 307.524 149.37 307.85C147.8 307.95 146.23 308.01 144.66 308.06C142.74 308.12 140.81 308.14 138.88 308.12C135.02 308.12 105.97 305.66 90.6498 301.21C75.3298 296.76 0.199815 268.97 -0.0501854 219.66C-0.170185 195.4 17.8498 167.6 39.5098 161.88C57.6498 157.09 68.9998 170.26 83.0598 161.44C96.6598 152.9 97.8898 133.12 110.34 130.79C111.64 130.54 118.02 129.58 125.85 128.79C128.02 128.58 130.2 128.41 132.37 128.27C147.333 127.281 162.352 127.552 177.27 129.08C180.63 129.42 183.97 129.82 187.27 130.29C196.89 131.69 201.71 132.27 202.89 132.97C212.83 138.89 197.24 166.16 206.22 177.44C218.83 193.27 264.71 158.61 290.67 176.69C308.99 189.45 312.52 225.12 299.56 237.88C288.48 248.78 274.02 234.42 252 244.1C224.89 256.04 230.39 285.07 200.72 297.18Z" fill="#292B42"/>
<path d="M112.14 52.28C115.91 42.85 114.74 36.57 113.65 33.28C112.94 31.17 112.13 29.56 106.81 21.7C103.19 16.35 100.33 12.04 98.5897 9.39999C93.0097 21.96 93.7397 35.47 101.03 44.4C104.003 47.9287 107.826 50.6408 112.14 52.28Z" fill="#2C315C"/>
<path d="M113.539 68C116.179 71.88 118.539 75.08 120.359 77.48C123.129 81.12 124.239 82.35 126.069 83.37C129.149 85.07 133.849 85.94 135.179 84.14C136.689 82.14 133.509 77.0299 130.769 74.2399C125.219 68.5699 117.319 67.98 113.539 68Z" fill="black"/>
<path d="M165.691 15.85C177.511 18.4 187.181 27.26 190.861 35.85C192.45 39.7897 193.37 43.9672 193.581 48.21C193.783 51.2127 193.396 54.2258 192.441 57.08C191.441 59.84 190.851 59.65 189.341 62.91C186.781 68.45 187.882 70.28 185.651 74.09C184.191 76.58 182.371 77.9 179.891 79.7C176.377 82.1161 172.433 83.8371 168.271 84.77C164.443 85.9342 160.464 86.5306 156.461 86.54C155.971 86.54 145.672 86.35 137.462 81.34C125.462 74.06 115.751 55.34 122.831 37.41C129.911 19.48 149.891 12.45 165.691 15.85Z" fill="black"/>
<path d="M141.892 78.82C142.202 79.75 145.672 90.69 141.282 98.88C139.879 101.492 138.012 103.827 135.772 105.77C134.394 106.94 132.911 107.981 131.342 108.88C128.442 110.69 127.272 110.94 126.572 112.35C123.502 118.51 134.572 136.21 149.952 138.94C169.592 142.42 188.572 120.12 185.952 113.88C184.772 111.05 179.112 112.88 173.952 108.3C169.432 104.21 168.332 97.81 168.262 92.4L141.892 78.82Z" fill="#FF7D7A"/>
<path d="M141.23 98.88C144.297 100.96 147.626 102.625 151.13 103.83C157.718 106.051 164.744 106.644 171.61 105.56C171.241 105.005 170.907 104.427 170.61 103.83C170.046 102.661 169.636 101.424 169.39 100.15L141.89 78.82C143.375 82.8017 143.889 87.0799 143.39 91.3C143.058 93.9214 142.33 96.4771 141.23 98.88Z" fill="#FF6759"/>
<path d="M137.631 29.03C131.041 35.36 129.561 43.26 128.491 49.03C127.791 52.75 123.491 75.7 139.211 90.72C141.381 92.79 152.421 103.34 164.211 100.72C182.081 96.81 187.741 65.72 186.131 46.8C185.491 39.37 184.751 31.95 179.061 26.49C168.961 16.88 148.601 18.49 137.631 29.03Z" fill="#FF7D7A"/>
<path d="M98.4606 55.96C102.141 47.96 106.931 44.16 109.191 42.61C111.627 41.0002 114.204 39.6145 116.891 38.47C119.234 37.388 121.671 36.521 124.171 35.88C125.681 35.55 127.861 35.03 130.441 34.2C137.711 31.87 141.351 30.7 143.681 27.66C147.191 23.07 146.321 15.66 143.331 10.66C141.92 8.23697 139.93 6.20203 137.538 4.7377C135.147 3.27337 132.43 2.42544 129.631 2.26999C124.381 2.15999 120.561 5.09999 115.371 9.08999C110.501 12.83 110.161 14.58 106.081 17.68C101.754 20.9009 96.7681 23.1242 91.4806 24.19C89.0406 29.6 86.6506 35.39 84.3906 41.55C83.3306 44.47 82.3306 47.33 81.3906 50.15L98.4606 55.96Z" fill="#FF7D7A"/>
<path d="M116.4 38.77C114.652 39.2138 112.971 39.8863 111.4 40.77C109.422 41.8923 107.647 43.3391 106.15 45.05C103.592 42.0112 101.237 38.8076 99.0995 35.46C96.7082 31.7223 94.5926 27.8153 92.7695 23.77C94.0795 23.24 95.4295 22.77 96.8295 22.21C98.4095 21.63 99.9495 21.0967 101.45 20.61C102.797 24.135 104.675 27.4331 107.02 30.39C109.64 33.7027 112.814 36.5377 116.4 38.77Z" fill="#FF6759"/>
<path d="M246.47 211.95C242.151 192.771 236.874 173.821 230.66 155.17C230.66 155.17 216.89 115.77 202.59 111.5C200.623 110.929 198.618 110.498 196.59 110.21C193.02 109.75 190.87 110.21 186.46 110.13L177.4 110.02C175.084 114.626 171.346 118.364 166.74 120.68C165.88 121.1 155.58 125.94 145.26 120.24C139.878 117.161 135.897 112.119 134.15 106.17C131.85 105.97 128.59 105.67 124.68 105.24C117.42 104.45 113.8 103.92 110.77 102.71C106.48 100.99 103.91 98.14 98.7697 92.5C91.4597 84.5 87.4797 80.15 88.3997 75.5C89.0097 72.37 91.3997 71.18 96.9897 66.61C102.371 62.2211 107.421 57.4414 112.1 52.31C108.261 46.1066 105.179 39.466 102.92 32.53C100.471 25.0478 99.002 17.2798 98.5497 9.42001C87.4114 15.8831 77.3001 23.9721 68.5497 33.42C55.2997 47.76 44.1397 60.35 43.0597 76.42C41.8397 94.77 58.2297 112.9 87.5097 147.24C92.2345 152.547 95.7037 158.849 97.6597 165.68C98.7446 169.664 99.2663 173.781 99.2097 177.91C99.6964 185.417 100.183 192.933 100.67 200.46L195.03 195.46C190.54 208.15 194.16 213.89 195.21 215.35C202.78 225.83 226.38 220.85 238.94 215.67C241.529 214.596 244.044 213.354 246.47 211.95Z" fill="#5761B7"/>
<path d="M203.788 176.33C203.388 179.09 202.948 182.33 202.518 185.93C202.338 187.43 202.158 189.02 201.988 190.67C201.862 191.843 201.742 193.053 201.628 194.3C201.288 197.93 200.978 201.85 200.728 206.02C200.658 207.11 200.598 208.21 200.548 209.34C200.478 210.69 200.408 212.08 200.358 213.48C200.358 214.4 200.288 215.33 200.258 216.28V217.28C200.258 217.99 200.258 218.63 200.258 219.28C200.178 223.28 200.258 227.18 200.508 247.59C200.928 282.67 200.898 289.71 200.808 295.88C200.808 296.3 200.808 296.72 200.808 297.15C189.651 301.129 178.153 304.082 166.458 305.97C160.827 306.877 155.153 307.494 149.458 307.82L149.368 294.7L145.018 287.7L144.748 307.98C142.828 308.04 140.898 308.06 138.968 308.04C122.66 307.834 106.448 305.512 90.7383 301.13C90.9183 285.33 91.7383 272.13 92.6283 262.06C93.7183 249.42 94.7883 242.53 96.2883 225.65C96.5416 222.79 96.7749 220.01 96.9883 217.31C98.2983 200.86 98.9883 187.31 99.2983 177.78C100.688 178.11 102.108 178.43 103.568 178.78L104.388 178.96C107.278 179.59 110.308 180.19 113.458 180.76C120.758 182.08 128.698 183.18 137.058 183.85C142.648 184.3 148.428 184.55 154.328 184.53C163.102 184.582 171.865 183.879 180.518 182.43C181.292 182.297 182.052 182.157 182.798 182.01C186.628 181.28 190.178 180.44 193.408 179.57L195.848 178.88C198.778 178.04 201.448 177.16 203.788 176.33Z" fill="#FFA200"/>
<path d="M113.421 180.77C112.121 168.93 111.131 156.22 110.661 142.7C110.161 128.49 110.281 115.12 110.821 102.7C111.021 102.51 114.521 99.28 119.101 100.49C120.32 100.839 121.452 101.441 122.422 102.258C123.393 103.075 124.179 104.088 124.731 105.23C124.879 131.92 129.025 158.438 137.031 183.9C133.84 185.581 130.265 186.398 126.661 186.27C121.742 186.031 117.061 184.086 113.421 180.77Z" fill="#FFA200"/>
<path d="M182.762 182.04C185.554 173.311 187.323 164.287 188.032 155.15C189.175 139.935 187.404 124.641 182.812 110.09C184.482 109.043 186.393 108.444 188.362 108.35C190.858 108.272 193.313 109.002 195.362 110.43C198.501 117.336 200.93 124.543 202.612 131.94C205.893 146.519 206.28 161.601 203.752 176.33C201.226 177.971 198.5 179.281 195.642 180.23C191.494 181.612 187.129 182.225 182.762 182.04Z" fill="#FFA200"/>
<path d="M130.27 224.18L178.89 219.44L178.32 196.09L131.69 195.69C131.21 205.15 130.736 214.647 130.27 224.18Z" fill="#BF7A00"/>
<path d="M132.329 222.14L180.509 219.35L179.899 194.43L131.629 193.77L132.329 222.14Z" fill="#FFB533"/>
<path d="M189.428 263.43C185.311 268.486 181.609 273.867 178.358 279.52C172.198 290.27 170.788 296.72 166.358 306C160.727 306.907 155.053 307.524 149.358 307.85L149.268 294.73L144.918 287.73L144.648 308.01C142.728 308.07 140.798 308.09 138.868 308.07C137.688 304.94 136.688 303.17 135.868 302.33C135.868 302.33 135.728 302.2 135.568 302.03C133.499 299.94 131.539 297.744 129.698 295.45C128.858 294.45 127.978 293.23 127.018 291.83C122.908 285.76 121.578 281.49 119.738 277.64C117.138 272.17 112.188 264.78 101.828 257.38C112.658 259.552 123.055 263.499 132.598 269.06C139.598 273.2 145.518 277.96 154.278 277.61C156.188 277.53 158.588 277.19 167.388 273.61C174.907 270.603 182.264 267.205 189.428 263.43Z" fill="#BF7A00"/>
<path d="M137.46 63.91C140.94 61.75 151.46 69.49 150.46 72.53C149.68 74.98 140.66 76.88 137.34 71.99C135.56 69.4 135.56 65.1 137.46 63.91Z" fill="#F67057"/>
<path d="M184.168 66.19C181.168 64.02 172.708 68.99 173.078 72.24C173.268 73.81 175.448 74.66 175.918 74.84C178.618 75.9 181.988 74.84 184.398 72.16C184.668 70.71 184.948 69.26 185.218 67.8C185.054 67.1627 184.685 66.597 184.168 66.19Z" fill="#F67057"/>
<path d="M169.731 51.45C169.531 49.79 175.731 45.98 181.081 48.19C183.331 49.12 186.081 51.38 185.571 52.66C184.601 55.32 170.021 53.88 169.731 51.45Z" fill="black"/>
<path d="M157.809 54.52C157.489 57.23 140.629 58.8 139.809 56.2C139.359 54.75 143.739 51.28 148.589 50.91C153.209 50.57 157.989 53.02 157.809 54.52Z" fill="black"/>
<path d="M156.57 65.04C154.472 62.4262 151.606 60.5373 148.376 59.6402C145.146 58.7431 141.716 58.8829 138.57 60.04C144.679 61.2859 150.694 62.9566 156.57 65.04Z" fill="black"/>
<path d="M185.4 59.9899C181.03 58.0499 175.69 59.1299 171.94 61.9299C170.663 62.8654 169.6 64.0619 168.82 65.44C170.3 64.87 171.63 64.26 172.97 63.73C177.003 62.1406 181.16 60.8896 185.4 59.9899Z" fill="black"/>
<path d="M163.182 64.77L166.452 80.26C165.352 80.44 162.892 80.66 161.312 79.17C159.312 77.26 160.012 73.72 160.562 71.09C161.036 68.8393 161.925 66.6963 163.182 64.77Z" fill="#FF6759"/>
<path d="M178.279 60.61C178.959 63.86 177.029 66.36 175.369 66.48C173.929 66.58 172.059 64.91 171.609 62.3L178.279 60.61Z" fill="black"/>
<path d="M151.339 62.26C151.119 64.88 149.589 66.76 148.229 66.85C146.649 66.94 144.449 64.69 144.619 61.23L151.339 62.26Z" fill="black"/>
<path d="M170.949 87.63C169.319 87.1945 167.637 86.9792 165.949 86.99C163.908 86.9898 161.88 87.3277 159.949 87.99C160.677 87.0805 161.605 86.3523 162.662 85.863C163.719 85.3736 164.875 85.1364 166.039 85.17C167.935 85.3166 169.697 86.1996 170.949 87.63Z" fill="#FF6759"/>
<path d="M130.762 18.3C132.762 11.86 148.702 8.68 162.582 10.95C164.582 11.28 192.412 16.11 196.582 34.13C198.182 41.02 196.582 50.03 191.852 52.13C187.852 53.97 185.372 49.13 176.442 47.59C165.502 45.73 162.442 51.89 152.732 49.32C145.412 47.38 140.842 42.21 139.482 43.56C138.592 44.45 140.772 46.48 140.922 51.09C140.922 52.21 140.852 52.99 138.672 60.87C137.262 65.96 136.932 66.96 136.262 67.03C134.372 67.24 133.172 59.44 129.482 59.2C128.875 59.1705 128.273 59.3314 127.762 59.66C123.922 62.26 130.682 74.45 127.762 76.66C124.842 78.87 111.762 70.37 111.322 61.93C111.284 60.3169 111.442 58.7052 111.792 57.13C112.992 52.75 116.152 50.91 117.662 40.05C118.372 34.95 118.352 30.5 121.662 28.11C124.012 26.42 126.532 26.99 128.572 24.45C130.472 22.18 130.282 19.87 130.762 18.3Z" fill="black"/>
<path d="M129.89 57.58C129.74 57.58 126.95 56.63 124.89 57.95C121.56 60.12 122.1 66.95 124.54 71.32C125.18 72.47 127.34 76.32 130.39 76.14C133.1 75.99 134.74 72.8 135.05 72.14C137.62 66.88 133.86 61.14 133.61 60.8C132.772 59.3349 131.46 58.199 129.89 57.58Z" fill="#FF7D7A"/>
<path d="M130.629 62.61C129.109 61.24 127.309 60.4299 126.259 60.9899C124.909 61.7099 124.439 64.85 126.329 68.38C125.439 65.7 126.329 63.23 127.939 62.51C128.372 62.3488 128.832 62.2747 129.294 62.2918C129.755 62.309 130.209 62.4171 130.629 62.61Z" fill="#FF6759"/>
<path d="M169.891 18.36C181.641 20.15 190.641 26.97 192.551 35.64C193.202 38.7561 193.016 41.9894 192.011 45.01C191.374 39.4844 189.306 34.2207 186.011 29.74C181.96 24.3536 176.322 20.3735 169.891 18.36Z" fill="#4D4D4D"/>
<path d="M117.669 40.1C117.139 37.21 115.299 25.28 122.669 15.23C128.089 7.80999 135.569 5.45999 141.849 3.47999C149.209 1.16999 163.979 -3.52001 177.569 4.41999C189.739 11.5 196.699 26.18 196.199 42.04L117.669 40.1Z" fill="#7481F4"/>
<path d="M128.59 40.4C130.71 43.98 134.47 48.96 140.75 51.6C151.85 56.26 159.87 48.97 177.44 48.03C198.36 46.92 211.54 55.95 213.53 52.71C214.59 50.98 212.12 46.4 195.6 33.53C184.833 28.3761 172.857 26.2798 160.98 27.47C149.179 28.635 137.949 33.1179 128.59 40.4Z" fill="#5761B7"/>
<path d="M142.671 0.460011C145.291 -0.479989 148.601 0.910015 148.611 1.84002C148.621 2.77002 145.721 3.36998 143.291 3.92998C141.221 4.39998 139.901 4.70001 139.551 4.21001C139.041 3.50001 140.511 1.23001 142.671 0.460011Z" fill="#5761B7"/>
<path d="M165.301 17.93H165.701L167.701 17.98C167.941 17.98 167.951 17.98 168.041 18.14L169.861 21.14L170.661 22.47C170.683 22.5212 170.722 22.5634 170.771 22.59C170.771 22.59 170.771 22.54 170.771 22.5C170.931 21.16 171.101 19.81 171.261 18.5C171.272 18.3936 171.272 18.2864 171.261 18.18C171.261 18.1 171.331 18.08 171.451 18.08L173.381 18.13C173.481 18.13 173.541 18.13 173.581 18.23C173.811 18.6 174.051 18.96 174.281 19.32C174.948 20.42 175.648 21.51 176.381 22.59C176.381 22.59 176.381 22.64 176.471 22.66C176.561 22.68 176.471 22.45 176.471 22.34C176.551 21.26 176.621 20.18 176.691 19.11L176.751 18.32C176.751 18.25 176.751 18.2 176.901 18.21L179.261 18.27H179.351C179.382 18.4285 179.382 18.5914 179.351 18.75C179.121 20.31 178.881 21.87 178.641 23.44C178.571 23.93 178.481 24.44 178.421 24.9C178.421 25 178.351 25.03 178.221 25.03H176.221C176.166 25.0389 176.108 25.0314 176.057 25.0083C176.005 24.9852 175.962 24.9475 175.931 24.9C175.371 24.07 174.791 23.25 174.211 22.42L173.211 20.98C173.198 20.9511 173.179 20.9254 173.154 20.9046C173.13 20.8839 173.102 20.8687 173.071 20.86C173.061 20.9129 173.061 20.9671 173.071 21.02L172.411 24.88C172.411 25.06 172.411 25.06 172.111 25.06H170.181C169.921 25.06 169.941 25.06 169.861 24.92C169.531 24.45 169.201 23.97 168.861 23.5C168.84 23.4599 168.829 23.4152 168.829 23.37C168.829 23.3247 168.84 23.2801 168.861 23.24C169 22.8109 169.034 22.355 168.961 21.91C168.824 21.1116 168.479 20.3633 167.961 19.74C167.377 19.0865 166.666 18.559 165.871 18.19L165.281 17.91L165.301 17.93Z" fill="#FD7A0F"/>
<path d="M168.208 13.77L171.038 16.5H170.638H168.508C168.356 16.5015 168.209 16.4442 168.098 16.34L166.508 14.8C166.278 14.58 166.048 14.36 165.828 14.13C165.785 14.0835 165.732 14.047 165.674 14.0228C165.615 13.9986 165.552 13.9874 165.488 13.99C165.198 13.99 164.908 13.99 164.628 13.99C164.348 13.99 164.368 13.99 164.418 14.16C164.548 14.67 164.678 15.16 164.818 15.67L164.978 16.28C164.978 16.42 164.978 16.42 164.818 16.42L162.578 16.35C162.418 16.35 162.348 16.35 162.338 16.22C162.343 16.1802 162.343 16.1399 162.338 16.1L160.548 9.36002V9.30002C160.498 9.09002 160.498 9.10998 160.788 9.12998C162.278 9.20998 163.788 9.27998 165.208 9.37998C166.146 9.42036 167.063 9.66256 167.898 10.09C168.507 10.386 169.005 10.8698 169.318 11.47C169.507 11.8115 169.587 12.202 169.548 12.59C169.497 12.8869 169.359 13.1617 169.15 13.3791C168.942 13.5965 168.673 13.7465 168.378 13.81H168.268L168.208 13.77ZM163.748 11.55C163.828 11.83 163.898 12.11 163.968 12.39C163.968 12.45 163.968 12.51 164.148 12.51C164.718 12.5398 165.289 12.5398 165.858 12.51C166.438 12.51 166.858 12.27 166.858 11.93C166.863 11.7237 166.804 11.5212 166.688 11.35C166.576 11.183 166.425 11.0457 166.248 10.95C165.96 10.7936 165.644 10.6919 165.318 10.65C164.788 10.57 164.268 10.58 163.738 10.55C163.528 10.55 163.528 10.55 163.568 10.69L163.778 11.51L163.748 11.55Z" fill="white"/>
<path d="M155.271 12.42L156.191 15.87V16.01C156.191 16.09 156.191 16.11 156.061 16.11L153.541 16.03C153.421 16.03 153.371 16.03 153.351 15.92C153.331 15.81 153.271 15.63 153.231 15.48L152.631 13.19C152.631 13.04 152.631 13.04 152.341 13.03L148.141 12.86C147.881 12.86 147.881 12.86 147.931 13.02L148.621 15.64C148.617 15.6799 148.617 15.7201 148.621 15.76C148.621 15.86 148.621 15.9 148.431 15.89H147.351H145.871C145.701 15.89 145.621 15.89 145.611 15.74V15.62L143.691 8.44V8.36004C143.691 8.18004 143.691 8.18 143.941 8.19L146.391 8.33002C146.671 8.33002 146.671 8.33003 146.721 8.53003C146.961 9.41003 147.191 10.29 147.421 11.17C147.427 11.2165 147.427 11.2635 147.421 11.31C147.421 11.37 147.481 11.4 147.581 11.4H147.741L151.891 11.58C152.181 11.58 152.161 11.58 152.111 11.42L151.431 8.86999V8.75C151.431 8.61 151.431 8.59999 151.621 8.61999L153.691 8.73004H154.091C154.211 8.73004 154.271 8.73004 154.281 8.85004V8.98004L155.201 12.46L155.271 12.42Z" fill="white"/>
<path d="M163.54 17.95C164.17 18.0628 164.782 18.2578 165.36 18.53C166.349 18.9309 167.188 19.63 167.76 20.53C168.131 21.1291 168.312 21.8262 168.28 22.53C168.2 23.66 167.42 24.47 165.9 24.9C164.334 25.316 162.686 25.316 161.12 24.9C160.296 24.7583 159.511 24.4401 158.821 23.9672C158.13 23.4943 157.55 22.8778 157.12 22.16C156.814 21.6111 156.665 20.9882 156.69 20.36C156.69 20.36 156.69 20.29 156.69 20.25C156.805 20.2349 156.916 20.2011 157.02 20.15L161.47 18.66L163.54 17.95ZM159.84 21.48C159.904 21.6939 159.988 21.9015 160.09 22.1C160.37 22.561 160.763 22.9427 161.232 23.2088C161.702 23.4748 162.231 23.6164 162.77 23.62C164.07 23.73 165.23 23.42 165.39 22.36C165.43 22.1553 165.43 21.9447 165.39 21.74C165.305 21.1983 165.061 20.694 164.69 20.29C164.158 19.7375 163.452 19.3844 162.69 19.29C162.394 19.2653 162.096 19.2653 161.8 19.29C160.73 19.29 160.08 19.68 159.87 20.29C159.747 20.6703 159.747 21.0797 159.87 21.46L159.84 21.48Z" fill="#FD7A0F"/>
<path d="M175.508 13.94C175.048 13.94 174.568 13.94 174.088 13.94H173.888C173.778 13.94 173.758 13.94 173.778 14.04C173.798 14.14 173.858 14.37 173.898 14.54L173.638 14.63L171.638 15.28C171.614 15.2182 171.594 15.1547 171.578 15.09L170.198 9.86C170.138 9.64 170.108 9.65999 170.428 9.66999L176.858 10.03H177.038C177.108 10.03 177.138 10.03 177.148 10.1C177.153 10.1399 177.153 10.1801 177.148 10.22L177.388 11.16C177.448 11.39 177.488 11.37 177.168 11.35L174.298 11.21L173.158 11.15C172.948 11.15 172.948 11.15 172.978 11.28L173.278 12.4C173.278 12.53 173.278 12.53 173.518 12.54L176.668 12.69H177.318C177.438 12.69 177.498 12.6899 177.508 12.8099C177.548 12.9477 177.578 13.0881 177.598 13.23L175.438 13.96L175.508 13.94Z" fill="white"/>
<path d="M156.998 12.46L156.108 9.09001V8.98997C156.108 8.78997 156.038 8.79999 156.358 8.81999L158.568 8.93998C158.828 8.93998 158.828 8.93998 158.868 9.12998L159.868 13.07L160.638 15.99C160.634 16.0365 160.634 16.0834 160.638 16.13C160.638 16.21 160.638 16.24 160.498 16.24H159.498H158.238C157.968 16.24 157.968 16.24 157.928 16.06C157.668 15.06 157.418 14.14 157.158 13.18L156.988 12.53L156.998 12.46Z" fill="white"/>
<path d="M147.888 23.22C147.859 23.1556 147.836 23.0886 147.818 23.02C147.352 21.26 146.878 19.4933 146.398 17.72C146.398 17.55 146.398 17.55 146.648 17.55C147.298 17.55 147.958 17.55 148.648 17.55C148.847 17.5438 149.042 17.6075 149.198 17.73L151.338 19.34L153.568 21.02C153.665 21.0853 153.755 21.1589 153.838 21.2399L151.838 21.92L150.538 20.98C150.458 20.9019 150.363 20.8407 150.258 20.8C150.388 21.33 150.518 21.8 150.638 22.34C150.54 22.364 150.443 22.394 150.348 22.4299L147.958 23.23L147.888 23.22Z" fill="white"/>
<path d="M151.769 21.92L153.769 21.24C154.129 21.46 154.399 21.74 154.769 21.99L154.519 20.99C154.662 20.9587 154.803 20.9152 154.939 20.86C155.209 20.78 155.439 20.67 155.729 20.61L155.789 20.99C155.868 21.5689 156.084 22.1208 156.419 22.6C156.583 22.8574 156.767 23.1015 156.969 23.33C157.295 23.6761 157.665 23.9787 158.069 24.23C158.165 24.2869 158.239 24.3751 158.279 24.48C158.319 24.6733 158.369 24.8634 158.429 25.05C158.429 25.15 158.429 25.17 158.259 25.18H156.259C156.139 25.1849 156.022 25.1458 155.929 25.07C155.139 24.48 154.339 23.9 153.549 23.3L151.719 21.94L151.769 21.92Z" fill="#FD7A0F"/>
<path d="M171.672 15.22L173.672 14.57L173.932 14.48C173.992 14.7 174.052 14.91 174.122 15.13C174.192 15.35 174.122 15.27 174.382 15.28L178.312 15.42H178.492C178.592 15.42 178.642 15.42 178.662 15.52C178.752 15.9 178.862 16.29 178.962 16.67C178.962 16.7433 178.922 16.7733 178.842 16.76H178.692L172.372 16.58H172.292C172.052 16.58 172.052 16.58 172.012 16.41C171.912 16.02 171.782 15.62 171.712 15.23L171.672 15.22Z" fill="#FD7A0F"/>
<path d="M163.54 17.95L161.47 18.66L157.02 20.15C156.916 20.2011 156.804 20.2349 156.69 20.25C156.645 20.1341 156.645 20.0058 156.69 19.89C157.07 18.71 158.22 18.02 160.03 17.78C161.092 17.6444 162.168 17.6781 163.22 17.88C163.315 17.8927 163.409 17.9161 163.5 17.95H163.54Z" fill="white"/>
<path d="M147.892 23.22L150.282 22.43C150.376 22.394 150.473 22.364 150.572 22.34C150.577 22.3731 150.577 22.4069 150.572 22.44L151.262 25.02C151.262 25.18 151.262 25.18 151.072 25.18H148.572C148.432 25.18 148.352 25.18 148.322 25.06C148.172 24.44 148.012 23.82 147.852 23.2L147.892 23.22Z" fill="#FD7A0F"/>
<path d="M155.799 20.58C155.509 20.64 155.279 20.76 155.009 20.83C154.873 20.8852 154.732 20.9287 154.589 20.96C154.519 20.73 154.449 20.51 154.389 20.28C154.179 19.48 153.969 18.67 153.749 17.87C153.689 17.64 153.689 17.67 154.029 17.68L156.319 17.73C156.549 17.73 156.559 17.73 156.599 17.89C156.709 18.2 156.789 18.51 156.409 18.72C156.003 19.1954 155.789 19.8051 155.809 20.43C155.809 20.48 155.809 20.53 155.809 20.56L155.799 20.58Z" fill="white"/>
<path d="M175.512 13.94L177.672 13.21C177.756 13.4525 177.826 13.6996 177.882 13.95C177.882 14.01 177.882 14.04 177.782 14.04C177.022 14.04 176.282 14.04 175.512 13.94Z" fill="#FD7A0F"/>
<path d="M92.4493 87.77L84.5093 76.99C85.356 74.5966 86.1993 72.2033 87.0393 69.81C85.7293 71.67 83.6793 73.89 80.8693 74.2C79.0593 74.39 77.4893 73.74 77.2093 74.27C76.7993 75.03 79.5493 77.27 80.5293 78.03C83.2693 80.27 87.2093 83.46 92.4493 87.77Z" fill="#2C315C"/>
<path d="M148.462 190.77C148.344 191.467 148.365 192.181 148.522 192.87C149.098 194.973 150.43 196.789 152.262 197.97C155.352 200.28 166.492 207.17 181.902 215.9C182.841 216.439 183.851 216.843 184.902 217.1C185.731 217.301 186.579 217.411 187.432 217.43C186.059 214.572 184.382 211.87 182.432 209.37C171.572 195.45 155.232 191.85 148.462 190.77Z" fill="#C6CFE0"/>
<path d="M259.798 206.23L189.408 214.77L184.988 214.9C178.818 211.37 160.038 200.59 152.988 195.61C148.648 192.54 148.328 191.37 148.408 190.91C148.488 190.45 148.978 190.15 149.888 190.07L234.238 183.36C236.448 183.19 240.538 185.14 243.318 187.67L259.038 201.98C261.348 204.14 261.678 206 259.798 206.23Z" fill="#B8C3D8"/>
<path d="M251.549 203.44L189.369 210.62C187.369 210.85 183.219 209.48 180.079 207.5L165.739 198.5C162.189 196.26 161.129 194.24 163.429 194.04L233.709 187.94C235.549 187.78 238.959 189.36 241.299 191.42L250.779 199.81C252.889 201.63 253.199 203.25 251.549 203.44Z" fill="#D4DEF2"/>
<path d="M243.671 201.27L190.671 207.12C188.931 207.31 185.371 206.12 182.671 204.35L176.671 200.46C173.821 198.61 173.001 196.94 174.891 196.77L232.121 191.48C233.691 191.33 236.621 192.64 238.641 194.38L242.891 198.04C244.791 199.67 245.131 201.11 243.671 201.27Z" fill="#B8C3D8"/>
<path d="M278.83 208.77L188.1 217.41C187.708 217.463 187.309 217.433 186.928 217.323C186.547 217.213 186.194 217.024 185.89 216.77C185.366 216.298 185.04 215.643 184.98 214.94L200.04 151.38C200.326 150.256 200.94 149.242 201.804 148.467C202.667 147.693 203.742 147.193 204.89 147.03L297.79 142.03C298.28 142.59 298.79 143.16 299.24 143.72L283.42 204.62C283.124 205.674 282.536 206.623 281.724 207.357C280.912 208.091 279.909 208.581 278.83 208.77Z" fill="#C6CFE0"/>
<path d="M281.028 208.59L187.768 217.47C187.628 217.493 187.485 217.478 187.352 217.427C187.22 217.376 187.103 217.29 187.015 217.179C186.926 217.068 186.869 216.936 186.848 216.795C186.828 216.655 186.845 216.512 186.898 216.38L201.898 153.38C202.181 152.263 202.787 151.254 203.641 150.48C204.495 149.706 205.559 149.202 206.698 149.03L298.288 142.03C300.288 141.88 301.458 143.52 300.888 145.7L285.618 204.41C285.326 205.469 284.74 206.423 283.927 207.163C283.115 207.903 282.11 208.398 281.028 208.59Z" fill="#B8C3D8"/>
<mask id="mask0_1041_2" style="mask-type:luminance" maskUnits="userSpaceOnUse" x="229" y="166" width="39" height="24">
<path d="M234.259 167.74L267.519 166.81L261.019 188.73L229.059 189.71L234.259 167.74Z" fill="white"/>
</mask>
<g mask="url(#mask0_1041_2)">
<path d="M249.05 179.45H249.44H251.44C251.68 179.45 251.69 179.45 251.68 179.65L251.59 183.73C251.59 184.33 251.59 184.93 251.59 185.53C251.575 185.582 251.575 185.638 251.59 185.69C251.615 185.678 251.638 185.662 251.657 185.641C251.676 185.621 251.691 185.596 251.7 185.57C252.75 183.7 253.8 181.82 254.87 179.93L255.12 179.48C255.141 179.43 255.178 179.389 255.225 179.362C255.272 179.335 255.326 179.324 255.38 179.33L257.38 179.27C257.5 179.27 257.54 179.27 257.54 179.4C257.54 179.91 257.54 180.4 257.54 180.92V185.43C257.536 185.448 257.539 185.468 257.549 185.484C257.558 185.501 257.572 185.513 257.59 185.52C257.7 185.383 257.791 185.232 257.86 185.07L260.34 180.47L260.95 179.33C260.968 179.278 261.002 179.233 261.047 179.201C261.091 179.169 261.145 179.151 261.2 179.15C262.06 179.15 262.92 179.15 263.78 179.08H263.87C263.76 179.329 263.626 179.567 263.47 179.79C262.1 182.06 260.73 184.3 259.37 186.53C258.96 187.22 258.53 187.9 258.13 188.53C258.104 188.587 258.061 188.634 258.008 188.666C257.954 188.698 257.892 188.714 257.83 188.71L255.76 188.77C255.6 188.77 255.55 188.77 255.54 188.6C255.54 187.48 255.45 186.36 255.4 185.23L255.31 183.23C255.31 183.17 255.31 183.1 255.25 183.06C255.19 183.128 255.137 183.202 255.09 183.28L251.89 188.67C251.74 188.91 251.74 188.91 251.47 188.92L249.47 188.98C249.21 188.98 249.24 188.98 249.24 188.8C249.24 188.17 249.18 187.54 249.14 186.91C249.137 186.786 249.18 186.665 249.26 186.57C249.654 186.007 249.974 185.395 250.21 184.75C250.557 183.815 250.67 182.809 250.54 181.82C250.409 181.044 250.013 180.337 249.42 179.82L249 179.48L249.05 179.45Z" fill="#FD7A0F"/>
<path d="M254.73 173.42C255.11 174.64 255.5 175.85 255.89 177.1H255.48L253.28 177.17C253.08 177.17 253 177.17 252.96 176.98L252.33 174.92C252.23 174.62 252.14 174.32 252.05 174.02C252.05 173.9 251.96 173.84 251.79 173.85H250.93C250.68 173.85 250.67 173.85 250.61 174.11L250.04 176.2C249.97 176.48 249.89 176.76 249.81 177.04C249.73 177.32 249.76 177.24 249.56 177.25L247.36 177.31C247.21 177.31 247.16 177.31 247.21 177.14C247.26 176.97 247.21 177.04 247.26 176.98L249.74 167.62V167.53C249.82 167.23 249.8 167.27 250.09 167.26C251.57 167.26 253.09 167.16 254.52 167.14C254.947 167.102 255.377 167.149 255.785 167.277C256.193 167.406 256.572 167.614 256.9 167.89C257.143 168.135 257.323 168.434 257.426 168.763C257.528 169.092 257.55 169.441 257.49 169.78C257.424 170.353 257.244 170.907 256.96 171.41C256.501 172.256 255.772 172.924 254.89 173.31L254.75 173.38L254.73 173.42ZM251.56 170.62C251.45 171.02 251.35 171.41 251.24 171.8C251.24 171.9 251.24 171.98 251.34 171.97C251.922 171.971 252.503 171.938 253.08 171.87C253.37 171.834 253.647 171.732 253.89 171.57C254.133 171.409 254.335 171.193 254.48 170.94C254.616 170.684 254.688 170.4 254.69 170.11C254.696 170.013 254.682 169.917 254.649 169.826C254.616 169.735 254.566 169.651 254.5 169.58C254.293 169.371 254.014 169.249 253.72 169.24C253.194 169.205 252.666 169.205 252.14 169.24C251.93 169.24 251.93 169.24 251.87 169.46C251.76 169.85 251.66 170.24 251.56 170.62Z" fill="white"/>
<path d="M242.588 172.56L241.408 177.21C241.386 177.269 241.37 177.329 241.358 177.39C241.355 177.411 241.349 177.431 241.338 177.45C241.328 177.468 241.314 177.485 241.297 177.498C241.28 177.511 241.261 177.52 241.241 177.526C241.22 177.531 241.199 177.533 241.178 177.53L238.848 177.6C238.738 177.6 238.718 177.6 238.738 177.46L238.888 176.88L239.648 173.83C239.698 173.63 239.708 173.63 239.478 173.64L235.688 173.75C235.468 173.75 235.458 173.75 235.408 173.97C235.128 175.12 234.858 176.25 234.578 177.39C234.573 177.443 234.573 177.497 234.578 177.55C234.578 177.68 234.488 177.73 234.338 177.73H233.338H232.048C231.898 177.73 231.848 177.73 231.898 177.55C231.902 177.5 231.902 177.45 231.898 177.4L234.118 168.02V167.91C234.178 167.68 234.178 167.68 234.428 167.67L236.588 167.61C236.838 167.61 236.838 167.61 236.778 167.84C236.498 169.02 236.218 170.2 235.928 171.36C235.933 171.423 235.933 171.487 235.928 171.55C235.928 171.63 235.928 171.67 236.018 171.66H236.168L239.898 171.55C240.168 171.55 240.148 171.55 240.208 171.31L241.068 167.84C241.068 167.84 241.068 167.73 241.118 167.68C241.168 167.63 241.118 167.48 241.368 167.48L243.298 167.42H243.678C243.788 167.42 243.828 167.42 243.798 167.56C243.772 167.621 243.755 167.685 243.748 167.75L242.538 172.5L242.588 172.56Z" fill="white"/>
<path d="M247.278 179.58C247.813 179.673 248.314 179.908 248.728 180.26C249.126 180.575 249.439 180.984 249.642 181.45C249.844 181.916 249.929 182.424 249.888 182.93C249.839 183.851 249.593 184.752 249.168 185.57C248.776 186.336 248.237 187.017 247.581 187.575C246.926 188.133 246.167 188.556 245.348 188.82C243.893 189.394 242.283 189.44 240.798 188.95C240.08 188.736 239.464 188.271 239.064 187.638C238.663 187.006 238.504 186.25 238.618 185.51C238.677 184.696 238.894 183.901 239.258 183.17C239.284 183.118 239.314 183.068 239.348 183.02C239.476 182.988 239.6 182.941 239.718 182.88L244.838 180.66L247.308 179.58H247.278ZM241.558 184.51C241.492 184.773 241.448 185.04 241.428 185.31C241.387 185.548 241.398 185.792 241.462 186.025C241.526 186.258 241.64 186.474 241.796 186.659C241.953 186.843 242.148 186.99 242.367 187.091C242.587 187.191 242.826 187.242 243.068 187.24C243.732 187.31 244.402 187.178 244.99 186.863C245.579 186.547 246.059 186.062 246.368 185.47C246.515 185.206 246.635 184.928 246.728 184.64C246.959 184.025 247.028 183.36 246.928 182.71C246.863 182.378 246.69 182.077 246.437 181.853C246.184 181.629 245.865 181.494 245.528 181.47C245.249 181.435 244.967 181.435 244.688 181.47C244.185 181.51 243.698 181.666 243.266 181.926C242.833 182.186 242.468 182.544 242.198 182.97C241.895 183.445 241.678 183.97 241.558 184.52V184.51Z" fill="#FD7A0F"/>
<path d="M262.567 172.96C262.037 172.96 261.567 172.96 261.017 173.02H260.797C260.677 173.02 260.637 173.02 260.607 173.17C260.577 173.32 260.457 173.66 260.387 173.91L260.037 174.05L257.457 175.16L257.517 174.9C258.23 172.4 258.944 169.877 259.657 167.33C259.747 167.01 259.707 167.03 260.047 167.02L267.047 166.83H267.247C267.317 166.83 267.337 166.83 267.317 166.93C267.322 166.993 267.322 167.057 267.317 167.12L266.897 168.53C266.787 168.88 266.897 168.83 266.497 168.85L263.337 168.93H262.097C261.877 168.93 261.867 168.93 261.817 169.14L261.287 170.77C261.237 170.97 261.237 170.97 261.457 170.97L264.887 170.87H265.607C265.747 170.87 265.787 170.87 265.737 171.03C265.684 171.238 265.617 171.441 265.537 171.64L262.537 172.94L262.567 172.96Z" fill="white"/>
<path d="M244.24 172.47L245.43 167.83V167.7C245.5 167.41 245.43 167.43 245.78 167.42L247.9 167.36C248.16 167.36 248.16 167.36 248.1 167.59C247.62 169.43 247.1 171.25 246.66 173.07L245.66 177.07C245.66 177.13 245.66 177.19 245.66 177.25C245.66 177.31 245.58 177.41 245.45 177.41H244.45H243.25C243 177.41 243 177.41 243.06 177.19C243.39 175.9 243.73 174.6 244.06 173.3L244.29 172.41L244.24 172.47Z" fill="white"/>
<path d="M229.829 187.16C229.841 187.072 229.858 186.986 229.879 186.9C230.399 184.7 230.879 182.48 231.459 180.24V180.19C231.509 179.96 231.509 179.96 231.759 179.96L233.479 179.9C233.557 179.884 233.638 179.895 233.709 179.931C233.78 179.968 233.837 180.027 233.869 180.1C234.199 180.77 234.549 181.42 234.869 182.1C235.189 182.78 235.589 183.48 235.939 184.17C235.999 184.253 236.04 184.349 236.059 184.45L233.869 185.45L233.239 184.29C233.239 184.22 233.239 184.14 233.079 184.07C232.919 184.74 232.749 185.38 232.589 186.07L232.279 186.19L229.789 187.27L229.829 187.16Z" fill="white"/>
<path d="M233.891 185.39L236.081 184.39C236.291 184.66 236.381 185 236.611 185.32C236.741 184.84 236.851 184.41 236.971 183.98C237.125 183.937 237.276 183.88 237.421 183.81C237.704 183.675 237.995 183.555 238.291 183.45C238.241 183.61 238.181 183.77 238.131 183.94C237.893 184.604 237.778 185.305 237.791 186.01C237.795 186.322 237.825 186.633 237.881 186.94C237.974 187.345 238.144 187.728 238.381 188.07C238.412 188.116 238.433 188.169 238.441 188.224C238.45 188.28 238.446 188.336 238.431 188.39C238.352 188.629 238.289 188.873 238.241 189.12C238.241 189.24 238.151 189.28 238.021 189.28L236.171 189.34C236.122 189.347 236.072 189.338 236.029 189.314C235.986 189.291 235.952 189.254 235.931 189.21C235.551 188.48 235.161 187.75 234.771 187.02L233.901 185.34L233.891 185.39Z" fill="#FD7A0F"/>
<path d="M257.457 175.16L260.037 174.05L260.387 173.91L260.127 174.83C260.127 175.04 260.127 175.05 260.307 175.04L264.597 174.91H264.797C264.907 174.91 264.947 174.91 264.917 175.04C264.747 175.6 264.577 176.16 264.417 176.72C264.407 176.764 264.382 176.803 264.344 176.829C264.307 176.855 264.262 176.866 264.217 176.86H264.047L257.237 177.06H257.157C256.907 177.06 256.897 177.06 256.967 176.83C257.137 176.27 257.267 175.71 257.457 175.15V175.16Z" fill="#FD7A0F"/>
<path d="M247.28 179.58L244.81 180.66L239.69 182.88C239.573 182.941 239.449 182.988 239.32 183.02C239.37 182.85 239.451 182.69 239.56 182.55C240.063 181.781 240.713 181.12 241.474 180.605C242.234 180.089 243.09 179.731 243.99 179.55C244.994 179.306 246.038 179.286 247.05 179.49C247.134 179.498 247.213 179.53 247.28 179.58Z" fill="white"/>
<path d="M229.829 187.16L232.319 186.08L232.629 185.96C232.634 186 232.634 186.04 232.629 186.08L231.849 189.32C231.849 189.51 231.849 189.52 231.599 189.52L229.439 189.59C229.319 189.59 229.259 189.59 229.289 189.45C229.479 188.69 229.659 187.92 229.849 187.16H229.829Z" fill="#FD7A0F"/>
<path d="M238.308 183.5C238.008 183.59 237.728 183.75 237.438 183.86C237.294 183.933 237.143 183.993 236.988 184.04C237.048 183.74 237.118 183.45 237.188 183.16L237.968 180.03C238.048 179.73 238.028 179.77 238.328 179.76L240.438 179.7C240.658 179.7 240.658 179.7 240.608 179.9C240.589 180.124 240.519 180.341 240.405 180.535C240.291 180.728 240.135 180.894 239.948 181.02C239.289 181.676 238.762 182.454 238.398 183.31C238.38 183.372 238.35 183.43 238.308 183.48V183.5Z" fill="white"/>
<path d="M262.57 172.96L265.57 171.66C265.5 172.03 265.36 172.39 265.26 172.75C265.259 172.772 265.253 172.793 265.244 172.813C265.234 172.833 265.22 172.85 265.203 172.864C265.186 172.878 265.166 172.889 265.145 172.895C265.124 172.901 265.102 172.903 265.08 172.9C264.25 172.9 263.41 172.97 262.6 172.96H262.57Z" fill="#FD7A0F"/>
</g>
<path opacity="0.3" d="M297.599 142.13L218.539 214.54L281.029 208.59C282.01 208.45 282.931 208.03 283.679 207.38C284.598 206.585 285.271 205.544 285.619 204.38C290.759 184.64 295.849 165.083 300.889 145.71C301.035 145.242 301.076 144.747 301.008 144.261C300.941 143.776 300.767 143.311 300.499 142.9C300.157 142.484 299.693 142.186 299.173 142.048C298.653 141.91 298.102 141.938 297.599 142.13Z" fill="#8A92A2"/>
<path d="M264.251 214.89C265.251 214.61 265.401 214.15 266.471 214.06C267.851 213.94 268.211 214.63 269.591 214.5C270.971 214.37 270.761 213.81 272.031 213.67C273.571 213.5 273.901 214.32 275.311 214.06C276.191 213.89 276.081 213.56 277.471 213.11C278.861 212.66 278.971 212.92 279.751 212.56C280.555 212.156 281.23 211.536 281.701 210.77C282.407 209.633 282.816 208.336 282.891 207C283.081 204.697 282.739 202.38 281.891 200.23C281.444 198.748 280.675 197.382 279.641 196.23L279.531 196.11C278.531 195.11 276.461 193.6 275.361 194.29C274.641 194.73 274.661 195.92 274.671 196.15C274.671 198.26 277.021 199.4 277.121 199.45C276.761 198.86 276.191 197.9 275.491 196.69C275.068 195.853 274.529 195.078 273.891 194.39C272.951 193.45 271.031 192.28 269.761 193.03C269.453 193.234 269.197 193.506 269.011 193.825C268.826 194.144 268.716 194.502 268.691 194.87C268.707 195.393 268.819 195.908 269.021 196.39C269.221 197.08 269.401 197.66 269.531 198.06C269.512 197.04 269.269 196.037 268.821 195.12C268.511 194.424 268.058 193.8 267.491 193.29C267.031 192.89 265.771 191.8 264.441 192.15C263.111 192.5 262.191 194.51 262.441 196.01C262.496 196.638 262.76 197.23 263.191 197.69C263.244 196.746 262.953 195.815 262.371 195.07C261.716 194.165 260.764 193.517 259.681 193.24C259.421 193.18 257.051 192.6 256.111 193.73C255.351 194.65 256.011 195.97 257.281 200.73C258.281 204.43 258.661 205.49 258.501 207.08C258.343 208.434 257.9 209.739 257.201 210.91L255.031 211.07C256.254 212.153 257.62 213.062 259.091 213.77C261.091 214.65 262.601 215.35 264.251 214.89Z" fill="#FF7D7A"/>
<path d="M263.301 197.5C264.478 199.561 265.402 201.757 266.051 204.04C266.58 205.398 266.848 206.843 266.841 208.3C266.841 208.46 266.841 208.61 266.841 208.61C266.68 209.447 266.339 210.238 265.841 210.93C265.351 211.68 264.841 212.39 264.751 212.33C264.661 212.27 265.481 210.67 265.751 208.59C265.908 206.999 265.772 205.392 265.351 203.85C264.838 201.682 264.153 199.558 263.301 197.5Z" fill="#FF6759"/>
<path d="M269.298 197.25C270.142 198.329 270.844 199.512 271.388 200.77C272.128 202.079 272.667 203.491 272.988 204.96C273.172 206.163 273.172 207.387 272.988 208.59C272.708 210.59 271.938 212.36 271.768 212.31C271.598 212.26 271.918 211.31 272.008 209.47C272.106 208.357 272.079 207.237 271.928 206.13C271.278 201.08 269.098 197.34 269.298 197.25Z" fill="#FF6759"/>
<path d="M275.941 197.77C276.041 197.77 276.311 198.48 277.371 201.02C278.751 204.33 278.861 204.46 278.971 205.14C278.971 205.21 278.971 205.3 278.971 205.42C279.041 206.923 278.827 208.426 278.341 209.85C278.137 210.632 277.799 211.373 277.341 212.04C277.141 211.98 277.891 209.89 277.791 206.94C277.772 206.269 277.705 205.601 277.591 204.94C277.41 204.037 277.176 203.146 276.891 202.27C276.436 200.803 276.118 199.296 275.941 197.77Z" fill="#FF6759"/>
<path d="M275.67 47.29H235.52C229.473 47.29 224.57 52.1925 224.57 58.24V83.28C224.57 89.3275 229.473 94.23 235.52 94.23H275.67C281.718 94.23 286.62 89.3275 286.62 83.28V58.24C286.62 52.1925 281.718 47.29 275.67 47.29Z" fill="#B0CAF5"/>
<path d="M251.76 65.77C251.745 66.1476 251.627 66.5141 251.42 66.83C251.232 67.1172 250.974 67.3514 250.67 67.51C250.358 67.6592 250.016 67.7345 249.67 67.73C249.279 67.724 248.894 67.6354 248.54 67.47C248.012 67.2463 247.544 66.9041 247.17 66.47C246.839 66.0936 246.593 65.6501 246.45 65.17C246.308 64.6732 246.257 64.1548 246.3 63.64C246.338 63.0952 246.445 62.5575 246.62 62.04C247.049 60.7909 247.781 59.6674 248.75 58.77C249.758 57.8255 250.909 57.0459 252.16 56.46C253.43 55.8549 254.775 55.4211 256.16 55.17C257.414 54.9288 258.696 54.8548 259.97 54.95C261.013 55.038 262.03 55.3195 262.97 55.78C263.854 56.194 264.642 56.7904 265.28 57.53C265.896 58.2438 266.325 59.0994 266.53 60.02C266.739 61.0231 266.652 62.0653 266.28 63.02C266.011 63.8451 265.532 64.5861 264.89 65.17C264.196 65.852 263.458 66.4867 262.68 67.07C261.88 67.67 261.07 68.25 260.27 68.8C259.544 69.2779 258.873 69.8346 258.27 70.46C257.93 70.7934 257.631 71.166 257.38 71.57C257.171 71.9301 257.013 72.3171 256.91 72.72C256.811 73.1401 256.754 73.5688 256.74 74C256.74 74.46 256.74 74.95 256.74 75.47C256.751 75.7838 256.692 76.0963 256.565 76.3838C256.439 76.6712 256.249 76.9263 256.01 77.13C255.769 77.3432 255.481 77.4955 255.17 77.5738C254.858 77.6521 254.532 77.6543 254.22 77.58C253.945 77.5336 253.681 77.4388 253.44 77.3C253.209 77.1639 252.991 77.0066 252.79 76.83C252.35 76.3942 252.009 75.8691 251.79 75.29C251.374 74.2656 251.18 73.1648 251.22 72.06C251.296 70.9547 251.677 69.8921 252.32 68.99C252.695 68.4588 253.102 67.9513 253.54 67.47C253.98 66.98 254.43 66.47 254.88 66.05C255.498 65.4075 256.167 64.8156 256.88 64.28C257.615 63.7533 258.289 63.1462 258.89 62.47C259.345 61.958 259.686 61.3545 259.89 60.7C259.963 60.5297 259.979 60.3404 259.936 60.1602C259.892 59.98 259.792 59.8186 259.65 59.7C259.282 59.493 258.853 59.4255 258.44 59.51C257.819 59.6022 257.215 59.7876 256.65 60.06C256.061 60.3486 255.496 60.683 254.96 61.06C254.412 61.4307 253.911 61.8674 253.47 62.36C253.038 62.8403 252.665 63.3707 252.36 63.94C252.054 64.51 251.851 65.1295 251.76 65.77ZM254.29 78.55C255.115 78.551 255.908 78.8655 256.51 79.43C256.799 79.6905 257.032 80.0079 257.194 80.3623C257.356 80.7167 257.443 81.1005 257.45 81.49C257.45 81.8858 257.368 82.2774 257.21 82.64C257.046 82.9946 256.815 83.3139 256.53 83.58C256.232 83.8449 255.895 84.061 255.53 84.22C255.143 84.379 254.728 84.4605 254.31 84.46C253.877 84.4916 253.442 84.4232 253.04 84.26C252.669 84.1028 252.33 83.8792 252.04 83.6C251.758 83.3118 251.534 82.9724 251.38 82.6C251.21 82.2265 251.125 81.8202 251.13 81.41C251.126 81.0197 251.207 80.6333 251.368 80.2775C251.528 79.9218 251.765 79.6053 252.06 79.35C252.67 78.8006 253.469 78.507 254.29 78.53V78.55Z" fill="white"/>
<path d="M227.479 71.83L209.969 80.33L228.089 85.77C227.889 81.1033 227.685 76.4567 227.479 71.83Z" fill="#B0CAF5"/>
<path d="M104.349 178.99C101.876 191.79 99.4092 204.587 96.9492 217.38C97.7226 204.2 98.4892 191.02 99.2492 177.84L104.349 178.99Z" fill="#BF7A00"/>
</g>
<defs>
<clipPath id="clip0_1041_2">
<rect width="307.3" height="308.12" fill="white"/>
</clipPath>
</defs>
</svg>
