<svg width="16" height="14" viewBox="0 0 16 14" fill="none" xmlns="http://www.w3.org/2000/svg">
<g clip-path="url(#clip0_687_3070)">
<path d="M0.241656 6.51217C1.87849 5.5596 3.70566 4.76457 5.41287 3.96548C8.34993 2.65664 11.2987 1.37048 14.2772 0.173073C14.8567 -0.0309522 15.8979 -0.230478 16 0.67685C15.9441 1.96116 15.7141 3.23796 15.5564 4.51475C15.156 7.32254 14.6932 10.1207 14.2419 12.9192C14.0864 13.8514 12.9811 14.334 12.2739 13.7374C10.5743 12.5245 8.86159 11.3234 7.18367 10.0824C6.63403 9.4923 7.14371 8.64494 7.6346 8.22358C9.03446 6.76606 10.519 5.52773 11.8457 3.99488C12.2036 3.08182 11.1462 3.85133 10.7974 4.0871C8.88102 5.48236 7.0115 6.96281 4.99099 8.18906C3.95892 8.7893 2.75602 8.27634 1.72441 7.94139C0.799443 7.53679 -0.555883 7.12911 0.241656 6.51217Z" fill="#828282" class='img_hov' />
</g>
<defs>
<clipPath id="clip0_687_3070">
<rect width="16" height="14" fill="white"/>
</clipPath>
</defs>
</svg>
