<svg width="23" height="19" viewBox="0 0 23 19" fill="none" xmlns="http://www.w3.org/2000/svg">
<path d="M2.43457 15.0117H19.9336C21.5332 15.0117 22.3682 14.2031 22.3682 12.5771V2.43457C22.3682 0.808594 21.5332 0 19.9336 0H2.43457C0.834961 0 0 0.808594 0 2.43457V12.5771C0 14.2031 0.834961 15.0117 2.43457 15.0117ZM2.54883 13.3066C1.96875 13.3066 1.70508 13.0693 1.70508 12.4717V2.54004C1.70508 1.94238 1.96875 1.70508 2.54883 1.70508H19.8193C20.3994 1.70508 20.6631 1.94238 20.6631 2.54004V12.4717C20.6631 13.0693 20.3994 13.3066 19.8193 13.3066H2.54883ZM6.68848 18.0879H15.6797C16.1191 18.0879 16.4795 17.7275 16.4795 17.2881C16.4795 16.8486 16.1191 16.4795 15.6797 16.4795H6.68848C6.24902 16.4795 5.88867 16.8486 5.88867 17.2881C5.88867 17.7275 6.24902 18.0879 6.68848 18.0879Z" fill="#FFA200"/>
</svg>
