<svg width="17" height="14" viewBox="0 0 17 14" fill="none" xmlns="http://www.w3.org/2000/svg">
<path d="M8.25447 3.72421L8.29135 4.32979L7.67716 4.25563C5.44159 3.9714 3.48853 3.00744 1.8302 1.38855L1.01955 0.585295L0.810725 1.17847C0.368485 2.50082 0.650994 3.89724 1.57228 4.83641C2.06362 5.35551 1.95306 5.42966 1.10553 5.12071C0.810725 5.02184 0.552727 4.94768 0.528215 4.98472C0.44224 5.07128 0.737042 6.1958 0.970382 6.64073C1.28977 7.25863 1.94076 7.86413 2.65322 8.22252L3.25512 8.50675L2.54266 8.51914C1.85479 8.51914 1.8302 8.53146 1.90396 8.79097C2.14959 9.59422 3.11997 10.447 4.20092 10.8177L4.96254 11.0772L4.29918 11.4726C3.31651 12.0412 2.16188 12.3624 1.00726 12.3872C0.45446 12.3995 0 12.4489 0 12.486C0 12.6096 1.4986 13.3017 2.37071 13.5735C4.98706 14.3768 8.09481 14.0308 10.4286 12.6591C12.0869 11.6828 13.7452 9.74254 14.519 7.86413C14.9367 6.86313 15.3543 5.03416 15.3543 4.15675C15.3543 3.5883 15.3911 3.51414 16.079 2.83448C16.4844 2.43898 16.8651 2.00644 16.9389 1.88292C17.0617 1.64813 17.0494 1.64813 16.423 1.8582C15.3789 2.22891 15.2315 2.17947 15.7474 1.62341C16.1282 1.22791 16.5826 0.511139 16.5826 0.301066C16.5826 0.264024 16.3984 0.325785 16.1895 0.436983C15.9685 0.560576 15.4772 0.74593 15.1086 0.857201L14.4453 1.06727L13.8434 0.659452C13.5118 0.436983 13.045 0.189868 12.7994 0.115711C12.1729 -0.0573199 11.2148 -0.0326007 10.6498 0.165149C9.11429 0.721285 8.14391 2.15475 8.25447 3.72421Z" fill="#828282"/>
</svg>
