<svg width="19" height="14" viewBox="0 0 19 14" fill="none" xmlns="http://www.w3.org/2000/svg">
<rect width="19" height="14" fill="white"/>
<path fill-rule="evenodd" clip-rule="evenodd" d="M18.5529 1.76334C18.6937 1.33276 18.5529 1.01959 17.9291 1.01959H15.8565C15.3333 1.01959 15.0918 1.29359 14.951 1.58723C14.951 1.58723 13.8845 4.09255 12.3954 5.71707C11.9125 6.18683 11.6911 6.34341 11.4296 6.34341C11.2887 6.34341 11.1076 6.18683 11.1076 5.75624V1.74376C11.1076 1.23488 10.9466 1 10.5039 1H7.24409C6.92212 1 6.72092 1.23488 6.72092 1.46976C6.72092 1.95911 7.46542 2.07652 7.54591 3.44662V6.42171C7.54591 7.06764 7.42521 7.18505 7.1636 7.18505C6.45931 7.18505 4.74892 4.66014 3.72267 1.78293C3.52141 1.21529 3.32022 1 2.79705 1H0.704277C0.100617 1 0 1.27406 0 1.56764C0 2.09611 0.704277 4.75802 3.27994 8.28116C4.99039 10.6886 7.42521 11.9804 9.61855 11.9804C10.9466 11.9804 11.1076 11.6868 11.1076 11.1975V9.37726C11.1076 8.79003 11.2283 8.69221 11.6509 8.69221C11.9527 8.69221 12.496 8.84874 13.7235 10.0036C15.132 11.3737 15.3735 12 16.1583 12H18.2309C18.8346 12 19.1163 11.7064 18.9553 11.1388C18.7742 10.5712 18.0901 9.74914 17.2047 8.77045C16.7217 8.22245 15.9973 7.61569 15.776 7.32205C15.4741 6.93064 15.5546 6.77406 15.776 6.42171C15.7559 6.42171 18.2913 2.93774 18.5529 1.76334Z" fill="#828282"/>
</svg>
