<svg width="18" height="14" viewBox="0 0 18 14" fill="none" xmlns="http://www.w3.org/2000/svg">
<rect width="18" height="14" fill="white"/>
<path d="M17.6238 2.02998C17.4168 1.2309 16.8069 0.601674 16.0324 0.388093C14.6288 1.26336e-07 9 0 9 0C9 0 3.3712 1.26336e-07 1.96755 0.388093C1.19299 0.601674 0.583032 1.2309 0.376032 2.02998C3.77186e-07 3.47828 0 6.5 0 6.5C0 6.5 3.77186e-07 9.52165 0.376032 10.97C0.583032 11.7691 1.19299 12.3983 1.96755 12.612C3.3712 13 9 13 9 13C9 13 14.6288 13 16.0324 12.612C16.8069 12.3983 17.4168 11.7691 17.6238 10.97C18 9.52165 18 6.5 18 6.5C18 6.5 18 3.47828 17.6238 2.02998Z" fill="#828282" class="img_hov"/>
<path d="M7 9V4L12 6.50006L7 9Z" fill="white"/>
</svg>
