<svg width="35" height="35" viewBox="0 0 35 35" fill="none" xmlns="http://www.w3.org/2000/svg">
<path d="M17.4915 35C27.0831 35 35 27.0793 35 17.5C35 7.9207 27.0662 0 17.4746 0C7.89995 0 0 7.9207 0 17.5C0 27.0793 7.91687 35 17.4915 35ZM17.4746 20.2587C14.159 20.2418 11.5877 17.4662 11.5877 13.7935C11.5539 10.3409 14.1759 7.46373 17.4746 7.46373C20.7733 7.46373 23.3615 10.3409 23.3615 13.7935C23.3615 17.4662 20.7902 20.2926 17.4746 20.2587ZM17.4746 32.1059C13.6854 32.1059 9.65926 30.5319 7.10488 27.7901C9.05027 24.8791 12.9072 23.1867 17.4746 23.1867C21.9913 23.1867 25.8821 24.8453 27.8444 27.7901C25.29 30.5319 21.2639 32.1059 17.4746 32.1059Z" fill="#828282"/>
</svg>
