<svg width="25" height="25" viewBox="0 0 25 25" fill="none" xmlns="http://www.w3.org/2000/svg">
<g clip-path="url(#clip0_173_18215)">
<path d="M12.793 0C15.6022 0.106034 18.4113 0.0240987 21.2205 0.428957C23.5073 0.756699 24.519 2.07731 24.7025 4.22691C25.0225 7.96703 25.1589 11.7072 24.7354 15.4569C24.4484 18.0066 23.1168 19.4718 20.477 19.679C18.7642 19.814 17.0326 19.7947 15.3104 19.7706C14.1529 19.7561 13.3859 19.92 13.3812 21.4334C13.3812 22.8938 14.0164 23.1203 15.2352 23.1637C16.1762 23.1974 17.8843 22.4841 17.8702 23.9927C17.8608 25.2169 16.1621 24.9566 15.1081 24.9663C13.0707 24.9904 11.0379 24.9952 9.00045 24.9566C8.24758 24.9422 7.14651 24.9663 7.1418 23.9927C7.13239 22.889 8.2664 23.236 8.98633 23.1058C9.83802 22.9564 10.9344 23.6023 11.4943 22.4552C12.1719 21.0719 11.372 19.8911 9.77214 19.7995C7.59352 19.6742 5.40549 19.9248 3.23158 19.4091C1.41999 18.9801 0.530659 17.7511 0.328325 16.069C-0.146924 12.0349 -0.0857532 7.95257 0.361263 3.90399C0.582419 1.91344 1.6882 0.679584 3.89975 0.428957C6.86418 0.0963948 9.8239 0.0674764 12.793 0ZM1.63644 10.3624C1.4341 12.0735 2.09757 13.6977 2.08816 15.3798C2.08345 17.086 2.95867 17.7126 4.55852 17.8812C9.86155 18.4307 15.1552 17.8957 20.4535 17.8523C22.1098 17.8379 22.7544 17.0185 22.9285 15.3557C23.3003 11.765 23.2768 8.2032 22.9568 4.60285C22.8109 2.94486 22.0675 2.20744 20.7029 2.12069C15.2352 1.76885 9.76273 1.76885 4.29501 2.13515C3.19864 2.20744 2.17756 2.64122 2.11639 4.15462C2.03169 6.22711 1.80113 8.29478 1.63644 10.3624Z" fill="#B9B2C1"/>
<path d="M1.63672 10.3624C1.80141 8.29472 2.03198 6.22705 2.11668 4.15456C2.18255 2.64116 3.20363 2.20739 4.29529 2.13509C9.76301 1.76879 15.2354 1.77361 20.7032 2.12063C22.0677 2.20739 22.8065 2.94963 22.9571 4.6028C23.277 8.20314 23.3053 11.7649 22.9288 15.3556C22.7547 17.0185 22.1101 17.8378 20.4538 17.8523C15.1554 17.8956 9.86183 18.4306 4.5588 17.8812C2.95895 17.7173 2.07903 17.0907 2.08844 15.3797C2.09315 13.6976 1.42968 12.0686 1.63672 10.3624ZM12.5392 8.11157C14.0167 8.11157 15.4942 8.14049 16.9717 8.09711C17.5599 8.07783 18.0446 7.72599 18.0069 7.04641C17.974 6.4584 17.4846 6.30417 16.9906 6.30417C14.0356 6.29935 11.0758 6.29453 8.12082 6.32826C7.55146 6.33308 7.00563 6.61263 7.07621 7.32595C7.13267 7.8754 7.62674 8.09711 8.10199 8.10675C9.5795 8.14049 11.057 8.11639 12.5345 8.11639L12.5392 8.11157ZM10.1206 12.2373C10.9441 11.6782 12.751 12.8205 12.7886 11.389C12.8263 9.96717 11.0523 10.6323 10.1159 10.6419C9.09014 10.6516 7.23619 9.92379 7.23149 11.4757C7.23149 12.7578 9.06661 11.7698 10.1206 12.2373Z" fill="#FDFEFD"/>
<path d="M12.5407 8.11165C11.0632 8.11165 9.58564 8.13575 8.10813 8.10201C7.62818 8.09237 7.13411 7.87066 7.08235 7.32121C7.01177 6.60789 7.5576 6.33317 8.12696 6.32353C11.082 6.28979 14.0417 6.29461 16.9967 6.29943C17.4908 6.29943 17.9801 6.45366 18.0131 7.04167C18.0507 7.71643 17.5661 8.07309 16.9779 8.09237C15.5004 8.14057 14.0229 8.10683 12.5454 8.10683L12.5407 8.11165Z" fill="#B9B2C1"/>
<path d="M10.1216 12.2326C9.06755 11.7602 7.22773 12.7483 7.23243 11.471C7.23714 9.91909 9.09108 10.6469 10.1169 10.6372C11.0532 10.6276 12.8319 9.96246 12.7896 11.3843C12.7519 12.8158 10.945 11.6735 10.1216 12.2326Z" fill="#B9B2C1"/>
</g>
<defs>
<clipPath id="clip0_173_18215">
<rect width="25" height="25" fill="white"/>
</clipPath>
</defs>
</svg>
