<svg width="26" height="21" viewBox="0 0 26 21" fill="none" xmlns="http://www.w3.org/2000/svg">
<g clip-path="url(#clip0_687_3440)">
<path d="M6.02951 17.7909L6.029 17.7914C5.92294 17.889 5.8427 17.957 5.78125 18.0047V15.6006V14.6006H4.78125H3.375C2.54984 14.6006 1.98135 14.3463 1.62007 13.9816C1.25791 13.6161 1 13.0345 1 12.1816V3.375C1 2.51283 1.26161 1.95097 1.62231 1.60224C1.98791 1.24879 2.57384 1 3.43652 1H15.6533C16.51 1 17.0662 1.238 17.4153 1.5515C17.6015 1.71873 17.7575 1.93313 17.8717 2.19922H12.7441C11.1598 2.19922 9.7684 2.67817 8.77047 3.6647C7.771 4.65277 7.2793 6.03829 7.2793 7.62891V13.8164C7.2793 14.8148 7.47892 15.5714 7.81562 16.15L6.02951 17.7909ZM5.79027 18.24C5.79086 18.2415 5.7911 18.2422 5.79107 18.2423C5.79104 18.2423 5.79074 18.2416 5.79027 18.24ZM21.2695 15.8662H20.2695V16.8662V19.2715C20.2085 19.2235 20.1285 19.1552 20.0218 19.057L20.0218 19.057L20.0147 19.0506L16.7715 16.1238L16.4861 15.8662H16.1016H13.0078C12.1139 15.8662 11.535 15.6069 11.1799 15.2512C10.8244 14.895 10.5713 14.3198 10.5713 13.4473V7.89258C10.5713 6.98622 10.8262 6.4198 11.172 6.07792C11.5195 5.73432 12.0954 5.48242 13.0078 5.48242H22.1133C22.976 5.48242 23.5619 5.73121 23.9275 6.08467C24.2882 6.43339 24.5498 6.99525 24.5498 7.85742V13.4473C24.5498 14.3001 24.2919 14.8817 23.9297 15.2473C23.5685 15.6119 23 15.8662 22.1748 15.8662H21.2695Z" stroke="#828282" stroke-width="2"/>
</g>
<defs>
<clipPath id="clip0_687_3440">
<rect width="26" height="21" fill="white"/>
</clipPath>
</defs>
</svg>
