<svg width="28" height="19" viewBox="0 0 28 19" fill="none" xmlns="http://www.w3.org/2000/svg">
<g clip-path="url(#clip0_687_3436)">
<rect x="1" y="1.5" width="26" height="16" rx="4" fill="white" stroke="#828282" stroke-width="2"/>
<path d="M9.56809 7.34V9.345H12.0981V10.38H9.56809V12.425H12.7781V13.5H8.21809V6.27H12.7781V7.34H9.56809ZM16.88 12.415C17.14 12.415 17.3717 12.3717 17.575 12.285C17.7817 12.1983 17.955 12.0767 18.095 11.92C18.235 11.7633 18.3417 11.5733 18.415 11.35C18.4917 11.1267 18.53 10.8767 18.53 10.6V6.27H19.875V10.6C19.875 11.03 19.805 11.4283 19.665 11.795C19.5284 12.1583 19.33 12.4733 19.07 12.74C18.8134 13.0033 18.5 13.21 18.13 13.36C17.76 13.5067 17.3434 13.58 16.88 13.58C16.4134 13.58 15.995 13.5067 15.625 13.36C15.255 13.21 14.94 13.0033 14.68 12.74C14.4234 12.4733 14.225 12.1583 14.085 11.795C13.9484 11.4283 13.88 11.03 13.88 10.6V6.27H15.225V10.595C15.225 10.8717 15.2617 11.1217 15.335 11.345C15.4117 11.5683 15.52 11.76 15.66 11.92C15.8034 12.0767 15.9767 12.1983 16.18 12.285C16.3867 12.3717 16.62 12.415 16.88 12.415Z" fill="#828282"/>
</g>
<defs>
<clipPath id="clip0_687_3436">
<rect width="28" height="18" fill="white" transform="translate(0 0.5)"/>
</clipPath>
</defs>
</svg>
