<svg width="212" height="169" viewBox="0 0 212 169" fill="none" xmlns="http://www.w3.org/2000/svg">
<path d="M46.6006 158.501C49.6636 158.501 51.9972 157.043 55.6436 153.689L76.2821 134.733C72.1981 131.453 68.6976 125.912 68.6976 114.611V63.2839C68.6976 40.3179 82.7726 26.5384 105.745 26.5384H158.253L158.18 24.2783C156.867 9.76963 147.24 0 129.884 0H28.5146C11.012 0 0 10.2071 0 27.9965V101.05C0 118.621 10.7933 129.411 28.0041 129.411H39.6725V150.554C39.6725 155.366 42.225 158.501 46.6006 158.501ZM169.483 169C173.932 169 176.484 165.865 176.484 161.053V139.91H183.996C201.207 139.91 212 129.12 212 111.549V65.1795C212 47.39 200.988 37.1829 183.485 37.1829H107.933C89.7737 37.1829 79.418 47.3171 79.418 65.4711V111.549C79.418 129.265 89.8466 139.91 107.933 139.91H133.603L160.513 164.188C164.16 167.542 166.42 169 169.483 169Z" fill="#828282"/>
</svg>
