<svg width="32" height="25" viewBox="0 0 32 25" fill="none" xmlns="http://www.w3.org/2000/svg">
<path d="M4.25718 25H27.7299C30.5249 25 32 23.5515 32 20.7838V7.20383C32 4.43611 30.5249 2.98758 27.7299 2.98758H24.2879C23.2786 2.98758 22.9551 2.81945 22.3211 2.15986L21.2988 1.06053C20.626 0.349198 19.9402 0 18.6203 0H13.3021C11.9822 0 11.2964 0.349198 10.6235 1.06053L9.60129 2.15986C8.98019 2.80652 8.64375 2.98758 7.63445 2.98758H4.25718C1.46219 2.98758 0 4.43611 0 7.20383V20.7838C0 23.5515 1.46219 25 4.25718 25ZM15.9935 20.939C12.1245 20.939 9.01901 17.835 9.01901 13.955C9.01901 10.0621 12.1245 6.9581 15.9935 6.9581C19.8755 6.9581 22.981 10.0621 22.981 13.955C22.981 17.835 19.8755 20.939 15.9935 20.939ZM23.8091 9.19555C23.8091 8.27729 24.5985 7.47543 25.5431 7.47543C26.4747 7.47543 27.2641 8.27729 27.2641 9.19555C27.2641 10.1526 26.4747 10.9027 25.5431 10.9157C24.5985 10.9157 23.8091 10.1655 23.8091 9.19555ZM15.9935 18.598C18.5685 18.598 20.6389 16.5287 20.6389 13.955C20.6389 11.3683 18.5685 9.29902 15.9935 9.29902C13.4315 9.29902 11.3611 11.3683 11.3611 13.955C11.3611 16.5287 13.4444 18.598 15.9935 18.598Z" fill="#828282"/>
</svg>
