<svg width="10" height="12" viewBox="0 0 10 12" fill="none" xmlns="http://www.w3.org/2000/svg">
<path d="M4.99704 12C5.10349 12 5.26316 11.9646 5.41691 11.8821C8.81727 10.0364 10 9.18133 10 7.03489V2.5828C10 1.87518 9.72797 1.62162 9.13069 1.36806C8.48019 1.09091 6.26848 0.324324 5.62981 0.106143C5.42874 0.0412776 5.20402 0 4.99704 0C4.79598 0 4.56535 0.0530713 4.3702 0.106143C3.73152 0.288943 1.51981 1.09681 0.869308 1.36806C0.272028 1.61572 0 1.87518 0 2.5828V7.03489C0 9.18133 1.18273 10.0246 4.58309 11.8821C4.73684 11.9646 4.89651 12 4.99704 12ZM4.99704 10.7499C4.91425 10.7499 4.83146 10.7204 4.65996 10.6143C1.96334 8.97494 1.1236 8.53268 1.1236 6.81671V2.7715C1.1236 2.55921 1.16499 2.47666 1.33057 2.4059C2.2058 2.05799 3.90302 1.49779 4.68362 1.19115C4.81963 1.14398 4.91425 1.12629 4.99704 1.12629C5.08575 1.12629 5.18037 1.14398 5.31638 1.19115C6.09698 1.49779 7.78238 2.09337 8.66351 2.4059C8.83501 2.47076 8.8764 2.55921 8.8764 2.7715V6.81671C8.8764 8.54447 8.00118 9.01032 5.34004 10.6143C5.16854 10.7204 5.08575 10.7499 4.99704 10.7499ZM4.99704 6.65749C5.32229 6.65749 5.51153 6.48059 5.51745 6.13268L5.60615 3.29631C5.61798 2.9543 5.35778 2.70074 4.99113 2.70074C4.62448 2.70074 4.3702 2.9484 4.38202 3.29042L4.46481 6.13858C4.47664 6.47469 4.66588 6.65749 4.99704 6.65749ZM4.99704 8.61523C5.38143 8.61523 5.69486 8.34398 5.69486 7.96659C5.69486 7.59509 5.38734 7.31794 4.99704 7.31794C4.61266 7.31794 4.29923 7.59509 4.29923 7.96659C4.29923 8.33808 4.61857 8.61523 4.99704 8.61523Z" fill="#828282"/>
</svg>
