<svg width="14" height="21" viewBox="0 0 14 21" fill="none" xmlns="http://www.w3.org/2000/svg">
<path d="M2.97126 21H11.0803C12.8342 21 14 19.9346 14 18.351V2.64899C14 1.06536 12.8342 0 11.0803 0H2.97126C1.19676 0 0 1.06536 0 2.64899V18.351C0 19.9346 1.19676 21 2.97126 21ZM3.31172 19.0708C2.49668 19.0708 2.02211 18.6485 2.02211 17.9191V3.0809C2.02211 2.35146 2.49668 1.93876 3.31172 1.93876H10.6986C11.5136 1.93876 11.9882 2.35146 11.9882 3.0809V17.9191C11.9882 18.6485 11.5136 19.0708 10.6986 19.0708H8.67649V18.7349C8.67649 18.3126 8.3773 18.0343 7.93368 18.0343H6.08696C5.63301 18.0343 5.34414 18.3126 5.34414 18.7349V19.0708H3.31172Z" fill="#6FC727"/>
</svg>
