<svg width="17" height="17" viewBox="0 0 17 17" fill="none" xmlns="http://www.w3.org/2000/svg">
<path d="M12.5376 10.0195V1.18652C12.5376 0.527344 12.0542 0 11.3774 0C10.9292 0 10.6128 0.193359 10.1294 0.650391L6.71924 3.80566C6.68408 3.84082 6.64014 3.86719 6.59619 3.86719H6.37646L12.5376 10.0195ZM15.6138 16.5938C15.8862 16.8574 16.3345 16.8662 16.5981 16.5938C16.8706 16.3125 16.8706 15.873 16.5981 15.6006L1.19971 0.210938C0.927246 -0.0615234 0.479004 -0.0703125 0.197754 0.210938C-0.065918 0.474609 -0.065918 0.931641 0.197754 1.19531L15.6138 16.5938ZM3.72217 11.6016H6.20068C6.27979 11.6016 6.3501 11.6279 6.40283 11.6807L10.1294 15.1436C10.5688 15.5654 10.938 15.75 11.3862 15.75C11.896 15.75 12.2827 15.4863 12.4585 14.9678L2.21924 4.7373C1.92041 5.07129 1.76221 5.56348 1.76221 6.21387V9.55371C1.76221 10.9248 2.43018 11.6016 3.72217 11.6016Z" fill="#828282"/>
</svg>
