<svg width="180" height="180" viewBox="0 0 180 180" fill="none" xmlns="http://www.w3.org/2000/svg">
<path d="M89.9565 180C139.285 180 180 139.265 180 90C180 40.735 139.198 0 89.8695 0C40.6283 0 0 40.735 0 90C0 139.265 40.7153 180 89.9565 180ZM89.8695 104.188C72.8178 104.101 59.594 89.8259 59.594 70.9381C59.42 53.1818 72.9048 38.3849 89.8695 38.3849C106.834 38.3849 120.145 53.1818 120.145 70.9381C120.145 89.8259 106.921 104.362 89.8695 104.188ZM89.8695 165.116C70.3818 165.116 49.6762 157.021 36.5394 142.921C46.5442 127.95 66.3799 119.246 89.8695 119.246C113.098 119.246 133.108 127.776 143.2 142.921C130.063 157.021 109.357 165.116 89.8695 165.116Z" fill="#D9D9D9"/>
</svg>
