<svg width="18" height="20" viewBox="0 0 18 20" fill="none" xmlns="http://www.w3.org/2000/svg">
<path d="M4.64941 19.8545H12.7266C14.0801 19.8545 14.9502 19.0371 15.0205 17.6836L15.6094 5.02734H16.5762C17.0244 5.02734 17.3672 4.67578 17.3672 4.23633C17.3672 3.79688 17.0156 3.46289 16.5762 3.46289H12.6738V2.14453C12.6738 0.791016 11.8125 0 10.3447 0H7.00488C5.53711 0 4.67578 0.791016 4.67578 2.14453V3.46289H0.791016C0.351562 3.46289 0 3.80566 0 4.23633C0 4.68457 0.351562 5.02734 0.791016 5.02734H1.75781L2.34668 17.6836C2.41699 19.0459 3.27832 19.8545 4.64941 19.8545ZM6.31934 2.22363C6.31934 1.77539 6.63574 1.48535 7.11914 1.48535H10.2305C10.7139 1.48535 11.0303 1.77539 11.0303 2.22363V3.46289H6.31934V2.22363ZM4.8252 18.2812C4.3418 18.2812 3.99023 17.9209 3.96387 17.4023L3.375 5.02734H13.9658L13.3945 17.4023C13.377 17.9297 13.0342 18.2812 12.5332 18.2812H4.8252ZM6.09082 16.8662C6.46875 16.8662 6.70605 16.6289 6.69727 16.2773L6.43359 7.08398C6.4248 6.73242 6.17871 6.50391 5.81836 6.50391C5.44922 6.50391 5.21191 6.74121 5.2207 7.09277L5.48438 16.2861C5.49316 16.6377 5.73926 16.8662 6.09082 16.8662ZM8.68359 16.8662C9.05273 16.8662 9.30762 16.6377 9.30762 16.2861V7.09277C9.30762 6.74121 9.05273 6.50391 8.68359 6.50391C8.31445 6.50391 8.06836 6.74121 8.06836 7.09277V16.2861C8.06836 16.6377 8.31445 16.8662 8.68359 16.8662ZM11.2764 16.875C11.6279 16.875 11.874 16.6377 11.8828 16.2861L12.1465 7.09277C12.1553 6.74121 11.918 6.5127 11.5488 6.5127C11.1885 6.5127 10.9424 6.74121 10.9336 7.09277L10.6699 16.2861C10.6611 16.6289 10.8984 16.875 11.2764 16.875Z" fill="#828282"/>
</svg>
