<svg width="15" height="18" viewBox="0 0 15 18" fill="none" xmlns="http://www.w3.org/2000/svg">
<path d="M7.42676 17.8857C7.58496 17.8857 7.82227 17.833 8.05078 17.71C13.1045 14.959 14.8623 13.6846 14.8623 10.4854V3.84961C14.8623 2.79492 14.458 2.41699 13.5703 2.03906C12.6035 1.62598 9.31641 0.483398 8.36719 0.158203C8.06836 0.0615234 7.73438 0 7.42676 0C7.12793 0 6.78516 0.0791016 6.49512 0.158203C5.5459 0.430664 2.25879 1.63477 1.29199 2.03906C0.404297 2.4082 0 2.79492 0 3.84961V10.4854C0 13.6846 1.75781 14.9414 6.81152 17.71C7.04004 17.833 7.27734 17.8857 7.42676 17.8857ZM7.42676 16.0225C7.30371 16.0225 7.18066 15.9785 6.92578 15.8203C2.91797 13.377 1.66992 12.7178 1.66992 10.1602V4.13086C1.66992 3.81445 1.73145 3.69141 1.97754 3.58594C3.27832 3.06738 5.80078 2.23242 6.96094 1.77539C7.16309 1.70508 7.30371 1.67871 7.42676 1.67871C7.55859 1.67871 7.69922 1.70508 7.90137 1.77539C9.06152 2.23242 11.5664 3.12012 12.876 3.58594C13.1309 3.68262 13.1924 3.81445 13.1924 4.13086V10.1602C13.1924 12.7354 11.8916 13.4297 7.93652 15.8203C7.68164 15.9785 7.55859 16.0225 7.42676 16.0225ZM6.48633 12.6562C6.81152 12.6562 7.08398 12.498 7.26855 12.208L11.2324 6.03809C11.3555 5.85352 11.4521 5.64258 11.4521 5.44043C11.4521 5.00098 11.0654 4.71094 10.6436 4.71094C10.3799 4.71094 10.1426 4.86035 9.95801 5.15918L6.45996 10.7402L4.8252 8.6748C4.61426 8.40234 4.40332 8.30566 4.14844 8.30566C3.70898 8.30566 3.36621 8.65723 3.36621 9.09668C3.36621 9.30762 3.44531 9.50098 3.59473 9.69434L5.66895 12.2168C5.90625 12.5156 6.16113 12.6562 6.48633 12.6562Z" fill="#6FC727"/>
</svg>
