<svg width="23" height="28" viewBox="0 0 23 28" fill="none" xmlns="http://www.w3.org/2000/svg">
<path d="M11.4932 28C11.738 28 12.1053 27.9174 12.4589 27.7248C20.2797 23.4182 23 21.4231 23 16.4147V6.02654C23 4.37543 22.3743 3.78378 21.0006 3.19214C19.5044 2.54545 14.4175 0.756757 12.9486 0.247666C12.4861 0.0963145 11.9692 0 11.4932 0C11.0308 0 10.5003 0.123833 10.0514 0.247666C8.5825 0.674201 3.49556 2.55921 1.99941 3.19214C0.625665 3.77002 0 4.37543 0 6.02654V16.4147C0 21.4231 2.72028 23.3907 10.5411 27.7248C10.8947 27.9174 11.262 28 11.4932 28ZM11.4932 25.083C11.3028 25.083 11.1124 25.0142 10.7179 24.7666C4.51567 20.9415 2.58427 19.9096 2.58427 15.9057V6.46683C2.58427 5.9715 2.67948 5.77887 3.06032 5.61376C5.07333 4.80197 8.97694 3.49484 10.7723 2.77936C11.0852 2.66929 11.3028 2.62801 11.4932 2.62801C11.6972 2.62801 11.9148 2.66929 12.2277 2.77936C14.0231 3.49484 17.8995 4.88452 19.9261 5.61376C20.3205 5.76511 20.4157 5.9715 20.4157 6.46683V15.9057C20.4157 19.9371 18.4027 21.0241 12.2821 24.7666C11.8876 25.0142 11.6972 25.083 11.4932 25.083ZM11.4932 15.5342C12.2413 15.5342 12.6765 15.1214 12.6901 14.3096L12.8941 7.6914C12.9213 6.89337 12.3229 6.30172 11.4796 6.30172C10.6363 6.30172 10.0514 6.87961 10.0787 7.67764L10.2691 14.3233C10.2963 15.1076 10.7315 15.5342 11.4932 15.5342ZM11.4932 20.1022C12.3773 20.1022 13.0982 19.4693 13.0982 18.5887C13.0982 17.7219 12.3909 17.0752 11.4932 17.0752C10.6091 17.0752 9.88823 17.7219 9.88823 18.5887C9.88823 19.4555 10.6227 20.1022 11.4932 20.1022Z" fill="#FFA200"/>
</svg>
