<svg width="44" height="44" viewBox="0 0 44 44" fill="none" xmlns="http://www.w3.org/2000/svg">
<path d="M21.9894 44C34.0474 44 44 34.0426 44 22C44 9.95745 34.0261 0 21.9681 0C9.93137 0 0 9.95745 0 22C0 34.0426 9.95263 44 21.9894 44ZM21.9681 25.4681C17.7999 25.4468 14.5674 21.9574 14.5674 17.3404C14.5249 13 17.8212 9.38298 21.9681 9.38298C26.115 9.38298 29.3688 13 29.3688 17.3404C29.3688 21.9574 26.1363 25.5106 21.9681 25.4681ZM21.9681 40.3617C17.2044 40.3617 12.1431 38.383 8.93185 34.9362C11.3775 31.2766 16.2262 29.1489 21.9681 29.1489C27.6462 29.1489 32.5375 31.234 35.0044 34.9362C31.7931 38.383 26.7318 40.3617 21.9681 40.3617Z" fill="#828282"/>
</svg>
