<svg width="35" height="34" viewBox="0 0 35 34" fill="none" xmlns="http://www.w3.org/2000/svg">
<g clip-path="url(#clip0_129_512)">
<path d="M17.4678 0C21.9501 0.130568 25.8976 0.0391705 29.8386 0.600614C32.895 1.03802 34.3407 2.78763 34.5783 5.5361C35.0206 10.7131 35.2252 15.9032 34.6377 21.0933C34.2482 24.4946 32.3207 26.4075 28.5315 26.6751C26.1221 26.8449 23.6928 26.8514 21.2767 26.7861C19.4878 26.7404 18.7154 27.3018 18.7286 29.2016C18.7418 30.9969 19.5208 31.3495 21.1249 31.4017C22.5046 31.4474 24.9932 30.5726 24.9668 32.5376C24.9338 34.7834 22.3725 33.7519 20.9137 33.8303C18.0619 33.9935 15.1969 33.9021 12.3386 33.8629C11.2758 33.8498 9.8037 34.0131 9.90272 32.4593C9.98193 31.2124 11.3286 31.4278 12.299 31.3429C14.0615 31.1993 16.57 32.2439 16.2466 28.7838C16.1211 27.4324 15.6854 26.8318 14.2794 26.8383C11.7511 26.8514 9.21619 26.8644 6.6945 26.6947C2.15281 26.3813 0.621315 24.5338 0.258244 20.1141C-0.111428 15.6682 -0.0718199 11.2681 0.297852 6.82873C0.654321 2.58525 1.94817 1.22734 6.17299 0.581029C10.1206 -0.0195853 14.0615 0.208909 17.4678 0ZM2.24523 14.0296C2.03399 16.3406 2.86575 18.5538 2.87235 20.8257C2.88555 23.1367 4.08699 23.9985 6.33803 24.2204C13.7777 24.9516 21.2041 24.2596 28.6438 24.1878C30.9674 24.1682 31.8784 23.0584 32.116 20.8126C32.6441 15.9489 32.6045 11.1244 32.1556 6.2477C31.951 4.00845 30.9212 2.99654 29.0002 2.87903C21.3295 2.40246 13.6456 2.40899 5.98156 2.89209C4.44346 2.99002 3.00438 3.57757 2.90536 5.62097C2.77333 8.42819 2.46967 11.2289 2.23863 14.0296H2.24523Z" fill="#B9B2C1"/>
<path d="M2.24477 14.0296C2.47582 11.2289 2.77948 8.42819 2.9115 5.62097C3.00392 3.57758 4.4496 2.99002 5.9877 2.89209C13.6584 2.40246 21.3357 2.39593 29.0064 2.87904C30.9273 2.99655 31.9505 4.00845 32.1618 6.2477C32.6107 11.1244 32.6503 15.9489 32.1222 20.8126C31.8779 23.0584 30.9736 24.1682 28.6499 24.1878C21.2169 24.2596 13.7904 24.9516 6.34417 24.2204C4.09313 23.9985 2.8917 23.1367 2.8785 20.8257C2.86529 18.5538 2.04013 16.3341 2.25137 14.0296H2.24477ZM9.67782 19.3633C9.5788 20.6233 9.89566 21.596 11.9024 21.126C13.632 20.7147 15.2493 20.3099 16.5498 18.9389C18.9658 16.4124 21.4413 13.9382 24.0092 11.5684C25.5803 10.1191 25.5803 8.98963 24.0092 7.54033C22.4909 6.13019 21.2037 5.09217 19.3289 7.05069C16.992 9.49885 14.6156 11.9274 12.0873 14.1732C10.5558 15.5376 10.2059 17.2807 9.67121 19.3698L9.67782 19.3633Z" fill="#FDFEFD"/>
<path d="M9.6775 19.3633C10.2122 17.2808 10.5621 15.5377 12.0936 14.1667C14.6219 11.9144 16.9983 9.48585 19.3352 7.04422C21.2099 5.0857 22.4972 6.12371 24.0155 7.53385C25.58 8.98969 25.58 10.1126 24.0155 11.5619C21.4476 13.9317 18.9721 16.406 16.556 18.9325C15.2556 20.2969 13.6383 20.7082 11.9087 21.1195C9.90855 21.5961 9.59168 20.6168 9.6841 19.3568L9.6775 19.3633ZM22.2067 9.71434C21.9559 9.35528 21.7777 8.89176 21.606 8.89176C21.2231 8.89176 20.7346 9.02886 20.4706 9.29C18.1205 11.5684 15.7969 13.8729 13.493 16.1905C13.031 16.6541 12.5359 17.2938 13.1036 17.8814C13.7439 18.5408 14.2984 17.8683 14.7341 17.4375C16.9257 15.3092 19.0909 13.1613 21.2495 10.9939C21.6192 10.6218 21.8833 10.1517 22.2067 9.70782V9.71434Z" fill="#B9B2C1"/>
<path d="M22.2131 9.71425C21.8896 10.1582 21.6255 10.6282 21.2559 11.0003C19.1038 13.1613 16.932 15.3091 14.7404 17.4439C14.2981 17.8748 13.7436 18.5472 13.1099 17.8878C12.5422 17.3003 13.0373 16.6605 13.4994 16.197C15.8098 13.8794 18.1269 11.5748 20.4769 9.29643C20.7476 9.03529 21.2295 8.90472 21.6123 8.89819C21.784 8.89819 21.9622 9.36171 22.2131 9.72077V9.71425Z" fill="#FDFEFD"/>
</g>
<defs>
<clipPath id="clip0_129_512">
<rect width="35" height="34" fill="white"/>
</clipPath>
</defs>
</svg>
