<svg width="37" height="35" viewBox="0 0 37 35" fill="none" xmlns="http://www.w3.org/2000/svg">
<g clip-path="url(#clip0_129_506)">
<path d="M18.6255 34.9126C16.5311 34.9126 14.4368 34.9462 12.3425 34.8991C11.3861 34.879 10.3249 34.6572 10.4436 33.454C10.5344 32.5331 11.4628 32.3449 12.3215 32.3382C13.25 32.3247 14.1855 32.2642 15.114 32.3382C16.957 32.4726 17.1664 31.4307 17.1734 30.0192C17.1734 28.5942 16.9081 27.6531 15.1 27.68C12.4262 27.7204 9.74549 27.7136 7.07869 27.5389C2.27568 27.2162 0.663034 25.3073 0.279072 20.7499C-0.118852 16.1657 -0.0769656 11.6353 0.313978 7.0645C0.690959 2.69539 2.03832 1.183 6.54115 0.67887C14.7719 -0.235284 22.9887 -0.221841 31.2055 0.692313C34.8217 1.09562 36.4413 2.82982 36.6228 6.41922C36.8672 11.3126 37.2861 16.1792 36.6927 21.0995C36.211 25.119 34.4378 27.2028 30.1583 27.5053C27.6102 27.68 25.0411 27.6867 22.4861 27.6195C20.5872 27.5725 19.7844 28.1707 19.8053 30.12C19.8193 31.9752 20.664 32.318 22.3464 32.3785C23.8055 32.4323 26.4374 31.5248 26.4025 33.5548C26.3606 35.8536 23.6519 34.6639 22.1021 34.8924C20.9642 35.0605 19.7844 34.926 18.6185 34.926V34.9126H18.6255ZM18.8559 2.8231V2.83654C15.0232 2.83654 11.1906 2.71555 7.36492 2.88359C5.30549 2.9777 3.19719 3.27345 3.05058 6.15707C2.79228 11.158 2.18492 16.1119 2.95285 21.16C3.35775 23.7949 4.34907 24.7628 7.05775 25.0048C14.7021 25.6769 22.3185 24.9913 29.9489 24.9644C32.7483 24.951 33.7606 23.7747 33.9979 21.1331C34.4168 16.4547 34.4657 11.8369 34.0747 7.13844C33.8164 4.02629 32.4132 2.93737 29.6487 2.84999C26.0534 2.74244 22.4511 2.8231 18.8559 2.8231Z" fill="#B9B2C1"/>
<path d="M18.8482 2.82311C22.4435 2.82311 26.0458 2.74244 29.6411 2.84999C32.4056 2.93737 33.8018 4.02629 34.0671 7.13845C34.458 11.8369 34.4092 16.4548 33.9903 21.1331C33.7529 23.7747 32.7407 24.951 29.9412 24.9645C22.3109 24.9913 14.6945 25.677 7.05011 25.0048C4.34143 24.7695 3.35011 23.7949 2.94521 21.16C2.17728 16.1119 2.77766 11.158 3.04294 6.15708C3.19653 3.27346 5.29785 2.97098 7.35728 2.8836C11.176 2.71556 15.0156 2.83655 18.8482 2.83655V2.82311ZM15.4205 21.5498C16.2373 21.5431 16.6911 21.0322 16.9773 20.4004C18.8343 16.3136 20.6773 12.2201 22.4784 8.1131C22.7437 7.50142 22.7995 6.70826 22.0456 6.33857C21.1031 5.87477 20.4399 6.46628 20.0979 7.21239C18.178 11.3933 16.2862 15.5809 14.4641 19.7955C14.1499 20.5281 14.2826 21.3818 15.4205 21.5498ZM12.1114 9.63893C12.2441 8.8861 12.0905 8.46935 11.6088 8.28786C11.0014 8.05933 10.4569 8.30131 10.0241 8.70461C8.60691 10.0288 7.21068 11.3731 5.82143 12.7242C5.3886 13.1409 5.04653 13.7459 5.36766 14.2366C6.73596 16.3338 8.64181 17.9739 10.6803 19.4526C10.9177 19.6274 11.6577 19.4795 11.888 19.2375C12.1254 18.9888 12.2231 18.3234 12.0416 18.0478C11.546 17.3084 10.9526 16.5757 10.2405 16.038C8.27181 14.5323 8.43238 13.1947 10.2824 11.7227C11.0643 11.0975 11.9369 10.459 12.1184 9.65237L12.1114 9.63893ZM25.962 19.5535C26.1784 19.4863 26.4088 19.4325 26.6182 19.3451C31.4073 17.3891 32.2031 13.5644 28.552 10.1027C28.3845 9.94813 28.2378 9.76664 28.0563 9.63221C27.1977 8.98692 26.332 7.42748 25.236 8.45591C23.8886 9.71959 25.585 10.7547 26.4577 11.3664C29.1175 13.2216 28.7195 14.7676 26.3529 16.4615C25.7316 16.9051 25.1941 17.5974 24.9009 18.2831C24.5797 19.0359 25.0405 19.5602 25.962 19.5535Z" fill="#FDFEFD"/>
<path d="M15.4222 21.5499C14.2843 21.3751 14.1586 20.5214 14.4728 19.7955C16.2948 15.5743 18.1867 11.3866 20.1065 7.21243C20.4486 6.47304 21.1118 5.87481 22.0543 6.33861C22.8082 6.71502 22.7524 7.50819 22.4871 8.11314C20.686 12.2201 18.8429 16.3136 16.986 20.4004C16.6997 21.0323 16.246 21.5431 15.4222 21.5499Z" fill="#B9B2C1"/>
<path d="M12.1115 9.63892C11.923 10.4455 11.0504 11.0841 10.2755 11.7092C8.42547 13.1813 8.2649 14.5256 10.2336 16.0246C10.9457 16.569 11.5391 17.3017 12.0347 18.0344C12.2162 18.3032 12.1255 18.9754 11.8811 19.2241C11.6507 19.4661 10.9107 19.614 10.6734 19.4392C8.6349 17.9671 6.72905 16.327 5.36075 14.2231C5.03962 13.7324 5.38169 13.1342 5.81452 12.7107C7.20377 11.3664 8.59999 10.0221 10.0172 8.69116C10.45 8.28786 10.9945 8.04587 11.6019 8.27441C12.0836 8.4559 12.2372 8.87265 12.1045 9.62548L12.1115 9.63892Z" fill="#B9B2C1"/>
<path d="M25.9623 19.5535C25.0408 19.5669 24.587 19.0427 24.9081 18.2898C25.2013 17.5975 25.7389 16.9119 26.3602 16.4682C28.7268 14.7676 29.1247 13.2284 26.4649 11.3732C25.5853 10.7615 23.8959 9.71963 25.2432 8.46267C26.3393 7.43424 27.2049 8.99368 28.0636 9.63897C28.2451 9.7734 28.3917 9.95489 28.5593 10.1095C32.2104 13.5712 31.4145 17.3958 26.6255 19.3519C26.416 19.4392 26.1857 19.493 25.9693 19.5602L25.9623 19.5535Z" fill="#B9B2C1"/>
</g>
<defs>
<clipPath id="clip0_129_506">
<rect width="37" height="35" fill="white"/>
</clipPath>
</defs>
</svg>
